weathericons-regular-webfont.ufo
<glyph name="uniF000" format="2">
  <advance width="1200"/>
  <unicode hex="E300"/>
  <note>
uniF000
</note>
  <outline>
    <contour>
      <point x="21" y="175"/>
      <point x="42" y="195"/>
      <point x="56" y="195" type="qcurve" smooth="yes"/>
      <point x="288" y="195" type="line" smooth="yes"/>
      <point x="332" y="195"/>
      <point x="393" y="133"/>
      <point x="393" y="46"/>
      <point x="332" y="-16"/>
      <point x="288" y="-16" type="qcurve" smooth="yes"/>
      <point x="245" y="-16"/>
      <point x="213" y="15" type="qcurve" smooth="yes"/>
      <point x="204" y="25"/>
      <point x="204" y="53"/>
      <point x="223" y="72"/>
      <point x="237" y="72" type="qcurve" smooth="yes"/>
      <point x="250" y="72"/>
      <point x="261" y="62" type="qcurve" smooth="yes"/>
      <point x="273" y="51"/>
      <point x="303" y="51"/>
      <point x="327" y="74"/>
      <point x="327" y="105"/>
      <point x="303" y="128"/>
      <point x="288" y="128" type="qcurve" smooth="yes"/>
      <point x="56" y="128" type="line" smooth="yes"/>
      <point x="42" y="128"/>
      <point x="32" y="138" type="qcurve" smooth="yes"/>
      <point x="21" y="147"/>
      <point x="21" y="161" type="qcurve" smooth="yes"/>
    </contour>
    <contour>
      <point x="21" y="294"/>
      <point x="42" y="314"/>
      <point x="56" y="314" type="qcurve" smooth="yes"/>
      <point x="489" y="314" type="line" smooth="yes"/>
      <point x="505" y="314"/>
      <point x="527" y="337"/>
      <point x="527" y="369"/>
      <point x="505" y="391"/>
      <point x="474" y="391"/>
      <point x="462" y="380" type="qcurve" smooth="yes"/>
      <point x="452" y="371"/>
      <point x="438" y="371" type="qcurve" smooth="yes"/>
      <point x="424" y="371"/>
      <point x="405" y="389"/>
      <point x="405" y="418"/>
      <point x="415" y="428" type="qcurve" smooth="yes"/>
      <point x="444" y="458"/>
      <point x="489" y="458" type="qcurve" smooth="yes"/>
      <point x="533" y="458"/>
      <point x="595" y="397"/>
      <point x="595" y="309"/>
      <point x="533" y="248"/>
      <point x="489" y="248" type="qcurve" smooth="yes"/>
      <point x="56" y="248" type="line" smooth="yes"/>
      <point x="42" y="248"/>
      <point x="32" y="258" type="qcurve" smooth="yes"/>
      <point x="21" y="267"/>
      <point x="21" y="280" type="qcurve" smooth="yes"/>
    </contour>
    <contour>
      <point x="126" y="375"/>
      <point x="127" y="376" type="qcurve"/>
      <point x="127" y="378" type="line"/>
      <point x="142" y="428"/>
      <point x="220" y="501"/>
      <point x="270" y="513" type="qcurve"/>
      <point x="287" y="593"/>
      <point x="415" y="697"/>
      <point x="499" y="697" type="qcurve" smooth="yes"/>
      <point x="557" y="697"/>
      <point x="604" y="673" type="qcurve"/>
      <point x="665" y="741"/>
      <point x="757" y="741" type="qcurve" smooth="yes"/>
      <point x="812" y="741"/>
      <point x="908" y="685"/>
      <point x="964" y="590"/>
      <point x="964" y="534" type="qcurve" smooth="yes"/>
      <point x="964" y="462"/>
      <point x="919" y="403" type="qcurve"/>
      <point x="936" y="367"/>
      <point x="936" y="323" type="qcurve" smooth="yes"/>
      <point x="936" y="271"/>
      <point x="883" y="180"/>
      <point x="793" y="128"/>
      <point x="741" y="128" type="qcurve" smooth="yes"/>
      <point x="468" y="128" type="line" smooth="yes"/>
      <point x="461" y="128"/>
      <point x="461" y="134" type="qcurve" smooth="yes"/>
      <point x="461" y="188" type="line" smooth="yes"/>
      <point x="461" y="195"/>
      <point x="468" y="195" type="qcurve" smooth="yes"/>
      <point x="741" y="195" type="line" smooth="yes"/>
      <point x="794" y="195"/>
      <point x="869" y="271"/>
      <point x="869" y="323" type="qcurve" smooth="yes"/>
      <point x="869" y="376"/>
      <point x="794" y="450"/>
      <point x="741" y="450" type="qcurve" smooth="yes"/>
      <point x="676" y="450" type="line" smooth="yes"/>
      <point x="669" y="450"/>
      <point x="669" y="458" type="qcurve"/>
      <point x="666" y="480" type="line" smooth="yes"/>
      <point x="660" y="545"/>
      <point x="564" y="630"/>
      <point x="499" y="630" type="qcurve" smooth="yes"/>
      <point x="434" y="630"/>
      <point x="338" y="545"/>
      <point x="332" y="480" type="qcurve" smooth="yes"/>
      <point x="330" y="460" type="line"/>
      <point x="330" y="453"/>
      <point x="322" y="453" type="qcurve"/>
      <point x="301" y="450" type="line"/>
      <point x="266" y="448"/>
      <point x="210" y="406"/>
      <point x="197" y="374" type="qcurve"/>
      <point x="193" y="368"/>
      <point x="189" y="368" type="qcurve" smooth="yes"/>
      <point x="133" y="368" type="line" smooth="yes"/>
      <point x="126" y="368"/>
      <point x="126" y="373" type="qcurve" smooth="yes"/>
    </contour>
    <contour>
      <point x="469" y="842"/>
      <point x="497" y="842"/>
      <point x="507" y="832" type="qcurve"/>
      <point x="532" y="806" type="line" smooth="yes"/>
      <point x="541" y="797"/>
      <point x="541" y="783" type="qcurve" smooth="yes"/>
      <point x="541" y="768"/>
      <point x="522" y="750"/>
      <point x="508" y="750" type="qcurve" smooth="yes"/>
      <point x="493" y="750"/>
      <point x="484" y="759" type="qcurve" smooth="yes"/>
      <point x="459" y="785" type="line"/>
      <point x="449" y="795"/>
      <point x="449" y="822"/>
    </contour>
    <contour>
      <point x="713" y="583"/>
      <point x="727" y="519" type="qcurve"/>
      <point x="741" y="519" type="line" smooth="yes"/>
      <point x="820" y="519"/>
      <point x="877" y="462" type="qcurve"/>
      <point x="897" y="496"/>
      <point x="897" y="534" type="qcurve" smooth="yes"/>
      <point x="897" y="592"/>
      <point x="814" y="675"/>
      <point x="757" y="675" type="qcurve" smooth="yes"/>
      <point x="702" y="675"/>
      <point x="659" y="635" type="qcurve"/>
    </contour>
    <contour>
      <point x="723" y="922" type="line" smooth="yes"/>
      <point x="723" y="936"/>
      <point x="743" y="956"/>
      <point x="771" y="956"/>
      <point x="791" y="936"/>
      <point x="791" y="922" type="qcurve" smooth="yes"/>
      <point x="791" y="841" type="line" smooth="yes"/>
      <point x="791" y="828"/>
      <point x="771" y="809"/>
      <point x="743" y="809"/>
      <point x="723" y="828"/>
      <point x="723" y="841" type="qcurve" smooth="yes"/>
    </contour>
    <contour>
      <point x="942" y="766"/>
      <point x="951" y="775" type="qcurve" smooth="yes"/>
      <point x="1008" y="833" type="line" smooth="yes"/>
      <point x="1017" y="843"/>
      <point x="1046" y="843"/>
      <point x="1066" y="823"/>
      <point x="1066" y="809" type="qcurve" smooth="yes"/>
      <point x="1066" y="795"/>
      <point x="1056" y="785" type="qcurve" smooth="yes"/>
      <point x="998" y="728" type="line"/>
      <point x="989" y="718"/>
      <point x="961" y="718"/>
      <point x="951" y="728" type="qcurve" smooth="yes"/>
      <point x="942" y="737"/>
      <point x="942" y="752" type="qcurve" smooth="yes"/>
    </contour>
    <contour>
      <point x="973" y="299"/>
      <point x="993" y="318"/>
      <point x="1007" y="318" type="qcurve" smooth="yes"/>
      <point x="1021" y="318"/>
      <point x="1030" y="309" type="qcurve" smooth="yes"/>
      <point x="1056" y="283" type="line" smooth="yes"/>
      <point x="1066" y="272"/>
      <point x="1066" y="259" type="qcurve" smooth="yes"/>
      <point x="1066" y="245"/>
      <point x="1056" y="235" type="qcurve"/>
      <point x="1044" y="226"/>
      <point x="1032" y="226" type="qcurve" smooth="yes"/>
      <point x="1020" y="226"/>
      <point x="1008" y="235" type="qcurve"/>
      <point x="983" y="261" type="line" smooth="yes"/>
      <point x="973" y="271"/>
      <point x="973" y="285" type="qcurve" smooth="yes"/>
    </contour>
    <contour>
      <point x="1051" y="568"/>
      <point x="1065" y="568" type="qcurve" smooth="yes"/>
      <point x="1145" y="568" type="line" smooth="yes"/>
      <point x="1159" y="568"/>
      <point x="1179" y="548"/>
      <point x="1179" y="520"/>
      <point x="1159" y="500"/>
      <point x="1145" y="500" type="qcurve" smooth="yes"/>
      <point x="1065" y="500" type="line" smooth="yes"/>
      <point x="1051" y="500"/>
      <point x="1042" y="511" type="qcurve"/>
      <point x="1032" y="520"/>
      <point x="1032" y="548"/>
    </contour>
  </outline>
</glyph>
<glyph name="uniF001" format="2">
  <advance width="1200"/>
  <unicode hex="E301"/>
  <note>
uniF001
</note>
  <outline>
    <contour>
      <point x="25" y="176"/>
      <point x="54" y="195"/>
      <point x="70" y="195" type="qcurve" smooth="yes"/>
      <point x="381" y="195" type="line" smooth="yes"/>
      <point x="395" y="195"/>
      <point x="414" y="176"/>
      <point x="414" y="162" type="qcurve" smooth="yes"/>
      <point x="414" y="148"/>
      <point x="395" y="128"/>
      <point x="381" y="128" type="qcurve" smooth="yes"/>
      <point x="70" y="128" type="line" smooth="yes"/>
      <point x="61" y="128"/>
      <point x="35" y="139" type="qcurve"/>
      <point x="25" y="148"/>
      <point x="25" y="163" type="qcurve" smooth="yes"/>
    </contour>
    <contour>
      <point x="100" y="315"/>
      <point x="113" y="315" type="qcurve" smooth="yes"/>
      <point x="485" y="315" type="line" smooth="yes"/>
      <point x="499" y="315"/>
      <point x="519" y="295"/>
      <point x="519" y="267"/>
      <point x="499" y="248"/>
      <point x="485" y="248" type="qcurve" smooth="yes"/>
      <point x="113" y="248" type="line" smooth="yes"/>
      <point x="99" y="248"/>
      <point x="90" y="258" type="qcurve"/>
      <point x="80" y="267"/>
      <point x="80" y="295"/>
    </contour>
    <contour>
      <point x="122" y="377"/>
      <point x="123" y="378" type="qcurve"/>
      <point x="138" y="428"/>
      <point x="214" y="502"/>
      <point x="265" y="514" type="qcurve"/>
      <point x="283" y="595"/>
      <point x="412" y="699"/>
      <point x="496" y="699" type="qcurve" smooth="yes"/>
      <point x="554" y="699"/>
      <point x="602" y="673" type="qcurve"/>
      <point x="632" y="705"/>
      <point x="711" y="740"/>
      <point x="754" y="740" type="qcurve" smooth="yes"/>
      <point x="810" y="740"/>
      <point x="906" y="684"/>
      <point x="962" y="589"/>
      <point x="962" y="533" type="qcurve" smooth="yes"/>
      <point x="962" y="460"/>
      <point x="916" y="403" type="qcurve"/>
      <point x="933" y="367"/>
      <point x="933" y="324" type="qcurve" smooth="yes"/>
      <point x="933" y="271"/>
      <point x="880" y="181"/>
      <point x="790" y="128"/>
      <point x="736" y="128" type="qcurve" smooth="yes"/>
      <point x="464" y="128" type="line" smooth="yes"/>
      <point x="458" y="128"/>
      <point x="458" y="135" type="qcurve" smooth="yes"/>
      <point x="458" y="188" type="line" smooth="yes"/>
      <point x="458" y="195"/>
      <point x="464" y="195" type="qcurve" smooth="yes"/>
      <point x="736" y="195" type="line" smooth="yes"/>
      <point x="789" y="195"/>
      <point x="866" y="271"/>
      <point x="866" y="324" type="qcurve" smooth="yes"/>
      <point x="866" y="376"/>
      <point x="789" y="452"/>
      <point x="736" y="452" type="qcurve" smooth="yes"/>
      <point x="673" y="452" type="line" smooth="yes"/>
      <point x="666" y="452"/>
      <point x="666" y="459" type="qcurve"/>
      <point x="663" y="481" type="line" smooth="yes"/>
      <point x="656" y="545"/>
      <point x="560" y="632"/>
      <point x="496" y="632" type="qcurve" smooth="yes"/>
      <point x="453" y="632"/>
      <point x="379" y="593"/>
      <point x="332" y="523"/>
      <point x="328" y="481" type="qcurve" smooth="yes"/>
      <point x="325" y="459" type="line"/>
      <point x="325" y="452"/>
      <point x="319" y="452" type="qcurve" smooth="yes"/>
      <point x="297" y="452" type="line"/>
      <point x="263" y="448"/>
      <point x="207" y="406"/>
      <point x="192" y="375" type="qcurve"/>
      <point x="190" y="370"/>
      <point x="183" y="370" type="qcurve" smooth="yes"/>
      <point x="128" y="370" type="line" smooth="yes"/>
      <point x="122" y="370"/>
      <point x="122" y="375" type="qcurve" smooth="yes"/>
    </contour>
    <contour>
      <point x="150" y="52"/>
      <point x="169" y="71"/>
      <point x="183" y="71" type="qcurve" smooth="yes"/>
      <point x="555" y="71" type="line" smooth="yes"/>
      <point x="569" y="71"/>
      <point x="588" y="52"/>
      <point x="588" y="37" type="qcurve" smooth="yes"/>
      <point x="588" y="23"/>
      <point x="569" y="4"/>
      <point x="555" y="4" type="qcurve" smooth="yes"/>
      <point x="183" y="4" type="line" smooth="yes"/>
      <point x="170" y="4"/>
      <point x="160" y="14" type="qcurve"/>
      <point x="150" y="23"/>
      <point x="150" y="37" type="qcurve" smooth="yes"/>
    </contour>
    <contour>
      <point x="445" y="821"/>
      <point x="465" y="841"/>
      <point x="480" y="841" type="qcurve" smooth="yes"/>
      <point x="493" y="841"/>
      <point x="503" y="831" type="qcurve" smooth="yes"/>
      <point x="528" y="805" type="line" smooth="yes"/>
      <point x="538" y="796"/>
      <point x="538" y="782" type="qcurve" smooth="yes"/>
      <point x="538" y="767"/>
      <point x="519" y="748"/>
      <point x="504" y="748" type="qcurve" smooth="yes"/>
      <point x="490" y="748"/>
      <point x="480" y="758" type="qcurve" smooth="yes"/>
      <point x="455" y="784" type="line" smooth="yes"/>
      <point x="445" y="793"/>
      <point x="445" y="807" type="qcurve" smooth="yes"/>
    </contour>
    <contour>
      <point x="708" y="586"/>
      <point x="725" y="518" type="qcurve"/>
      <point x="736" y="518" type="line" smooth="yes"/>
      <point x="819" y="518"/>
      <point x="875" y="462" type="qcurve"/>
      <point x="893" y="493"/>
      <point x="893" y="533" type="qcurve" smooth="yes"/>
      <point x="893" y="591"/>
      <point x="812" y="672"/>
      <point x="754" y="672" type="qcurve" smooth="yes"/>
      <point x="696" y="672"/>
      <point x="657" y="635" type="qcurve"/>
    </contour>
    <contour>
      <point x="721" y="921" type="line" smooth="yes"/>
      <point x="721" y="936"/>
      <point x="740" y="956"/>
      <point x="754" y="956" type="qcurve" smooth="yes"/>
      <point x="768" y="956"/>
      <point x="787" y="936"/>
      <point x="787" y="921" type="qcurve" smooth="yes"/>
      <point x="787" y="841" type="line" smooth="yes"/>
      <point x="787" y="826"/>
      <point x="769" y="808"/>
      <point x="754" y="808" type="qcurve" smooth="yes"/>
      <point x="740" y="808"/>
      <point x="721" y="827"/>
      <point x="721" y="841" type="qcurve" smooth="yes"/>
    </contour>
    <contour>
      <point x="939" y="764"/>
      <point x="949" y="774" type="qcurve" smooth="yes"/>
      <point x="1005" y="832" type="line"/>
      <point x="1015" y="841"/>
      <point x="1043" y="841"/>
      <point x="1063" y="822"/>
      <point x="1063" y="808" type="qcurve" smooth="yes"/>
      <point x="1063" y="793"/>
      <point x="1053" y="784" type="qcurve" smooth="yes"/>
      <point x="996" y="727" type="line"/>
      <point x="988" y="717"/>
      <point x="972" y="717" type="qcurve" smooth="yes"/>
      <point x="956" y="717"/>
      <point x="949" y="727" type="qcurve"/>
      <point x="939" y="736"/>
      <point x="939" y="750" type="qcurve" smooth="yes"/>
    </contour>
    <contour>
      <point x="989" y="316"/>
      <point x="1003" y="316" type="qcurve" smooth="yes"/>
      <point x="1017" y="316"/>
      <point x="1028" y="305" type="qcurve" smooth="yes"/>
      <point x="1053" y="281" type="line"/>
      <point x="1063" y="271"/>
      <point x="1063" y="257" type="qcurve" smooth="yes"/>
      <point x="1063" y="243"/>
      <point x="1053" y="234" type="qcurve"/>
      <point x="1039" y="223"/>
      <point x="1020" y="223"/>
      <point x="1005" y="234" type="qcurve"/>
      <point x="979" y="258" type="line" smooth="yes"/>
      <point x="970" y="268"/>
      <point x="970" y="296"/>
    </contour>
    <contour>
      <point x="1027" y="545"/>
      <point x="1047" y="563"/>
      <point x="1062" y="563" type="qcurve" smooth="yes"/>
      <point x="1142" y="563" type="line" smooth="yes"/>
      <point x="1156" y="563"/>
      <point x="1175" y="545"/>
      <point x="1175" y="532" type="qcurve" smooth="yes"/>
      <point x="1175" y="518"/>
      <point x="1155" y="498"/>
      <point x="1142" y="498" type="qcurve" smooth="yes"/>
      <point x="1062" y="498" type="line" smooth="yes"/>
      <point x="1049" y="498"/>
      <point x="1038" y="508" type="qcurve" smooth="yes"/>
      <point x="1027" y="517"/>
      <point x="1027" y="532" type="qcurve" smooth="yes"/>
    </contour>
  </outline>
</glyph>
<glyph name="uniF002" format="2">
  <advance width="1200"/>
  <unicode hex="E302"/>
  <note>
uniF002
</note>
  <outline>
    <contour>
      <point x="69" y="392"/>
      <point x="153" y="498"/>
      <point x="220" y="513" type="qcurve"/>
      <point x="238" y="594"/>
      <point x="366" y="697"/>
      <point x="449" y="697" type="qcurve" smooth="yes"/>
      <point x="510" y="697"/>
      <point x="556" y="671" type="qcurve"/>
      <point x="621" y="740"/>
      <point x="709" y="740" type="qcurve" smooth="yes"/>
      <point x="751" y="740"/>
      <point x="828" y="707"/>
      <point x="883" y="652"/>
      <point x="916" y="575"/>
      <point x="916" y="533" type="qcurve" smooth="yes"/>
      <point x="916" y="458"/>
      <point x="871" y="402" type="qcurve"/>
      <point x="888" y="363"/>
      <point x="888" y="323" type="qcurve" smooth="yes"/>
      <point x="888" y="270"/>
      <point x="835" y="180"/>
      <point x="745" y="128"/>
      <point x="692" y="128" type="qcurve" smooth="yes"/>
      <point x="264" y="128" type="line" smooth="yes"/>
      <point x="211" y="128"/>
      <point x="121" y="180"/>
      <point x="69" y="270"/>
      <point x="69" y="323" type="qcurve" smooth="yes"/>
    </contour>
    <contour>
      <point x="137" y="271"/>
      <point x="212" y="194"/>
      <point x="264" y="194" type="qcurve" smooth="yes"/>
      <point x="692" y="194" type="line" smooth="yes"/>
      <point x="744" y="194"/>
      <point x="819" y="270"/>
      <point x="819" y="323" type="qcurve" smooth="yes"/>
      <point x="819" y="375"/>
      <point x="744" y="451"/>
      <point x="692" y="451" type="qcurve" smooth="yes"/>
      <point x="628" y="451" type="line" smooth="yes"/>
      <point x="621" y="451"/>
      <point x="620" y="458" type="qcurve"/>
      <point x="617" y="480" type="line" smooth="yes"/>
      <point x="611" y="544"/>
      <point x="514" y="631"/>
      <point x="449" y="631" type="qcurve" smooth="yes"/>
      <point x="385" y="631"/>
      <point x="291" y="545"/>
      <point x="283" y="480" type="qcurve" smooth="yes"/>
      <point x="280" y="459" type="line"/>
      <point x="280" y="452"/>
      <point x="273" y="452" type="qcurve" smooth="yes"/>
      <point x="253" y="451" type="line"/>
      <point x="203" y="445"/>
      <point x="137" y="373"/>
      <point x="137" y="323" type="qcurve" smooth="yes"/>
    </contour>
    <contour>
      <point x="401" y="822"/>
      <point x="421" y="842"/>
      <point x="436" y="842" type="qcurve" smooth="yes"/>
      <point x="449" y="842"/>
      <point x="460" y="832" type="qcurve"/>
      <point x="483" y="806" type="line"/>
      <point x="494" y="797"/>
      <point x="494" y="769"/>
      <point x="474" y="748"/>
      <point x="462" y="748" type="qcurve"/>
      <point x="452" y="747"/>
      <point x="437" y="758" type="qcurve"/>
      <point x="411" y="783" type="line" smooth="yes"/>
      <point x="401" y="794"/>
      <point x="401" y="808" type="qcurve" smooth="yes"/>
    </contour>
    <contour>
      <point x="664" y="582"/>
      <point x="679" y="517" type="qcurve"/>
      <point x="692" y="517" type="line" smooth="yes"/>
      <point x="772" y="517"/>
      <point x="829" y="460" type="qcurve"/>
      <point x="849" y="496"/>
      <point x="849" y="533" type="qcurve" smooth="yes"/>
      <point x="849" y="592"/>
      <point x="768" y="673"/>
      <point x="709" y="673" type="qcurve" smooth="yes"/>
      <point x="654" y="673"/>
      <point x="612" y="633" type="qcurve"/>
    </contour>
    <contour>
      <point x="676" y="923" type="line" smooth="yes"/>
      <point x="676" y="937"/>
      <point x="695" y="955"/>
      <point x="709" y="955" type="qcurve" smooth="yes"/>
      <point x="724" y="955"/>
      <point x="743" y="937"/>
      <point x="743" y="923" type="qcurve" smooth="yes"/>
      <point x="743" y="842" type="line" smooth="yes"/>
      <point x="743" y="827"/>
      <point x="724" y="808"/>
      <point x="709" y="808" type="qcurve" smooth="yes"/>
      <point x="695" y="808"/>
      <point x="676" y="827"/>
      <point x="676" y="842" type="qcurve" smooth="yes"/>
    </contour>
    <contour>
      <point x="895" y="765"/>
      <point x="903" y="776" type="qcurve"/>
      <point x="962" y="832" type="line"/>
      <point x="970" y="842"/>
      <point x="985" y="842" type="qcurve" smooth="yes"/>
      <point x="998" y="842"/>
      <point x="1017" y="823"/>
      <point x="1017" y="809" type="qcurve" smooth="yes"/>
      <point x="1017" y="794"/>
      <point x="1008" y="783" type="qcurve"/>
      <point x="951" y="727" type="line"/>
      <point x="939" y="717"/>
      <point x="928" y="717" type="qcurve" smooth="yes"/>
      <point x="916" y="717"/>
      <point x="903" y="727" type="qcurve"/>
      <point x="895" y="736"/>
      <point x="895" y="751" type="qcurve" smooth="yes"/>
    </contour>
    <contour>
      <point x="946" y="317"/>
      <point x="960" y="317" type="qcurve" smooth="yes"/>
      <point x="973" y="317"/>
      <point x="982" y="308" type="qcurve" smooth="yes"/>
      <point x="1008" y="282" type="line" smooth="yes"/>
      <point x="1017" y="272"/>
      <point x="1017" y="259" type="qcurve" smooth="yes"/>
      <point x="1017" y="244"/>
      <point x="999" y="225"/>
      <point x="970" y="225"/>
      <point x="962" y="234" type="qcurve" smooth="yes"/>
      <point x="936" y="259" type="line" smooth="yes"/>
      <point x="926" y="270"/>
      <point x="926" y="298"/>
    </contour>
    <contour>
      <point x="1004" y="567"/>
      <point x="1018" y="567" type="qcurve" smooth="yes"/>
      <point x="1099" y="567" type="line" smooth="yes"/>
      <point x="1113" y="567"/>
      <point x="1131" y="547"/>
      <point x="1131" y="519"/>
      <point x="1113" y="500"/>
      <point x="1099" y="500" type="qcurve" smooth="yes"/>
      <point x="1018" y="500" type="line" smooth="yes"/>
      <point x="1004" y="500"/>
      <point x="994" y="510" type="qcurve" smooth="yes"/>
      <point x="984" y="519"/>
      <point x="984" y="547"/>
    </contour>
  </outline>
</glyph>
<glyph name="uniF003" format="2">
  <advance width="1200"/>
  <unicode hex="E303"/>
  <note>
uniF003
</note>
  <outline>
    <contour>
      <point x="20" y="174"/>
      <point x="40" y="193"/>
      <point x="55" y="193" type="qcurve" smooth="yes"/>
      <point x="794" y="193" type="line" smooth="yes"/>
      <point x="808" y="193"/>
      <point x="828" y="174"/>
      <point x="828" y="159" type="qcurve" smooth="yes"/>
      <point x="828" y="146"/>
      <point x="808" y="127"/>
      <point x="794" y="127" type="qcurve" smooth="yes"/>
      <point x="55" y="127" type="line" smooth="yes"/>
      <point x="40" y="127"/>
      <point x="20" y="146"/>
      <point x="20" y="159" type="qcurve" smooth="yes"/>
    </contour>
    <contour>
      <point x="143" y="316"/>
      <point x="157" y="316" type="qcurve" smooth="yes"/>
      <point x="897" y="316" type="line" smooth="yes"/>
      <point x="911" y="316"/>
      <point x="929" y="297"/>
      <point x="929" y="283" type="qcurve" smooth="yes"/>
      <point x="929" y="269"/>
      <point x="910" y="249"/>
      <point x="897" y="249" type="qcurve" smooth="yes"/>
      <point x="157" y="249" type="line" smooth="yes"/>
      <point x="144" y="249"/>
      <point x="134" y="260" type="qcurve" smooth="yes"/>
      <point x="124" y="269"/>
      <point x="124" y="297"/>
    </contour>
    <contour>
      <point x="128" y="381"/>
      <point x="129" y="382" type="qcurve"/>
      <point x="165" y="486"/>
      <point x="271" y="514" type="qcurve"/>
      <point x="289" y="595"/>
      <point x="418" y="699"/>
      <point x="501" y="699" type="qcurve" smooth="yes"/>
      <point x="557" y="699"/>
      <point x="607" y="674" type="qcurve"/>
      <point x="666" y="740"/>
      <point x="758" y="740" type="qcurve" smooth="yes"/>
      <point x="800" y="740"/>
      <point x="877" y="708"/>
      <point x="932" y="652"/>
      <point x="965" y="576"/>
      <point x="965" y="534" type="qcurve" smooth="yes"/>
      <point x="965" y="459"/>
      <point x="920" y="403" type="qcurve"/>
      <point x="927" y="382" type="line" smooth="yes"/>
      <point x="930" y="373"/>
      <point x="922" y="373" type="qcurve" smooth="yes"/>
      <point x="865" y="373" type="line" smooth="yes"/>
      <point x="862" y="373"/>
      <point x="858" y="379" type="qcurve"/>
      <point x="842" y="413"/>
      <point x="780" y="453"/>
      <point x="742" y="453" type="qcurve" smooth="yes"/>
      <point x="678" y="453" type="line" smooth="yes"/>
      <point x="671" y="453"/>
      <point x="671" y="460" type="qcurve"/>
      <point x="668" y="483" type="line" smooth="yes"/>
      <point x="661" y="546"/>
      <point x="565" y="632"/>
      <point x="501" y="632" type="qcurve" smooth="yes"/>
      <point x="436" y="632"/>
      <point x="340" y="546"/>
      <point x="334" y="482" type="qcurve" smooth="yes"/>
      <point x="331" y="462" type="line"/>
      <point x="331" y="455"/>
      <point x="325" y="455" type="qcurve"/>
      <point x="303" y="452" type="line"/>
      <point x="270" y="449"/>
      <point x="214" y="410"/>
      <point x="200" y="379" type="qcurve"/>
      <point x="195" y="373"/>
      <point x="191" y="373" type="qcurve" smooth="yes"/>
      <point x="135" y="373" type="line" smooth="yes"/>
      <point x="128" y="373"/>
      <point x="128" y="378" type="qcurve" smooth="yes"/>
    </contour>
    <contour>
      <point x="193" y="52"/>
      <point x="213" y="70"/>
      <point x="227" y="70" type="qcurve" smooth="yes"/>
      <point x="967" y="70" type="line" smooth="yes"/>
      <point x="981" y="70"/>
      <point x="1000" y="52"/>
      <point x="1000" y="38" type="qcurve" smooth="yes"/>
      <point x="1000" y="24"/>
      <point x="980" y="4"/>
      <point x="967" y="4" type="qcurve" smooth="yes"/>
      <point x="227" y="4" type="line" smooth="yes"/>
      <point x="213" y="4"/>
      <point x="203" y="14" type="qcurve"/>
      <point x="193" y="24"/>
      <point x="193" y="38" type="qcurve" smooth="yes"/>
    </contour>
    <contour>
      <point x="452" y="821"/>
      <point x="470" y="841"/>
      <point x="485" y="841" type="qcurve" smooth="yes"/>
      <point x="499" y="841"/>
      <point x="508" y="831" type="qcurve"/>
      <point x="534" y="807" type="line"/>
      <point x="544" y="796"/>
      <point x="544" y="782" type="qcurve" smooth="yes"/>
      <point x="544" y="767"/>
      <point x="523" y="748"/>
      <point x="510" y="748" type="qcurve" smooth="yes"/>
      <point x="497" y="748"/>
      <point x="487" y="759" type="qcurve" smooth="yes"/>
      <point x="461" y="784" type="line" smooth="yes"/>
      <point x="452" y="793"/>
      <point x="452" y="807" type="qcurve" smooth="yes"/>
    </contour>
    <contour>
      <point x="712" y="589"/>
      <point x="728" y="519" type="qcurve"/>
      <point x="742" y="519" type="line" smooth="yes"/>
      <point x="822" y="519"/>
      <point x="879" y="463" type="qcurve"/>
      <point x="898" y="496"/>
      <point x="898" y="534" type="qcurve" smooth="yes"/>
      <point x="898" y="592"/>
      <point x="816" y="674"/>
      <point x="758" y="674" type="qcurve" smooth="yes"/>
      <point x="702" y="674"/>
      <point x="662" y="634" type="qcurve"/>
    </contour>
    <contour>
      <point x="725" y="921" type="line" smooth="yes"/>
      <point x="725" y="936"/>
      <point x="744" y="955"/>
      <point x="758" y="955" type="qcurve" smooth="yes"/>
      <point x="772" y="955"/>
      <point x="793" y="935"/>
      <point x="793" y="921" type="qcurve" smooth="yes"/>
      <point x="793" y="841" type="line" smooth="yes"/>
      <point x="793" y="827"/>
      <point x="773" y="808"/>
      <point x="758" y="808" type="qcurve" smooth="yes"/>
      <point x="744" y="808"/>
      <point x="725" y="827"/>
      <point x="725" y="841" type="qcurve" smooth="yes"/>
    </contour>
    <contour>
      <point x="942" y="764"/>
      <point x="952" y="774" type="qcurve" smooth="yes"/>
      <point x="1010" y="832" type="line" smooth="yes"/>
      <point x="1019" y="842"/>
      <point x="1033" y="842" type="qcurve" smooth="yes"/>
      <point x="1047" y="842"/>
      <point x="1066" y="823"/>
      <point x="1066" y="809" type="qcurve" smooth="yes"/>
      <point x="1066" y="794"/>
      <point x="1057" y="784" type="qcurve" smooth="yes"/>
      <point x="1000" y="727" type="line"/>
      <point x="974" y="706"/>
      <point x="952" y="727" type="qcurve" smooth="yes"/>
      <point x="942" y="737"/>
      <point x="942" y="751" type="qcurve" smooth="yes"/>
    </contour>
    <contour>
      <point x="993" y="319"/>
      <point x="1007" y="319" type="qcurve" smooth="yes"/>
      <point x="1021" y="319"/>
      <point x="1031" y="309" type="qcurve" smooth="yes"/>
      <point x="1057" y="283" type="line" smooth="yes"/>
      <point x="1066" y="274"/>
      <point x="1066" y="261" type="qcurve" smooth="yes"/>
      <point x="1066" y="246"/>
      <point x="1057" y="236" type="qcurve"/>
      <point x="1045" y="226"/>
      <point x="1033" y="226" type="qcurve" smooth="yes"/>
      <point x="1019" y="226"/>
      <point x="1010" y="236" type="qcurve" smooth="yes"/>
      <point x="985" y="261" type="line" smooth="yes"/>
      <point x="974" y="271"/>
      <point x="974" y="299"/>
    </contour>
    <contour>
      <point x="1033" y="548"/>
      <point x="1052" y="567"/>
      <point x="1066" y="567" type="qcurve" smooth="yes"/>
      <point x="1147" y="567" type="line" smooth="yes"/>
      <point x="1161" y="567"/>
      <point x="1180" y="548"/>
      <point x="1180" y="520"/>
      <point x="1161" y="500"/>
      <point x="1147" y="500" type="qcurve" smooth="yes"/>
      <point x="1066" y="500" type="line" smooth="yes"/>
      <point x="1052" y="500"/>
      <point x="1043" y="510" type="qcurve"/>
      <point x="1033" y="520"/>
      <point x="1033" y="534" type="qcurve" smooth="yes"/>
    </contour>
  </outline>
</glyph>
<glyph name="uniF004" format="2">
  <advance width="1200"/>
  <unicode hex="E304"/>
  <note>
uniF004
</note>
  <outline>
    <contour>
      <point x="66" y="393"/>
      <point x="151" y="499"/>
      <point x="217" y="515" type="qcurve"/>
      <point x="235" y="596"/>
      <point x="365" y="700"/>
      <point x="449" y="700" type="qcurve" smooth="yes"/>
      <point x="508" y="700"/>
      <point x="556" y="674" type="qcurve"/>
      <point x="617" y="743"/>
      <point x="710" y="743" type="qcurve" smooth="yes"/>
      <point x="766" y="743"/>
      <point x="862" y="687"/>
      <point x="918" y="591"/>
      <point x="918" y="535" type="qcurve" smooth="yes"/>
      <point x="918" y="460"/>
      <point x="871" y="403" type="qcurve"/>
      <point x="888" y="368"/>
      <point x="888" y="324" type="qcurve" smooth="yes"/>
      <point x="888" y="245"/>
      <point x="778" y="130"/>
      <point x="699" y="128" type="qcurve" smooth="yes"/>
      <point x="691" y="128"/>
      <point x="691" y="134" type="qcurve" smooth="yes"/>
      <point x="691" y="187" type="line" smooth="yes"/>
      <point x="691" y="194"/>
      <point x="699" y="194" type="qcurve" smooth="yes"/>
      <point x="749" y="197"/>
      <point x="821" y="273"/>
      <point x="821" y="324" type="qcurve" smooth="yes"/>
      <point x="821" y="376"/>
      <point x="744" y="452"/>
      <point x="691" y="452" type="qcurve" smooth="yes"/>
      <point x="627" y="452" type="line" smooth="yes"/>
      <point x="620" y="452"/>
      <point x="620" y="459" type="qcurve"/>
      <point x="617" y="482" type="line" smooth="yes"/>
      <point x="611" y="546"/>
      <point x="513" y="633"/>
      <point x="449" y="633" type="qcurve" smooth="yes"/>
      <point x="384" y="633"/>
      <point x="288" y="546"/>
      <point x="281" y="482" type="qcurve" smooth="yes"/>
      <point x="279" y="460" type="line"/>
      <point x="279" y="453"/>
      <point x="271" y="453" type="qcurve" smooth="yes"/>
      <point x="250" y="452" type="line"/>
      <point x="200" y="446"/>
      <point x="133" y="373"/>
      <point x="133" y="324" type="qcurve" smooth="yes"/>
      <point x="133" y="273"/>
      <point x="205" y="197"/>
      <point x="255" y="194" type="qcurve" smooth="yes"/>
      <point x="263" y="194"/>
      <point x="263" y="187" type="qcurve" smooth="yes"/>
      <point x="263" y="134" type="line" smooth="yes"/>
      <point x="263" y="128"/>
      <point x="255" y="128" type="qcurve" smooth="yes"/>
      <point x="176" y="131"/>
      <point x="66" y="245"/>
      <point x="66" y="324" type="qcurve" smooth="yes"/>
    </contour>
    <contour>
      <point x="272" y="60"/>
      <point x="277" y="70" type="qcurve"/>
      <point x="283" y="83"/>
      <point x="309" y="94"/>
      <point x="321" y="87" type="qcurve"/>
      <point x="333" y="82"/>
      <point x="343" y="57"/>
      <point x="337" y="44" type="qcurve"/>
      <point x="333" y="32"/>
      <point x="307" y="22"/>
      <point x="295" y="28" type="qcurve"/>
      <point x="283" y="32"/>
      <point x="277" y="45" type="qcurve"/>
    </contour>
    <contour>
      <point x="302" y="163"/>
      <point x="303" y="168" type="qcurve"/>
      <point x="344" y="296" type="line" smooth="yes"/>
      <point x="348" y="309"/>
      <point x="372" y="322"/>
      <point x="385" y="318" type="qcurve"/>
      <point x="399" y="315"/>
      <point x="414" y="291"/>
      <point x="410" y="277" type="qcurve" smooth="yes"/>
      <point x="368" y="150" type="line" smooth="yes"/>
      <point x="360" y="124"/>
      <point x="341" y="124" type="qcurve" smooth="yes"/>
      <point x="317" y="124"/>
      <point x="306" y="142" type="qcurve"/>
      <point x="302" y="149"/>
      <point x="302" y="158" type="qcurve" smooth="yes"/>
    </contour>
    <contour>
      <point x="376" y="-56"/>
      <point x="386" y="-37"/>
      <point x="397" y="-32" type="qcurve" smooth="yes"/>
      <point x="410" y="-27"/>
      <point x="434" y="-37"/>
      <point x="445" y="-63"/>
      <point x="434" y="-89"/>
      <point x="421" y="-94" type="qcurve"/>
      <point x="413" y="-96"/>
      <point x="409" y="-96" type="qcurve" smooth="yes"/>
      <point x="401" y="-96"/>
      <point x="395" y="-93" type="qcurve"/>
      <point x="383" y="-89"/>
      <point x="378" y="-76" type="qcurve" smooth="yes"/>
      <point x="376" y="-72"/>
      <point x="376" y="-64" type="qcurve" smooth="yes"/>
    </contour>
    <contour>
      <point x="400" y="824"/>
      <point x="419" y="844"/>
      <point x="434" y="844" type="qcurve" smooth="yes"/>
      <point x="447" y="844"/>
      <point x="458" y="834" type="qcurve" smooth="yes"/>
      <point x="483" y="809" type="line" smooth="yes"/>
      <point x="493" y="799"/>
      <point x="493" y="785" type="qcurve" smooth="yes"/>
      <point x="493" y="770"/>
      <point x="469" y="749"/>
      <point x="457" y="750" type="qcurve" smooth="yes"/>
      <point x="445" y="752"/>
      <point x="435" y="761" type="qcurve" smooth="yes"/>
      <point x="410" y="787" type="line" smooth="yes"/>
      <point x="400" y="796"/>
      <point x="400" y="810" type="qcurve" smooth="yes"/>
    </contour>
    <contour>
      <point x="405" y="44"/>
      <point x="406" y="51" type="qcurve"/>
      <point x="479" y="296" type="line" smooth="yes"/>
      <point x="483" y="309"/>
      <point x="507" y="322"/>
      <point x="521" y="318" type="qcurve" smooth="yes"/>
      <point x="534" y="314"/>
      <point x="547" y="291"/>
      <point x="543" y="277" type="qcurve" smooth="yes"/>
      <point x="472" y="34" type="line" smooth="yes"/>
      <point x="467" y="17"/>
      <point x="455" y="12" type="qcurve" smooth="yes"/>
      <point x="448" y="9"/>
      <point x="439" y="9" type="qcurve" smooth="yes"/>
      <point x="437" y="9"/>
      <point x="430" y="10" type="qcurve" smooth="yes"/>
      <point x="417" y="14"/>
      <point x="405" y="32"/>
      <point x="405" y="42" type="qcurve" smooth="yes"/>
    </contour>
    <contour>
      <point x="541" y="65"/>
      <point x="544" y="70" type="qcurve" smooth="yes"/>
      <point x="550" y="83"/>
      <point x="575" y="94"/>
      <point x="588" y="87" type="qcurve" smooth="yes"/>
      <point x="600" y="81"/>
      <point x="610" y="57"/>
      <point x="605" y="44" type="qcurve" smooth="yes"/>
      <point x="600" y="32"/>
      <point x="587" y="27" type="qcurve"/>
      <point x="579" y="25"/>
      <point x="575" y="25" type="qcurve" smooth="yes"/>
      <point x="568" y="25"/>
      <point x="561" y="28" type="qcurve" smooth="yes"/>
      <point x="549" y="33"/>
      <point x="544" y="45" type="qcurve"/>
      <point x="541" y="50"/>
      <point x="541" y="57" type="qcurve" smooth="yes"/>
    </contour>
    <contour>
      <point x="569" y="161"/>
      <point x="571" y="169" type="qcurve"/>
      <point x="612" y="296" type="line" smooth="yes"/>
      <point x="616" y="309"/>
      <point x="639" y="322"/>
      <point x="653" y="318" type="qcurve" smooth="yes"/>
      <point x="666" y="314"/>
      <point x="680" y="291"/>
      <point x="676" y="277" type="qcurve" smooth="yes"/>
      <point x="635" y="151" type="line" smooth="yes"/>
      <point x="627" y="127"/>
      <point x="604" y="127" type="qcurve" smooth="yes"/>
      <point x="599" y="127"/>
      <point x="594" y="128" type="qcurve" smooth="yes"/>
      <point x="582" y="132"/>
      <point x="569" y="149"/>
      <point x="569" y="159" type="qcurve" smooth="yes"/>
    </contour>
    <contour>
      <point x="661" y="587"/>
      <point x="679" y="519" type="qcurve"/>
      <point x="691" y="519" type="line" smooth="yes"/>
      <point x="773" y="519"/>
      <point x="829" y="462" type="qcurve"/>
      <point x="850" y="498"/>
      <point x="850" y="535" type="qcurve" smooth="yes"/>
      <point x="850" y="593"/>
      <point x="768" y="674"/>
      <point x="710" y="674" type="qcurve" smooth="yes"/>
      <point x="651" y="674"/>
      <point x="612" y="636" type="qcurve"/>
    </contour>
    <contour>
      <point x="676" y="925" type="line" smooth="yes"/>
      <point x="676" y="939"/>
      <point x="696" y="959"/>
      <point x="710" y="959" type="qcurve" smooth="yes"/>
      <point x="723" y="959"/>
      <point x="742" y="939"/>
      <point x="742" y="925" type="qcurve" smooth="yes"/>
      <point x="742" y="844" type="line" smooth="yes"/>
      <point x="742" y="830"/>
      <point x="723" y="810"/>
      <point x="710" y="810" type="qcurve" smooth="yes"/>
      <point x="696" y="810"/>
      <point x="676" y="830"/>
      <point x="676" y="844" type="qcurve" smooth="yes"/>
    </contour>
    <contour>
      <point x="905" y="777" type="qcurve" smooth="yes"/>
      <point x="962" y="834" type="line"/>
      <point x="972" y="844"/>
      <point x="985" y="844" type="qcurve" smooth="yes"/>
      <point x="999" y="844"/>
      <point x="1019" y="824"/>
      <point x="1019" y="810" type="qcurve" smooth="yes"/>
      <point x="1019" y="796"/>
      <point x="1009" y="787" type="qcurve"/>
      <point x="952" y="730" type="line" smooth="yes"/>
      <point x="942" y="720"/>
      <point x="914" y="719"/>
      <point x="905" y="730" type="qcurve"/>
      <point x="895" y="739"/>
      <point x="895" y="768"/>
    </contour>
    <contour>
      <point x="927" y="297"/>
      <point x="946" y="317"/>
      <point x="974" y="317"/>
      <point x="983" y="307" type="qcurve"/>
      <point x="1009" y="282" type="line" smooth="yes"/>
      <point x="1019" y="272"/>
      <point x="1019" y="244"/>
      <point x="1009" y="235" type="qcurve"/>
      <point x="1000" y="224"/>
      <point x="986" y="224" type="qcurve" smooth="yes"/>
      <point x="971" y="224"/>
      <point x="962" y="235" type="qcurve"/>
      <point x="936" y="259" type="line"/>
      <point x="927" y="270"/>
      <point x="927" y="283" type="qcurve" smooth="yes"/>
    </contour>
    <contour>
      <point x="985" y="549"/>
      <point x="1005" y="567"/>
      <point x="1019" y="567" type="qcurve" smooth="yes"/>
      <point x="1100" y="567" type="line" smooth="yes"/>
      <point x="1114" y="567"/>
      <point x="1134" y="549"/>
      <point x="1134" y="535" type="qcurve" smooth="yes"/>
      <point x="1134" y="521"/>
      <point x="1114" y="501"/>
      <point x="1100" y="501" type="qcurve" smooth="yes"/>
      <point x="1019" y="501" type="line" smooth="yes"/>
      <point x="1005" y="501"/>
      <point x="995" y="511" type="qcurve" smooth="yes"/>
      <point x="985" y="521"/>
      <point x="985" y="535" type="qcurve" smooth="yes"/>
    </contour>
  </outline>
</glyph>
<glyph name="uniF005" format="2">
  <advance width="1200"/>
  <unicode hex="E305"/>
  <note>
uniF005
</note>
  <outline>
    <contour>
      <point x="69" y="392"/>
      <point x="154" y="498"/>
      <point x="219" y="513" type="qcurve"/>
      <point x="237" y="595"/>
      <point x="367" y="697"/>
      <point x="451" y="697" type="qcurve" smooth="yes"/>
      <point x="505" y="697"/>
      <point x="555" y="673" type="qcurve"/>
      <point x="617" y="742"/>
      <point x="709" y="742" type="qcurve" smooth="yes"/>
      <point x="751" y="742"/>
      <point x="827" y="709"/>
      <point x="883" y="653"/>
      <point x="916" y="577"/>
      <point x="916" y="535" type="qcurve" smooth="yes"/>
      <point x="916" y="461"/>
      <point x="869" y="405" type="qcurve"/>
      <point x="887" y="363"/>
      <point x="887" y="323" type="qcurve" smooth="yes"/>
      <point x="887" y="244"/>
      <point x="778" y="130"/>
      <point x="699" y="128" type="qcurve" smooth="yes"/>
      <point x="691" y="128"/>
      <point x="691" y="134" type="qcurve" smooth="yes"/>
      <point x="691" y="188" type="line" smooth="yes"/>
      <point x="691" y="195"/>
      <point x="699" y="195" type="qcurve"/>
      <point x="751" y="199"/>
      <point x="821" y="273"/>
      <point x="821" y="323" type="qcurve" smooth="yes"/>
      <point x="821" y="376"/>
      <point x="745" y="451"/>
      <point x="691" y="451" type="qcurve" smooth="yes"/>
      <point x="628" y="451" type="line" smooth="yes"/>
      <point x="621" y="451"/>
      <point x="621" y="458" type="qcurve"/>
      <point x="618" y="480" type="line" smooth="yes"/>
      <point x="611" y="545"/>
      <point x="515" y="631"/>
      <point x="451" y="631" type="qcurve" smooth="yes"/>
      <point x="385" y="631"/>
      <point x="290" y="545"/>
      <point x="283" y="480" type="qcurve" smooth="yes"/>
      <point x="281" y="460" type="line"/>
      <point x="281" y="454"/>
      <point x="273" y="454" type="qcurve"/>
      <point x="253" y="451" type="line"/>
      <point x="203" y="447"/>
      <point x="136" y="373"/>
      <point x="136" y="323" type="qcurve" smooth="yes"/>
      <point x="136" y="273"/>
      <point x="207" y="199"/>
      <point x="258" y="195" type="qcurve"/>
      <point x="265" y="195"/>
      <point x="265" y="188" type="qcurve" smooth="yes"/>
      <point x="265" y="134" type="line" smooth="yes"/>
      <point x="265" y="128"/>
      <point x="258" y="128" type="qcurve" smooth="yes"/>
      <point x="179" y="131"/>
      <point x="69" y="245"/>
      <point x="69" y="323" type="qcurve" smooth="yes"/>
    </contour>
    <contour>
      <point x="462" y="132" type="line"/>
      <point x="377" y="132" type="line" smooth="yes"/>
      <point x="370" y="132"/>
      <point x="371" y="140" type="qcurve"/>
      <point x="457" y="366" type="line"/>
      <point x="460" y="371"/>
      <point x="465" y="371" type="qcurve" smooth="yes"/>
      <point x="581" y="371" type="line" smooth="yes"/>
      <point x="591" y="371"/>
      <point x="587" y="363" type="qcurve" smooth="yes"/>
      <point x="496" y="196" type="line"/>
      <point x="582" y="196" type="line" smooth="yes"/>
      <point x="586" y="196"/>
      <point x="589" y="191"/>
      <point x="587" y="188" type="qcurve"/>
      <point x="377" y="-122" type="line"/>
      <point x="365" y="-122" type="line"/>
    </contour>
    <contour>
      <point x="400" y="824"/>
      <point x="420" y="844"/>
      <point x="434" y="844" type="qcurve" smooth="yes"/>
      <point x="447" y="844"/>
      <point x="458" y="834" type="qcurve"/>
      <point x="483" y="808" type="line" smooth="yes"/>
      <point x="493" y="799"/>
      <point x="493" y="785" type="qcurve" smooth="yes"/>
      <point x="493" y="770"/>
      <point x="483" y="760" type="qcurve"/>
      <point x="460" y="741"/>
      <point x="435" y="760" type="qcurve"/>
      <point x="410" y="785" type="line" smooth="yes"/>
      <point x="400" y="795"/>
      <point x="400" y="810" type="qcurve" smooth="yes"/>
    </contour>
    <contour>
      <point x="663" y="586"/>
      <point x="679" y="519" type="qcurve"/>
      <point x="691" y="519" type="line" smooth="yes"/>
      <point x="770" y="519"/>
      <point x="828" y="463" type="qcurve"/>
      <point x="848" y="499"/>
      <point x="848" y="535" type="qcurve" smooth="yes"/>
      <point x="848" y="593"/>
      <point x="766" y="675"/>
      <point x="709" y="675" type="qcurve" smooth="yes"/>
      <point x="651" y="675"/>
      <point x="611" y="635" type="qcurve"/>
    </contour>
    <contour>
      <point x="675" y="924" type="line" smooth="yes"/>
      <point x="675" y="938"/>
      <point x="695" y="957"/>
      <point x="723" y="957"/>
      <point x="741" y="938"/>
      <point x="741" y="924" type="qcurve" smooth="yes"/>
      <point x="741" y="844" type="line" smooth="yes"/>
      <point x="741" y="829"/>
      <point x="723" y="810"/>
      <point x="709" y="810" type="qcurve" smooth="yes"/>
      <point x="694" y="810"/>
      <point x="675" y="829"/>
      <point x="675" y="844" type="qcurve" smooth="yes"/>
    </contour>
    <contour>
      <point x="893" y="766"/>
      <point x="903" y="777" type="qcurve" smooth="yes"/>
      <point x="960" y="834" type="line" smooth="yes"/>
      <point x="970" y="844"/>
      <point x="983" y="844" type="qcurve" smooth="yes"/>
      <point x="997" y="844"/>
      <point x="1017" y="824"/>
      <point x="1017" y="810" type="qcurve" smooth="yes"/>
      <point x="1017" y="796"/>
      <point x="1007" y="785" type="qcurve" smooth="yes"/>
      <point x="950" y="729" type="line"/>
      <point x="935" y="719"/>
      <point x="925" y="719" type="qcurve" smooth="yes"/>
      <point x="914" y="719"/>
      <point x="893" y="739"/>
      <point x="893" y="752" type="qcurve" smooth="yes"/>
    </contour>
    <contour>
      <point x="944" y="318"/>
      <point x="958" y="318" type="qcurve" smooth="yes"/>
      <point x="971" y="318"/>
      <point x="982" y="309" type="qcurve"/>
      <point x="1007" y="283" type="line"/>
      <point x="1017" y="274"/>
      <point x="1017" y="261" type="qcurve" smooth="yes"/>
      <point x="1017" y="246"/>
      <point x="997" y="226"/>
      <point x="983" y="226" type="qcurve" smooth="yes"/>
      <point x="970" y="226"/>
      <point x="960" y="235" type="qcurve" smooth="yes"/>
      <point x="935" y="261" type="line" smooth="yes"/>
      <point x="925" y="272"/>
      <point x="925" y="299"/>
    </contour>
    <contour>
      <point x="982" y="549"/>
      <point x="1003" y="569"/>
      <point x="1016" y="569" type="qcurve" smooth="yes"/>
      <point x="1097" y="569" type="line" smooth="yes"/>
      <point x="1111" y="569"/>
      <point x="1131" y="549"/>
      <point x="1131" y="535" type="qcurve" smooth="yes"/>
      <point x="1131" y="521"/>
      <point x="1111" y="502"/>
      <point x="1097" y="502" type="qcurve" smooth="yes"/>
      <point x="1016" y="502" type="line" smooth="yes"/>
      <point x="1003" y="502"/>
      <point x="993" y="512" type="qcurve" smooth="yes"/>
      <point x="982" y="522"/>
      <point x="982" y="535" type="qcurve" smooth="yes"/>
    </contour>
  </outline>
</glyph>
<glyph name="uniF006" format="2">
  <advance width="1200"/>
  <unicode hex="E306"/>
  <note>
uniF006
</note>
  <outline>
    <contour>
      <point x="69" y="391"/>
      <point x="152" y="497"/>
      <point x="219" y="512" type="qcurve"/>
      <point x="237" y="593"/>
      <point x="365" y="697"/>
      <point x="448" y="697" type="qcurve" smooth="yes"/>
      <point x="504" y="697"/>
      <point x="556" y="671" type="qcurve"/>
      <point x="618" y="740"/>
      <point x="709" y="740" type="qcurve" smooth="yes"/>
      <point x="751" y="740"/>
      <point x="828" y="707"/>
      <point x="883" y="652"/>
      <point x="916" y="575"/>
      <point x="916" y="533" type="qcurve" smooth="yes"/>
      <point x="916" y="458"/>
      <point x="870" y="401" type="qcurve"/>
      <point x="885" y="362"/>
      <point x="885" y="322" type="qcurve" smooth="yes"/>
      <point x="885" y="243"/>
      <point x="777" y="130"/>
      <point x="698" y="128" type="qcurve" smooth="yes"/>
      <point x="691" y="128"/>
      <point x="691" y="134" type="qcurve" smooth="yes"/>
      <point x="691" y="187" type="line" smooth="yes"/>
      <point x="691" y="194"/>
      <point x="698" y="194" type="qcurve" smooth="yes"/>
      <point x="749" y="196"/>
      <point x="819" y="270"/>
      <point x="819" y="322" type="qcurve" smooth="yes"/>
      <point x="819" y="375"/>
      <point x="743" y="451"/>
      <point x="691" y="451" type="qcurve" smooth="yes"/>
      <point x="627" y="451" type="line" smooth="yes"/>
      <point x="620" y="451"/>
      <point x="619" y="458" type="qcurve"/>
      <point x="616" y="480" type="line" smooth="yes"/>
      <point x="610" y="544"/>
      <point x="513" y="629"/>
      <point x="384" y="629"/>
      <point x="289" y="544"/>
      <point x="282" y="479" type="qcurve" smooth="yes"/>
      <point x="279" y="458" type="line"/>
      <point x="279" y="452"/>
      <point x="273" y="452" type="qcurve"/>
      <point x="252" y="449" type="line"/>
      <point x="202" y="445"/>
      <point x="136" y="372"/>
      <point x="136" y="322" type="qcurve" smooth="yes"/>
      <point x="136" y="270"/>
      <point x="205" y="196"/>
      <point x="256" y="194" type="qcurve" smooth="yes"/>
      <point x="263" y="194"/>
      <point x="263" y="187" type="qcurve" smooth="yes"/>
      <point x="263" y="134" type="line" smooth="yes"/>
      <point x="263" y="128"/>
      <point x="256" y="128" type="qcurve" smooth="yes"/>
      <point x="177" y="131"/>
      <point x="69" y="243"/>
      <point x="69" y="322" type="qcurve" smooth="yes"/>
    </contour>
    <contour>
      <point x="280" y="48"/>
      <point x="281" y="51" type="qcurve" smooth="yes"/>
      <point x="287" y="75" type="line" smooth="yes"/>
      <point x="290" y="89"/>
      <point x="314" y="103"/>
      <point x="327" y="99" type="qcurve" smooth="yes"/>
      <point x="341" y="95"/>
      <point x="355" y="71"/>
      <point x="352" y="58" type="qcurve" smooth="yes"/>
      <point x="346" y="34" type="line" smooth="yes"/>
      <point x="342" y="17"/>
      <point x="319" y="6"/>
      <point x="305" y="10" type="qcurve" smooth="yes"/>
      <point x="293" y="14"/>
      <point x="280" y="34"/>
      <point x="280" y="44" type="qcurve" smooth="yes"/>
    </contour>
    <contour>
      <point x="310" y="172"/>
      <point x="328" y="191"/>
      <point x="342" y="191" type="qcurve" smooth="yes"/>
      <point x="356" y="191"/>
      <point x="376" y="172"/>
      <point x="376" y="145"/>
      <point x="356" y="126"/>
      <point x="342" y="126" type="qcurve" smooth="yes"/>
      <point x="329" y="126"/>
      <point x="320" y="136" type="qcurve" smooth="yes"/>
      <point x="310" y="145"/>
      <point x="310" y="158" type="qcurve" smooth="yes"/>
    </contour>
    <contour>
      <point x="334" y="249"/>
      <point x="335" y="259" type="qcurve"/>
      <point x="345" y="295" type="line" smooth="yes"/>
      <point x="349" y="308"/>
      <point x="373" y="321"/>
      <point x="386" y="317" type="qcurve" smooth="yes"/>
      <point x="401" y="313"/>
      <point x="415" y="291"/>
      <point x="410" y="276" type="qcurve" smooth="yes"/>
      <point x="400" y="241" type="line" smooth="yes"/>
      <point x="395" y="227"/>
      <point x="371" y="214"/>
      <point x="358" y="218" type="qcurve" smooth="yes"/>
      <point x="345" y="222"/>
      <point x="334" y="239"/>
      <point x="334" y="248" type="qcurve" smooth="yes"/>
    </contour>
    <contour>
      <point x="380" y="-77"/>
      <point x="381" y="-70" type="qcurve" smooth="yes"/>
      <point x="387" y="-47" type="line"/>
      <point x="391" y="-34"/>
      <point x="415" y="-20"/>
      <point x="428" y="-24" type="qcurve"/>
      <point x="441" y="-27"/>
      <point x="455" y="-50"/>
      <point x="452" y="-66" type="qcurve" smooth="yes"/>
      <point x="447" y="-89" type="line" smooth="yes"/>
      <point x="441" y="-113"/>
      <point x="415" y="-113" type="qcurve" smooth="yes"/>
      <point x="411" y="-113"/>
      <point x="405" y="-112" type="qcurve" smooth="yes"/>
      <point x="392" y="-108"/>
      <point x="380" y="-89"/>
      <point x="380" y="-79" type="qcurve" smooth="yes"/>
    </contour>
    <contour>
      <point x="422" y="841"/>
      <point x="435" y="841" type="qcurve" smooth="yes"/>
      <point x="449" y="840"/>
      <point x="459" y="831" type="qcurve" smooth="yes"/>
      <point x="484" y="805" type="line" smooth="yes"/>
      <point x="493" y="796"/>
      <point x="493" y="781" type="qcurve" smooth="yes"/>
      <point x="493" y="768"/>
      <point x="484" y="758" type="qcurve" smooth="yes"/>
      <point x="472" y="747"/>
      <point x="446" y="749"/>
      <point x="438" y="758" type="qcurve"/>
      <point x="412" y="783" type="line" smooth="yes"/>
      <point x="402" y="793"/>
      <point x="402" y="821"/>
    </contour>
    <contour>
      <point x="411" y="49"/>
      <point x="429" y="68"/>
      <point x="458" y="68"/>
      <point x="476" y="49"/>
      <point x="476" y="35" type="qcurve" smooth="yes"/>
      <point x="476" y="21"/>
      <point x="458" y="3"/>
      <point x="444" y="3" type="qcurve" smooth="yes"/>
      <point x="430" y="3"/>
      <point x="411" y="22"/>
      <point x="411" y="35" type="qcurve" smooth="yes"/>
    </contour>
    <contour>
      <point x="435" y="131"/>
      <point x="437" y="136" type="qcurve" smooth="yes"/>
      <point x="445" y="171" type="line" smooth="yes"/>
      <point x="449" y="185"/>
      <point x="474" y="199"/>
      <point x="487" y="195" type="qcurve" smooth="yes"/>
      <point x="501" y="191"/>
      <point x="515" y="168"/>
      <point x="511" y="155" type="qcurve" smooth="yes"/>
      <point x="500" y="119" type="line" smooth="yes"/>
      <point x="495" y="103"/>
      <point x="472" y="91"/>
      <point x="459" y="95" type="qcurve" smooth="yes"/>
      <point x="447" y="97"/>
      <point x="435" y="116"/>
      <point x="435" y="125" type="qcurve" smooth="yes"/>
    </contour>
    <contour>
      <point x="545" y="42"/>
      <point x="546" y="50"/>
      <point x="546" y="50" type="qcurve" smooth="yes"/>
      <point x="549" y="74" type="line"/>
      <point x="554" y="88"/>
      <point x="578" y="101"/>
      <point x="592" y="98" type="qcurve" smooth="yes"/>
      <point x="606" y="94"/>
      <point x="619" y="69"/>
      <point x="615" y="57" type="qcurve"/>
      <point x="610" y="33" type="line" smooth="yes"/>
      <point x="604" y="7"/>
      <point x="580" y="7" type="qcurve" smooth="yes"/>
      <point x="578" y="7"/>
      <point x="571" y="8"/>
      <point x="569" y="8" type="qcurve"/>
      <point x="556" y="12"/>
      <point x="545" y="30"/>
      <point x="545" y="40" type="qcurve" smooth="yes"/>
    </contour>
    <contour>
      <point x="574" y="171"/>
      <point x="592" y="189"/>
      <point x="621" y="189"/>
      <point x="639" y="171"/>
      <point x="639" y="157" type="qcurve" smooth="yes"/>
      <point x="639" y="143"/>
      <point x="621" y="125"/>
      <point x="592" y="125"/>
      <point x="584" y="134" type="qcurve" smooth="yes"/>
      <point x="574" y="143"/>
      <point x="574" y="157" type="qcurve" smooth="yes"/>
    </contour>
    <contour>
      <point x="598" y="250"/>
      <point x="599" y="256"/>
      <point x="599" y="258" type="qcurve"/>
      <point x="610" y="294" type="line" smooth="yes"/>
      <point x="614" y="307"/>
      <point x="638" y="320"/>
      <point x="651" y="316" type="qcurve" smooth="yes"/>
      <point x="665" y="312"/>
      <point x="678" y="288"/>
      <point x="674" y="275" type="qcurve" smooth="yes"/>
      <point x="664" y="239" type="line" smooth="yes"/>
      <point x="661" y="225"/>
      <point x="648" y="219" type="qcurve" smooth="yes"/>
      <point x="640" y="215"/>
      <point x="634" y="215" type="qcurve" smooth="yes"/>
      <point x="632" y="215"/>
      <point x="625" y="216"/>
      <point x="624" y="216" type="qcurve"/>
      <point x="611" y="220"/>
      <point x="598" y="238"/>
      <point x="598" y="248" type="qcurve" smooth="yes"/>
    </contour>
    <contour>
      <point x="662" y="582"/>
      <point x="678" y="517" type="qcurve"/>
      <point x="691" y="517" type="line" smooth="yes"/>
      <point x="771" y="517"/>
      <point x="829" y="459" type="qcurve"/>
      <point x="850" y="494"/>
      <point x="850" y="533" type="qcurve" smooth="yes"/>
      <point x="850" y="591"/>
      <point x="768" y="671"/>
      <point x="709" y="671" type="qcurve" smooth="yes"/>
      <point x="651" y="671"/>
      <point x="612" y="632" type="qcurve"/>
    </contour>
    <contour>
      <point x="677" y="921" type="line" smooth="yes"/>
      <point x="677" y="936"/>
      <point x="695" y="955"/>
      <point x="709" y="955" type="qcurve" smooth="yes"/>
      <point x="723" y="955"/>
      <point x="743" y="935"/>
      <point x="743" y="921" type="qcurve" smooth="yes"/>
      <point x="743" y="840" type="line" smooth="yes"/>
      <point x="743" y="826"/>
      <point x="723" y="808"/>
      <point x="709" y="808" type="qcurve" smooth="yes"/>
      <point x="695" y="808"/>
      <point x="677" y="826"/>
      <point x="677" y="840" type="qcurve" smooth="yes"/>
    </contour>
    <contour>
      <point x="904" y="774" type="qcurve" smooth="yes"/>
      <point x="960" y="832" type="line"/>
      <point x="971" y="842"/>
      <point x="985" y="842" type="qcurve" smooth="yes"/>
      <point x="999" y="842"/>
      <point x="1018" y="822"/>
      <point x="1018" y="808" type="qcurve" smooth="yes"/>
      <point x="1018" y="793"/>
      <point x="1008" y="783" type="qcurve" smooth="yes"/>
      <point x="952" y="727" type="line"/>
      <point x="925" y="706"/>
      <point x="904" y="727" type="qcurve" smooth="yes"/>
      <point x="895" y="736"/>
      <point x="895" y="765"/>
    </contour>
    <contour>
      <point x="936" y="306" type="qcurve" smooth="yes"/>
      <point x="946" y="316"/>
      <point x="974" y="316"/>
      <point x="983" y="306" type="qcurve"/>
      <point x="1008" y="282" type="line"/>
      <point x="1018" y="271"/>
      <point x="1018" y="258" type="qcurve" smooth="yes"/>
      <point x="1018" y="244"/>
      <point x="1008" y="234" type="qcurve" smooth="yes"/>
      <point x="996" y="225"/>
      <point x="985" y="225" type="qcurve" smooth="yes"/>
      <point x="972" y="225"/>
      <point x="960" y="234" type="qcurve"/>
      <point x="936" y="259" type="line"/>
      <point x="926" y="269"/>
      <point x="926" y="296"/>
    </contour>
    <contour>
      <point x="984" y="547"/>
      <point x="1005" y="567"/>
      <point x="1019" y="567" type="qcurve" smooth="yes"/>
      <point x="1099" y="567" type="line" smooth="yes"/>
      <point x="1113" y="567"/>
      <point x="1131" y="547"/>
      <point x="1131" y="519"/>
      <point x="1113" y="499"/>
      <point x="1099" y="499" type="qcurve" smooth="yes"/>
      <point x="1019" y="499" type="line" smooth="yes"/>
      <point x="1005" y="499"/>
      <point x="995" y="510" type="qcurve" smooth="yes"/>
      <point x="984" y="519"/>
      <point x="984" y="533" type="qcurve" smooth="yes"/>
    </contour>
  </outline>
</glyph>
<glyph name="uniF007" format="2">
  <advance width="1200"/>
  <unicode hex="E307"/>
  <note>
uniF007
</note>
  <outline>
    <contour>
      <point x="66" y="392"/>
      <point x="152" y="498"/>
      <point x="219" y="513" type="qcurve"/>
      <point x="236" y="595"/>
      <point x="365" y="699"/>
      <point x="449" y="699" type="qcurve" smooth="yes"/>
      <point x="509" y="699"/>
      <point x="556" y="673" type="qcurve"/>
      <point x="621" y="742"/>
      <point x="710" y="742" type="qcurve" smooth="yes"/>
      <point x="752" y="742"/>
      <point x="829" y="708"/>
      <point x="885" y="653"/>
      <point x="918" y="576"/>
      <point x="918" y="534" type="qcurve" smooth="yes"/>
      <point x="918" y="459"/>
      <point x="871" y="402" type="qcurve"/>
      <point x="888" y="366"/>
      <point x="888" y="323" type="qcurve" smooth="yes"/>
      <point x="888" y="274"/>
      <point x="841" y="187"/>
      <point x="761" y="132"/>
      <point x="713" y="128" type="qcurve"/>
      <point x="637" y="31" type="line" smooth="yes"/>
      <point x="628" y="18"/>
      <point x="599" y="15"/>
      <point x="590" y="25" type="qcurve"/>
      <point x="579" y="33"/>
      <point x="576" y="61"/>
      <point x="584" y="72" type="qcurve" smooth="yes"/>
      <point x="670" y="183" type="line" smooth="yes"/>
      <point x="677" y="191"/>
      <point x="706" y="194" type="qcurve" smooth="yes"/>
      <point x="754" y="198"/>
      <point x="821" y="273"/>
      <point x="821" y="323" type="qcurve" smooth="yes"/>
      <point x="821" y="376"/>
      <point x="746" y="451"/>
      <point x="693" y="451" type="qcurve" smooth="yes"/>
      <point x="629" y="451" type="line" smooth="yes"/>
      <point x="623" y="451"/>
      <point x="620" y="458" type="qcurve"/>
      <point x="617" y="481" type="line" smooth="yes"/>
      <point x="611" y="545"/>
      <point x="514" y="632"/>
      <point x="449" y="632" type="qcurve" smooth="yes"/>
      <point x="384" y="632"/>
      <point x="288" y="545"/>
      <point x="282" y="481" type="qcurve" smooth="yes"/>
      <point x="279" y="459" type="line"/>
      <point x="279" y="452"/>
      <point x="271" y="452" type="qcurve" smooth="yes"/>
      <point x="252" y="451" type="line"/>
      <point x="202" y="445"/>
      <point x="135" y="372"/>
      <point x="135" y="323" type="qcurve" smooth="yes"/>
      <point x="135" y="269"/>
      <point x="210" y="193"/>
      <point x="263" y="193" type="qcurve"/>
      <point x="217" y="137" type="line"/>
      <point x="213" y="134"/>
      <point x="207" y="134" type="qcurve"/>
      <point x="145" y="152"/>
      <point x="66" y="256"/>
      <point x="66" y="323" type="qcurve" smooth="yes"/>
    </contour>
    <contour>
      <point x="216" y="7"/>
      <point x="221" y="22" type="qcurve" smooth="yes"/>
      <point x="226" y="35"/>
      <point x="252" y="46"/>
      <point x="265" y="40" type="qcurve" smooth="yes"/>
      <point x="277" y="34"/>
      <point x="288" y="9"/>
      <point x="282" y="-3" type="qcurve" smooth="yes"/>
      <point x="278" y="-16"/>
      <point x="251" y="-27"/>
      <point x="238" y="-21" type="qcurve" smooth="yes"/>
      <point x="224" y="-15"/>
      <point x="220" y="-2" type="qcurve" smooth="yes"/>
    </contour>
    <contour>
      <point x="291" y="117"/>
      <point x="299" y="127" type="qcurve" smooth="yes"/>
      <point x="384" y="238" type="line"/>
      <point x="393" y="248"/>
      <point x="422" y="251"/>
      <point x="433" y="242" type="qcurve" smooth="yes"/>
      <point x="443" y="234"/>
      <point x="445" y="206"/>
      <point x="437" y="195" type="qcurve" smooth="yes"/>
      <point x="350" y="84" type="line" smooth="yes"/>
      <point x="342" y="73"/>
      <point x="313" y="71"/>
      <point x="303" y="80" type="qcurve" smooth="yes"/>
      <point x="292" y="89"/>
      <point x="291" y="102" type="qcurve" smooth="yes"/>
      <point x="291" y="106" type="line" smooth="yes"/>
    </contour>
    <contour>
      <point x="312" y="-79"/>
      <point x="315" y="-72" type="qcurve"/>
      <point x="319" y="-60"/>
      <point x="346" y="-49"/>
      <point x="359" y="-55" type="qcurve" smooth="yes"/>
      <point x="372" y="-60"/>
      <point x="382" y="-86"/>
      <point x="376" y="-99" type="qcurve" smooth="yes"/>
      <point x="371" y="-112"/>
      <point x="358" y="-117" type="qcurve"/>
      <point x="352" y="-119"/>
      <point x="346" y="-119" type="qcurve" smooth="yes"/>
      <point x="339" y="-119"/>
      <point x="332" y="-116" type="qcurve" smooth="yes"/>
      <point x="319" y="-111"/>
      <point x="314" y="-98" type="qcurve"/>
      <point x="312" y="-90"/>
      <point x="312" y="-86" type="qcurve" smooth="yes"/>
    </contour>
    <contour>
      <point x="377" y="19"/>
      <point x="385" y="28" type="qcurve" smooth="yes"/>
      <point x="549" y="236" type="line" smooth="yes"/>
      <point x="558" y="246"/>
      <point x="585" y="250"/>
      <point x="596" y="241" type="qcurve" smooth="yes"/>
      <point x="607" y="232"/>
      <point x="610" y="205"/>
      <point x="601" y="193" type="qcurve"/>
      <point x="438" y="-14" type="line" smooth="yes"/>
      <point x="429" y="-26"/>
      <point x="399" y="-29"/>
      <point x="390" y="-19" type="qcurve"/>
      <point x="379" y="-10"/>
      <point x="377" y="4" type="qcurve" smooth="yes"/>
      <point x="377" y="8" type="line" smooth="yes"/>
    </contour>
    <contour>
      <point x="400" y="823"/>
      <point x="420" y="842"/>
      <point x="435" y="842" type="qcurve" smooth="yes"/>
      <point x="449" y="842"/>
      <point x="458" y="833" type="qcurve" smooth="yes"/>
      <point x="483" y="807" type="line" smooth="yes"/>
      <point x="493" y="797"/>
      <point x="493" y="783" type="qcurve" smooth="yes"/>
      <point x="493" y="769"/>
      <point x="469" y="747"/>
      <point x="457" y="749" type="qcurve" smooth="yes"/>
      <point x="444" y="750"/>
      <point x="435" y="760" type="qcurve" smooth="yes"/>
      <point x="411" y="786" type="line"/>
      <point x="400" y="794"/>
      <point x="400" y="809" type="qcurve" smooth="yes"/>
    </contour>
    <contour>
      <point x="517" y="-30"/>
      <point x="519" y="-23" type="qcurve" smooth="yes"/>
      <point x="524" y="-11"/>
      <point x="551" y="0"/>
      <point x="564" y="-6" type="qcurve" smooth="yes"/>
      <point x="577" y="-11"/>
      <point x="587" y="-38"/>
      <point x="581" y="-50" type="qcurve" smooth="yes"/>
      <point x="576" y="-63"/>
      <point x="563" y="-69" type="qcurve"/>
      <point x="554" y="-71"/>
      <point x="551" y="-71" type="qcurve" smooth="yes"/>
      <point x="543" y="-71"/>
      <point x="537" y="-68" type="qcurve" smooth="yes"/>
      <point x="524" y="-63"/>
      <point x="519" y="-50" type="qcurve" smooth="yes"/>
      <point x="517" y="-45"/>
      <point x="517" y="-38" type="qcurve" smooth="yes"/>
    </contour>
    <contour>
      <point x="664" y="586"/>
      <point x="680" y="518" type="qcurve"/>
      <point x="693" y="518" type="line" smooth="yes"/>
      <point x="773" y="518"/>
      <point x="831" y="460" type="qcurve"/>
      <point x="851" y="495"/>
      <point x="851" y="534" type="qcurve" smooth="yes"/>
      <point x="851" y="592"/>
      <point x="768" y="673"/>
      <point x="710" y="673" type="qcurve" smooth="yes"/>
      <point x="654" y="673"/>
      <point x="612" y="635" type="qcurve"/>
    </contour>
    <contour>
      <point x="676" y="924" type="line" smooth="yes"/>
      <point x="676" y="938"/>
      <point x="696" y="958"/>
      <point x="710" y="958" type="qcurve" smooth="yes"/>
      <point x="724" y="958"/>
      <point x="744" y="938"/>
      <point x="744" y="924" type="qcurve" smooth="yes"/>
      <point x="744" y="842" type="line" smooth="yes"/>
      <point x="744" y="829"/>
      <point x="724" y="810"/>
      <point x="710" y="810" type="qcurve" smooth="yes"/>
      <point x="696" y="810"/>
      <point x="676" y="829"/>
      <point x="676" y="842" type="qcurve" smooth="yes"/>
    </contour>
    <contour>
      <point x="905" y="776" type="qcurve" smooth="yes"/>
      <point x="962" y="834" type="line" smooth="yes"/>
      <point x="973" y="844"/>
      <point x="986" y="844" type="qcurve" smooth="yes"/>
      <point x="1000" y="844"/>
      <point x="1020" y="824"/>
      <point x="1020" y="810" type="qcurve" smooth="yes"/>
      <point x="1020" y="795"/>
      <point x="1011" y="786" type="qcurve" smooth="yes"/>
      <point x="952" y="729" type="line"/>
      <point x="943" y="718"/>
      <point x="915" y="719"/>
      <point x="905" y="729" type="qcurve" smooth="yes"/>
      <point x="896" y="738"/>
      <point x="896" y="766"/>
    </contour>
    <contour>
      <point x="947" y="316"/>
      <point x="961" y="316" type="qcurve" smooth="yes"/>
      <point x="975" y="316"/>
      <point x="985" y="306" type="qcurve" smooth="yes"/>
      <point x="1011" y="281" type="line"/>
      <point x="1020" y="271"/>
      <point x="1020" y="256" type="qcurve" smooth="yes"/>
      <point x="1020" y="243"/>
      <point x="1011" y="234" type="qcurve"/>
      <point x="997" y="223"/>
      <point x="986" y="223" type="qcurve" smooth="yes"/>
      <point x="984" y="223" type="line" smooth="yes"/>
      <point x="972" y="224"/>
      <point x="962" y="234" type="qcurve" smooth="yes"/>
      <point x="937" y="258" type="line" smooth="yes"/>
      <point x="927" y="268"/>
      <point x="927" y="296"/>
    </contour>
    <contour>
      <point x="986" y="547"/>
      <point x="1005" y="566"/>
      <point x="1019" y="566" type="qcurve" smooth="yes"/>
      <point x="1100" y="566" type="line" smooth="yes"/>
      <point x="1114" y="566"/>
      <point x="1134" y="547"/>
      <point x="1134" y="534" type="qcurve" smooth="yes"/>
      <point x="1134" y="520"/>
      <point x="1114" y="499"/>
      <point x="1100" y="499" type="qcurve" smooth="yes"/>
      <point x="1019" y="499" type="line" smooth="yes"/>
      <point x="1005" y="499"/>
      <point x="996" y="510" type="qcurve" smooth="yes"/>
      <point x="986" y="520"/>
      <point x="986" y="534" type="qcurve" smooth="yes"/>
    </contour>
  </outline>
</glyph>
<glyph name="uniF008" format="2">
  <advance width="1200"/>
  <unicode hex="E308"/>
  <note>
uniF008
</note>
  <outline>
    <contour>
      <point x="67" y="392"/>
      <point x="152" y="498"/>
      <point x="218" y="514" type="qcurve"/>
      <point x="236" y="595"/>
      <point x="366" y="699"/>
      <point x="449" y="699" type="qcurve" smooth="yes"/>
      <point x="508" y="699"/>
      <point x="556" y="673" type="qcurve"/>
      <point x="617" y="742"/>
      <point x="710" y="742" type="qcurve" smooth="yes"/>
      <point x="766" y="742"/>
      <point x="861" y="686"/>
      <point x="917" y="590"/>
      <point x="917" y="534" type="qcurve" smooth="yes"/>
      <point x="917" y="460"/>
      <point x="871" y="403" type="qcurve"/>
      <point x="887" y="366"/>
      <point x="887" y="324" type="qcurve" smooth="yes"/>
      <point x="887" y="245"/>
      <point x="777" y="130"/>
      <point x="698" y="128" type="qcurve" smooth="yes"/>
      <point x="691" y="128"/>
      <point x="691" y="134" type="qcurve" smooth="yes"/>
      <point x="691" y="187" type="line" smooth="yes"/>
      <point x="691" y="194"/>
      <point x="698" y="194" type="qcurve" smooth="yes"/>
      <point x="749" y="196"/>
      <point x="820" y="272"/>
      <point x="820" y="324" type="qcurve" smooth="yes"/>
      <point x="820" y="376"/>
      <point x="744" y="451"/>
      <point x="691" y="451" type="qcurve" smooth="yes"/>
      <point x="627" y="451" type="line" smooth="yes"/>
      <point x="620" y="451"/>
      <point x="620" y="459" type="qcurve"/>
      <point x="617" y="481" type="line" smooth="yes"/>
      <point x="611" y="545"/>
      <point x="514" y="632"/>
      <point x="449" y="632" type="qcurve" smooth="yes"/>
      <point x="385" y="632"/>
      <point x="289" y="545"/>
      <point x="282" y="481" type="qcurve" smooth="yes"/>
      <point x="280" y="460" type="line"/>
      <point x="280" y="453"/>
      <point x="272" y="453" type="qcurve"/>
      <point x="251" y="451" type="line" smooth="yes"/>
      <point x="202" y="445"/>
      <point x="135" y="373"/>
      <point x="135" y="324" type="qcurve" smooth="yes"/>
      <point x="135" y="272"/>
      <point x="206" y="196"/>
      <point x="257" y="194" type="qcurve" smooth="yes"/>
      <point x="263" y="194"/>
      <point x="263" y="187" type="qcurve" smooth="yes"/>
      <point x="263" y="134" type="line" smooth="yes"/>
      <point x="263" y="128"/>
      <point x="257" y="128" type="qcurve" smooth="yes"/>
      <point x="177" y="131"/>
      <point x="67" y="245"/>
      <point x="67" y="324" type="qcurve" smooth="yes"/>
    </contour>
    <contour>
      <point x="280" y="54"/>
      <point x="282" y="62" type="qcurve" smooth="yes"/>
      <point x="345" y="295" type="line" smooth="yes"/>
      <point x="349" y="308"/>
      <point x="373" y="322"/>
      <point x="386" y="318" type="qcurve"/>
      <point x="400" y="315"/>
      <point x="414" y="291"/>
      <point x="410" y="276" type="qcurve" smooth="yes"/>
      <point x="347" y="44" type="line" smooth="yes"/>
      <point x="340" y="19"/>
      <point x="317" y="19" type="qcurve" smooth="yes"/>
      <point x="313" y="19"/>
      <point x="306" y="21" type="qcurve" smooth="yes"/>
      <point x="293" y="24"/>
      <point x="280" y="43"/>
      <point x="280" y="53" type="qcurve" smooth="yes"/>
    </contour>
    <contour>
      <point x="383" y="-68"/>
      <point x="385" y="-58" type="qcurve"/>
      <point x="479" y="295" type="line" smooth="yes"/>
      <point x="483" y="308"/>
      <point x="507" y="322"/>
      <point x="521" y="318" type="qcurve" smooth="yes"/>
      <point x="534" y="313"/>
      <point x="547" y="290"/>
      <point x="543" y="276" type="qcurve" smooth="yes"/>
      <point x="449" y="-76" type="line"/>
      <point x="446" y="-89"/>
      <point x="429" y="-102"/>
      <point x="420" y="-102" type="qcurve" smooth="yes"/>
      <point x="416" y="-102"/>
      <point x="410" y="-101" type="qcurve" smooth="yes"/>
      <point x="395" y="-99"/>
      <point x="383" y="-80"/>
      <point x="383" y="-69" type="qcurve" smooth="yes"/>
    </contour>
    <contour>
      <point x="420" y="844"/>
      <point x="435" y="844" type="qcurve" smooth="yes"/>
      <point x="448" y="844"/>
      <point x="459" y="834" type="qcurve" smooth="yes"/>
      <point x="484" y="808" type="line" smooth="yes"/>
      <point x="493" y="797"/>
      <point x="493" y="783" type="qcurve" smooth="yes"/>
      <point x="493" y="769"/>
      <point x="473" y="750"/>
      <point x="460" y="750" type="qcurve" smooth="yes"/>
      <point x="447" y="750"/>
      <point x="436" y="759" type="qcurve"/>
      <point x="410" y="785" type="line" smooth="yes"/>
      <point x="400" y="795"/>
      <point x="400" y="823"/>
    </contour>
    <contour>
      <point x="547" y="53"/>
      <point x="549" y="62" type="qcurve" smooth="yes"/>
      <point x="612" y="295" type="line" smooth="yes"/>
      <point x="616" y="308"/>
      <point x="639" y="322"/>
      <point x="653" y="318" type="qcurve" smooth="yes"/>
      <point x="666" y="313"/>
      <point x="679" y="290"/>
      <point x="676" y="276" type="qcurve" smooth="yes"/>
      <point x="613" y="44" type="line"/>
      <point x="610" y="31"/>
      <point x="592" y="19"/>
      <point x="582" y="19" type="qcurve" smooth="yes"/>
      <point x="579" y="19"/>
      <point x="572" y="21" type="qcurve" smooth="yes"/>
      <point x="560" y="24"/>
      <point x="547" y="42"/>
      <point x="547" y="52" type="qcurve" smooth="yes"/>
    </contour>
    <contour>
      <point x="661" y="587"/>
      <point x="678" y="518" type="qcurve"/>
      <point x="691" y="518" type="line" smooth="yes"/>
      <point x="771" y="518"/>
      <point x="829" y="461" type="qcurve"/>
      <point x="849" y="497"/>
      <point x="849" y="534" type="qcurve" smooth="yes"/>
      <point x="849" y="592"/>
      <point x="768" y="674"/>
      <point x="710" y="674" type="qcurve" smooth="yes"/>
      <point x="654" y="674"/>
      <point x="612" y="635" type="qcurve"/>
    </contour>
    <contour>
      <point x="676" y="923" type="line" smooth="yes"/>
      <point x="676" y="938"/>
      <point x="695" y="957"/>
      <point x="710" y="957" type="qcurve" smooth="yes"/>
      <point x="724" y="957"/>
      <point x="742" y="938"/>
      <point x="742" y="923" type="qcurve" smooth="yes"/>
      <point x="742" y="842" type="line" smooth="yes"/>
      <point x="742" y="828"/>
      <point x="723" y="809"/>
      <point x="710" y="809" type="qcurve" smooth="yes"/>
      <point x="696" y="809"/>
      <point x="676" y="828"/>
      <point x="676" y="842" type="qcurve" smooth="yes"/>
    </contour>
    <contour>
      <point x="894" y="767"/>
      <point x="905" y="777" type="qcurve" smooth="yes"/>
      <point x="961" y="834" type="line" smooth="yes"/>
      <point x="972" y="844"/>
      <point x="984" y="844" type="qcurve" smooth="yes"/>
      <point x="999" y="844"/>
      <point x="1018" y="824"/>
      <point x="1018" y="810" type="qcurve" smooth="yes"/>
      <point x="1018" y="795"/>
      <point x="1008" y="785" type="qcurve" smooth="yes"/>
      <point x="951" y="729" type="line" smooth="yes"/>
      <point x="940" y="717"/>
      <point x="913" y="719"/>
      <point x="905" y="729" type="qcurve"/>
      <point x="894" y="737"/>
      <point x="894" y="752" type="qcurve" smooth="yes"/>
    </contour>
    <contour>
      <point x="945" y="318"/>
      <point x="973" y="318"/>
      <point x="984" y="308" type="qcurve"/>
      <point x="1008" y="282" type="line"/>
      <point x="1018" y="273"/>
      <point x="1018" y="259" type="qcurve" smooth="yes"/>
      <point x="1018" y="245"/>
      <point x="999" y="225"/>
      <point x="986" y="225" type="qcurve"/>
      <point x="985" y="226" type="line"/>
      <point x="972" y="226"/>
      <point x="961" y="234" type="qcurve"/>
      <point x="936" y="259" type="line"/>
      <point x="926" y="270"/>
      <point x="926" y="298"/>
    </contour>
    <contour>
      <point x="1004" y="568"/>
      <point x="1018" y="568" type="qcurve" smooth="yes"/>
      <point x="1099" y="568" type="line" smooth="yes"/>
      <point x="1113" y="568"/>
      <point x="1133" y="548"/>
      <point x="1133" y="534" type="qcurve" smooth="yes"/>
      <point x="1133" y="520"/>
      <point x="1113" y="500"/>
      <point x="1099" y="500" type="qcurve" smooth="yes"/>
      <point x="1018" y="500" type="line" smooth="yes"/>
      <point x="1004" y="500"/>
      <point x="994" y="510" type="qcurve" smooth="yes"/>
      <point x="984" y="520"/>
      <point x="984" y="548"/>
    </contour>
  </outline>
</glyph>
<glyph name="uniF009" format="2">
  <advance width="1200"/>
  <unicode hex="E309"/>
  <note>
uniF009
</note>
  <outline>
    <contour>
      <point x="69" y="393"/>
      <point x="154" y="499"/>
      <point x="221" y="514" type="qcurve"/>
      <point x="238" y="595"/>
      <point x="367" y="698"/>
      <point x="451" y="698" type="qcurve" smooth="yes"/>
      <point x="511" y="698"/>
      <point x="558" y="673" type="qcurve"/>
      <point x="619" y="738"/>
      <point x="709" y="738" type="qcurve" smooth="yes"/>
      <point x="751" y="738"/>
      <point x="828" y="706"/>
      <point x="883" y="650"/>
      <point x="916" y="573"/>
      <point x="916" y="531" type="qcurve" smooth="yes"/>
      <point x="916" y="457"/>
      <point x="871" y="402" type="qcurve"/>
      <point x="887" y="366"/>
      <point x="887" y="324" type="qcurve" smooth="yes"/>
      <point x="887" y="272"/>
      <point x="838" y="184"/>
      <point x="752" y="130"/>
      <point x="700" y="128" type="qcurve" smooth="yes"/>
      <point x="693" y="128"/>
      <point x="693" y="135" type="qcurve" smooth="yes"/>
      <point x="693" y="188" type="line" smooth="yes"/>
      <point x="693" y="195"/>
      <point x="700" y="195" type="qcurve"/>
      <point x="750" y="199"/>
      <point x="821" y="274"/>
      <point x="821" y="324" type="qcurve" smooth="yes"/>
      <point x="821" y="376"/>
      <point x="745" y="452"/>
      <point x="693" y="452" type="qcurve" smooth="yes"/>
      <point x="628" y="452" type="line" smooth="yes"/>
      <point x="621" y="452"/>
      <point x="621" y="459" type="qcurve"/>
      <point x="618" y="481" type="line" smooth="yes"/>
      <point x="612" y="545"/>
      <point x="515" y="632"/>
      <point x="451" y="632" type="qcurve" smooth="yes"/>
      <point x="385" y="632"/>
      <point x="290" y="545"/>
      <point x="283" y="481" type="qcurve" smooth="yes"/>
      <point x="281" y="460" type="line"/>
      <point x="281" y="453"/>
      <point x="273" y="453" type="qcurve" smooth="yes"/>
      <point x="254" y="452" type="line" smooth="yes"/>
      <point x="204" y="446"/>
      <point x="137" y="374"/>
      <point x="137" y="324" type="qcurve" smooth="yes"/>
      <point x="137" y="273"/>
      <point x="208" y="198"/>
      <point x="258" y="195" type="qcurve" smooth="yes"/>
      <point x="265" y="195"/>
      <point x="265" y="188" type="qcurve" smooth="yes"/>
      <point x="265" y="135" type="line" smooth="yes"/>
      <point x="265" y="128"/>
      <point x="258" y="128" type="qcurve" smooth="yes"/>
      <point x="179" y="132"/>
      <point x="69" y="245"/>
      <point x="69" y="324" type="qcurve" smooth="yes"/>
    </contour>
    <contour>
      <point x="283" y="65"/>
      <point x="283" y="68" type="qcurve"/>
      <point x="294" y="107" type="line"/>
      <point x="297" y="121"/>
      <point x="321" y="135"/>
      <point x="335" y="131" type="qcurve" smooth="yes"/>
      <point x="349" y="127"/>
      <point x="362" y="102"/>
      <point x="358" y="90" type="qcurve"/>
      <point x="348" y="49" type="line" smooth="yes"/>
      <point x="344" y="34"/>
      <point x="318" y="21"/>
      <point x="307" y="25" type="qcurve" smooth="yes"/>
      <point x="295" y="28"/>
      <point x="283" y="49"/>
      <point x="283" y="60" type="qcurve" smooth="yes"/>
    </contour>
    <contour>
      <point x="334" y="251"/>
      <point x="335" y="256" type="qcurve" smooth="yes"/>
      <point x="347" y="296" type="line"/>
      <point x="350" y="310"/>
      <point x="374" y="323"/>
      <point x="388" y="320" type="qcurve" smooth="yes"/>
      <point x="401" y="315"/>
      <point x="415" y="291"/>
      <point x="411" y="279" type="qcurve"/>
      <point x="401" y="238" type="line" smooth="yes"/>
      <point x="397" y="224"/>
      <point x="372" y="211"/>
      <point x="360" y="215" type="qcurve" smooth="yes"/>
      <point x="334" y="224"/>
      <point x="334" y="246" type="qcurve" smooth="yes"/>
    </contour>
    <contour>
      <point x="382" y="-63"/>
      <point x="384" y="-57" type="qcurve" smooth="yes"/>
      <point x="395" y="-16" type="line" smooth="yes"/>
      <point x="399" y="-3"/>
      <point x="423" y="11"/>
      <point x="437" y="7" type="qcurve" smooth="yes"/>
      <point x="450" y="3"/>
      <point x="464" y="-21"/>
      <point x="459" y="-35" type="qcurve" smooth="yes"/>
      <point x="449" y="-74" type="line" smooth="yes"/>
      <point x="444" y="-92"/>
      <point x="432" y="-97" type="qcurve" smooth="yes"/>
      <point x="426" y="-100"/>
      <point x="418" y="-100" type="qcurve" smooth="yes"/>
      <point x="416" y="-100"/>
      <point x="409" y="-99"/>
      <point x="408" y="-99" type="qcurve"/>
      <point x="396" y="-95"/>
      <point x="382" y="-75"/>
      <point x="382" y="-65" type="qcurve" smooth="yes"/>
    </contour>
    <contour>
      <point x="401" y="820"/>
      <point x="421" y="840"/>
      <point x="434" y="840" type="qcurve" smooth="yes"/>
      <point x="448" y="840"/>
      <point x="458" y="830" type="qcurve" smooth="yes"/>
      <point x="483" y="804" type="line" smooth="yes"/>
      <point x="492" y="794"/>
      <point x="492" y="767"/>
      <point x="483" y="756" type="qcurve"/>
      <point x="457" y="736"/>
      <point x="437" y="756" type="qcurve" smooth="yes"/>
      <point x="411" y="782" type="line" smooth="yes"/>
      <point x="401" y="791"/>
      <point x="401" y="806" type="qcurve" smooth="yes"/>
    </contour>
    <contour>
      <point x="436" y="129"/>
      <point x="437" y="131" type="qcurve" smooth="yes"/>
      <point x="448" y="172" type="line"/>
      <point x="450" y="186"/>
      <point x="474" y="200"/>
      <point x="489" y="196" type="qcurve" smooth="yes"/>
      <point x="502" y="192"/>
      <point x="515" y="168"/>
      <point x="511" y="154" type="qcurve" smooth="yes"/>
      <point x="502" y="114" type="line" smooth="yes"/>
      <point x="497" y="98"/>
      <point x="474" y="86"/>
      <point x="461" y="90" type="qcurve" smooth="yes"/>
      <point x="448" y="94"/>
      <point x="436" y="114"/>
      <point x="436" y="124" type="qcurve" smooth="yes"/>
    </contour>
    <contour>
      <point x="546" y="57"/>
      <point x="546" y="60"/>
      <point x="547" y="64"/>
      <point x="548" y="65" type="qcurve" smooth="yes"/>
      <point x="558" y="105" type="line" smooth="yes"/>
      <point x="562" y="119"/>
      <point x="587" y="132"/>
      <point x="599" y="128" type="qcurve"/>
      <point x="613" y="126"/>
      <point x="627" y="102"/>
      <point x="624" y="88" type="qcurve" smooth="yes"/>
      <point x="612" y="48" type="line" smooth="yes"/>
      <point x="608" y="34"/>
      <point x="590" y="22"/>
      <point x="581" y="22" type="qcurve"/>
      <point x="571" y="23" type="line"/>
      <point x="547" y="34"/>
      <point x="546" y="56" type="qcurve" smooth="yes"/>
    </contour>
    <contour>
      <point x="601" y="248"/>
      <point x="602" y="253" type="qcurve" smooth="yes"/>
      <point x="614" y="295" type="line" smooth="yes"/>
      <point x="618" y="308"/>
      <point x="641" y="321"/>
      <point x="655" y="317" type="qcurve" smooth="yes"/>
      <point x="668" y="313"/>
      <point x="681" y="290"/>
      <point x="677" y="276" type="qcurve" smooth="yes"/>
      <point x="666" y="236" type="line"/>
      <point x="664" y="225"/>
      <point x="646" y="211"/>
      <point x="635" y="211" type="qcurve"/>
      <point x="625" y="212" type="line"/>
      <point x="613" y="215"/>
      <point x="601" y="234"/>
      <point x="601" y="244" type="qcurve" smooth="yes"/>
    </contour>
    <contour>
      <point x="664" y="585"/>
      <point x="680" y="518" type="qcurve"/>
      <point x="693" y="518" type="line" smooth="yes"/>
      <point x="774" y="518"/>
      <point x="830" y="462" type="qcurve"/>
      <point x="849" y="498"/>
      <point x="849" y="531" type="qcurve" smooth="yes"/>
      <point x="849" y="589"/>
      <point x="767" y="671"/>
      <point x="709" y="671" type="qcurve" smooth="yes"/>
      <point x="653" y="671"/>
      <point x="614" y="633" type="qcurve"/>
    </contour>
    <contour>
      <point x="675" y="920" type="line" smooth="yes"/>
      <point x="675" y="934"/>
      <point x="694" y="954"/>
      <point x="723" y="954"/>
      <point x="742" y="934"/>
      <point x="742" y="920" type="qcurve" smooth="yes"/>
      <point x="742" y="840" type="line" smooth="yes"/>
      <point x="742" y="825"/>
      <point x="723" y="806"/>
      <point x="694" y="806"/>
      <point x="675" y="825"/>
      <point x="675" y="840" type="qcurve" smooth="yes"/>
    </contour>
    <contour>
      <point x="894" y="763"/>
      <point x="903" y="774" type="qcurve"/>
      <point x="960" y="830" type="line" smooth="yes"/>
      <point x="970" y="840"/>
      <point x="998" y="840"/>
      <point x="1017" y="821"/>
      <point x="1017" y="793"/>
      <point x="1007" y="782" type="qcurve"/>
      <point x="951" y="725" type="line"/>
      <point x="939" y="715"/>
      <point x="927" y="715" type="qcurve" smooth="yes"/>
      <point x="915" y="715"/>
      <point x="903" y="725" type="qcurve"/>
      <point x="894" y="734"/>
      <point x="894" y="749" type="qcurve" smooth="yes"/>
    </contour>
    <contour>
      <point x="945" y="315"/>
      <point x="959" y="315" type="qcurve" smooth="yes"/>
      <point x="972" y="315"/>
      <point x="982" y="306" type="qcurve" smooth="yes"/>
      <point x="1007" y="280" type="line" smooth="yes"/>
      <point x="1017" y="270"/>
      <point x="1018" y="243"/>
      <point x="1007" y="232" type="qcurve" smooth="yes"/>
      <point x="996" y="220"/>
      <point x="985" y="220" type="qcurve" smooth="yes"/>
      <point x="972" y="220"/>
      <point x="960" y="232" type="qcurve" smooth="yes"/>
      <point x="936" y="257" type="line" smooth="yes"/>
      <point x="925" y="268"/>
      <point x="925" y="296"/>
    </contour>
    <contour>
      <point x="983" y="545"/>
      <point x="1002" y="565"/>
      <point x="1016" y="565" type="qcurve" smooth="yes"/>
      <point x="1097" y="565" type="line" smooth="yes"/>
      <point x="1112" y="565"/>
      <point x="1131" y="546"/>
      <point x="1131" y="531" type="qcurve" smooth="yes"/>
      <point x="1131" y="517"/>
      <point x="1112" y="499"/>
      <point x="1097" y="499" type="qcurve" smooth="yes"/>
      <point x="1016" y="499" type="line" smooth="yes"/>
      <point x="1003" y="499"/>
      <point x="983" y="518"/>
      <point x="983" y="531" type="qcurve" smooth="yes"/>
    </contour>
  </outline>
</glyph>
<glyph name="uniF00A" format="2">
  <advance width="1200"/>
  <unicode hex="E30A"/>
  <note>
uniF00A
</note>
  <outline>
    <contour>
      <point x="70" y="686"/>
      <point x="70" y="617" type="qcurve" smooth="yes"/>
      <point x="70" y="566"/>
      <point x="120" y="478"/>
      <point x="207" y="425"/>
      <point x="259" y="423" type="qcurve" smooth="yes"/>
      <point x="265" y="423"/>
      <point x="265" y="430" type="qcurve" smooth="yes"/>
      <point x="265" y="483" type="line" smooth="yes"/>
      <point x="265" y="490"/>
      <point x="259" y="490" type="qcurve" smooth="yes"/>
      <point x="208" y="493"/>
      <point x="137" y="568"/>
      <point x="137" y="617" type="qcurve" smooth="yes"/>
      <point x="137" y="666"/>
      <point x="204" y="739"/>
      <point x="253" y="745" type="qcurve" smooth="yes"/>
      <point x="274" y="747" type="line"/>
      <point x="281" y="747"/>
      <point x="281" y="754" type="qcurve"/>
      <point x="284" y="774" type="line"/>
      <point x="290" y="839"/>
      <point x="385" y="925"/>
      <point x="450" y="925" type="qcurve" smooth="yes"/>
      <point x="514" y="925"/>
      <point x="611" y="839"/>
      <point x="617" y="775" type="qcurve" smooth="yes"/>
      <point x="620" y="753" type="line"/>
      <point x="620" y="746"/>
      <point x="627" y="746" type="qcurve" smooth="yes"/>
      <point x="691" y="746" type="line" smooth="yes"/>
      <point x="744" y="746"/>
      <point x="820" y="670"/>
      <point x="820" y="617" type="qcurve" smooth="yes"/>
      <point x="820" y="568"/>
      <point x="748" y="493"/>
      <point x="698" y="490" type="qcurve" smooth="yes"/>
      <point x="691" y="490"/>
      <point x="691" y="483" type="qcurve" smooth="yes"/>
      <point x="691" y="430" type="line" smooth="yes"/>
      <point x="691" y="423"/>
      <point x="698" y="423" type="qcurve" smooth="yes"/>
      <point x="777" y="426"/>
      <point x="886" y="539"/>
      <point x="886" y="617" type="qcurve" smooth="yes"/>
      <point x="886" y="662"/>
      <point x="869" y="698" type="qcurve"/>
      <point x="916" y="754"/>
      <point x="916" y="828" type="qcurve" smooth="yes"/>
      <point x="916" y="884"/>
      <point x="860" y="979"/>
      <point x="765" y="1034"/>
      <point x="709" y="1034" type="qcurve" smooth="yes"/>
      <point x="618" y="1034"/>
      <point x="556" y="966" type="qcurve"/>
      <point x="508" y="992"/>
      <point x="450" y="992" type="qcurve" smooth="yes"/>
      <point x="367" y="992"/>
      <point x="238" y="888"/>
      <point x="220" y="808" type="qcurve"/>
      <point x="153" y="792"/>
    </contour>
    <contour>
      <point x="320" y="471"/>
      <point x="320" y="457" type="qcurve" smooth="yes"/>
      <point x="320" y="443"/>
      <point x="339" y="423"/>
      <point x="367" y="423"/>
      <point x="386" y="443"/>
      <point x="386" y="457" type="qcurve" smooth="yes"/>
      <point x="386" y="471"/>
      <point x="367" y="490"/>
      <point x="339" y="490"/>
    </contour>
    <contour>
      <point x="320" y="328"/>
      <point x="320" y="314" type="qcurve" smooth="yes"/>
      <point x="320" y="302"/>
      <point x="330" y="292" type="qcurve" smooth="yes"/>
      <point x="340" y="282"/>
      <point x="353" y="282" type="qcurve" smooth="yes"/>
      <point x="367" y="282"/>
      <point x="386" y="300"/>
      <point x="386" y="314" type="qcurve" smooth="yes"/>
      <point x="386" y="328"/>
      <point x="367" y="347"/>
      <point x="339" y="347"/>
    </contour>
    <contour>
      <point x="401" y="1115"/>
      <point x="401" y="1101" type="qcurve" smooth="yes"/>
      <point x="401" y="1087"/>
      <point x="411" y="1078" type="qcurve" smooth="yes"/>
      <point x="437" y="1052" type="line" smooth="yes"/>
      <point x="446" y="1042"/>
      <point x="458" y="1042" type="qcurve"/>
      <point x="470" y="1040"/>
      <point x="494" y="1061"/>
      <point x="494" y="1090"/>
      <point x="484" y="1101" type="qcurve"/>
      <point x="459" y="1125" type="line"/>
      <point x="450" y="1135"/>
      <point x="436" y="1135" type="qcurve" smooth="yes"/>
      <point x="421" y="1135"/>
    </contour>
    <contour>
      <point x="446" y="395"/>
      <point x="446" y="382" type="qcurve" smooth="yes"/>
      <point x="446" y="368"/>
      <point x="456" y="358" type="qcurve" smooth="yes"/>
      <point x="465" y="348"/>
      <point x="479" y="348" type="qcurve" smooth="yes"/>
      <point x="493" y="348"/>
      <point x="512" y="367"/>
      <point x="512" y="382" type="qcurve" smooth="yes"/>
      <point x="512" y="395"/>
      <point x="493" y="415"/>
      <point x="479" y="415" type="qcurve" smooth="yes"/>
      <point x="465" y="415"/>
    </contour>
    <contour>
      <point x="446" y="537"/>
      <point x="446" y="524" type="qcurve" smooth="yes"/>
      <point x="446" y="510"/>
      <point x="465" y="491"/>
      <point x="479" y="491" type="qcurve" smooth="yes"/>
      <point x="493" y="491"/>
      <point x="512" y="510"/>
      <point x="512" y="537"/>
      <point x="493" y="557"/>
      <point x="479" y="557" type="qcurve" smooth="yes"/>
      <point x="465" y="557"/>
    </contour>
    <contour>
      <point x="446" y="251"/>
      <point x="446" y="237" type="qcurve" smooth="yes"/>
      <point x="446" y="224"/>
      <point x="456" y="215" type="qcurve" smooth="yes"/>
      <point x="466" y="205"/>
      <point x="479" y="205" type="qcurve" smooth="yes"/>
      <point x="493" y="205"/>
      <point x="512" y="223"/>
      <point x="512" y="251"/>
      <point x="493" y="271"/>
      <point x="479" y="271" type="qcurve" smooth="yes"/>
      <point x="466" y="271"/>
    </contour>
    <contour>
      <point x="573" y="471"/>
      <point x="573" y="457" type="qcurve" smooth="yes"/>
      <point x="573" y="443"/>
      <point x="593" y="423"/>
      <point x="620" y="423"/>
      <point x="639" y="443"/>
      <point x="639" y="457" type="qcurve" smooth="yes"/>
      <point x="639" y="471"/>
      <point x="620" y="490"/>
      <point x="593" y="490"/>
    </contour>
    <contour>
      <point x="573" y="328"/>
      <point x="573" y="314" type="qcurve" smooth="yes"/>
      <point x="573" y="302"/>
      <point x="583" y="292" type="qcurve" smooth="yes"/>
      <point x="593" y="282"/>
      <point x="606" y="282" type="qcurve" smooth="yes"/>
      <point x="620" y="282"/>
      <point x="639" y="300"/>
      <point x="639" y="314" type="qcurve" smooth="yes"/>
      <point x="639" y="328"/>
      <point x="620" y="347"/>
      <point x="606" y="347" type="qcurve" smooth="yes"/>
      <point x="592" y="347"/>
    </contour>
    <contour>
      <point x="661" y="881"/>
      <point x="612" y="928" type="qcurve"/>
      <point x="653" y="968"/>
      <point x="709" y="968" type="qcurve" smooth="yes"/>
      <point x="767" y="968"/>
      <point x="848" y="885"/>
      <point x="848" y="828" type="qcurve" smooth="yes"/>
      <point x="848" y="791"/>
      <point x="828" y="755" type="qcurve"/>
      <point x="771" y="812"/>
      <point x="691" y="812" type="qcurve" smooth="yes"/>
      <point x="678" y="812" type="line"/>
    </contour>
    <contour>
      <point x="675" y="1215" type="qcurve" smooth="yes"/>
      <point x="675" y="1134" type="line" smooth="yes"/>
      <point x="675" y="1121"/>
      <point x="695" y="1102"/>
      <point x="723" y="1102"/>
      <point x="742" y="1121"/>
      <point x="742" y="1134" type="qcurve" smooth="yes"/>
      <point x="742" y="1215" type="line" smooth="yes"/>
      <point x="742" y="1229"/>
      <point x="723" y="1249"/>
      <point x="696" y="1249"/>
      <point x="675" y="1229"/>
    </contour>
    <contour>
      <point x="893" y="1059"/>
      <point x="893" y="1045" type="qcurve" smooth="yes"/>
      <point x="893" y="1031"/>
      <point x="903" y="1021" type="qcurve" smooth="yes"/>
      <point x="912" y="1012"/>
      <point x="938" y="1010"/>
      <point x="950" y="1021" type="qcurve" smooth="yes"/>
      <point x="1006" y="1078" type="line" smooth="yes"/>
      <point x="1017" y="1088"/>
      <point x="1017" y="1102" type="qcurve" smooth="yes"/>
      <point x="1017" y="1116"/>
      <point x="996" y="1136"/>
      <point x="982" y="1136" type="qcurve" smooth="yes"/>
      <point x="970" y="1136"/>
      <point x="960" y="1126" type="qcurve" smooth="yes"/>
      <point x="903" y="1068" type="line" smooth="yes"/>
    </contour>
    <contour>
      <point x="925" y="593"/>
      <point x="925" y="579" type="qcurve" smooth="yes"/>
      <point x="925" y="564"/>
      <point x="934" y="554" type="qcurve" smooth="yes"/>
      <point x="960" y="530" type="line"/>
      <point x="974" y="520"/>
      <point x="985" y="520" type="qcurve" smooth="yes"/>
      <point x="997" y="520"/>
      <point x="1017" y="540"/>
      <point x="1017" y="554" type="qcurve" smooth="yes"/>
      <point x="1017" y="568"/>
      <point x="1006" y="577" type="qcurve"/>
      <point x="982" y="603" type="line"/>
      <point x="971" y="613"/>
      <point x="944" y="613"/>
    </contour>
    <contour>
      <point x="982" y="842"/>
      <point x="982" y="828" type="qcurve" smooth="yes"/>
      <point x="982" y="814"/>
      <point x="992" y="805" type="qcurve"/>
      <point x="1002" y="794"/>
      <point x="1017" y="794" type="qcurve" smooth="yes"/>
      <point x="1097" y="794" type="line" smooth="yes"/>
      <point x="1110" y="794"/>
      <point x="1130" y="814"/>
      <point x="1130" y="842"/>
      <point x="1110" y="862"/>
      <point x="1097" y="862" type="qcurve" smooth="yes"/>
      <point x="1017" y="862" type="line" smooth="yes"/>
      <point x="1002" y="862"/>
    </contour>
  </outline>
</glyph>
<glyph name="uniF00B" format="2">
  <advance width="1200"/>
  <unicode hex="E30B"/>
  <note>
uniF00B
</note>
  <outline>
    <contour>
      <point x="70" y="392"/>
      <point x="155" y="498"/>
      <point x="220" y="513" type="qcurve"/>
      <point x="238" y="593"/>
      <point x="367" y="697"/>
      <point x="450" y="697" type="qcurve" smooth="yes"/>
      <point x="508" y="697"/>
      <point x="556" y="671" type="qcurve"/>
      <point x="617" y="739"/>
      <point x="709" y="739" type="qcurve" smooth="yes"/>
      <point x="765" y="739"/>
      <point x="860" y="684"/>
      <point x="915" y="589"/>
      <point x="915" y="533" type="qcurve" smooth="yes"/>
      <point x="915" y="459"/>
      <point x="869" y="403" type="qcurve"/>
      <point x="885" y="368"/>
      <point x="885" y="324" type="qcurve" smooth="yes"/>
      <point x="885" y="272"/>
      <point x="836" y="184"/>
      <point x="749" y="130"/>
      <point x="698" y="128" type="qcurve" smooth="yes"/>
      <point x="691" y="128"/>
      <point x="691" y="135" type="qcurve" smooth="yes"/>
      <point x="691" y="188" type="line" smooth="yes"/>
      <point x="691" y="195"/>
      <point x="698" y="195" type="qcurve" smooth="yes"/>
      <point x="748" y="198"/>
      <point x="820" y="273"/>
      <point x="820" y="324" type="qcurve" smooth="yes"/>
      <point x="820" y="375"/>
      <point x="743" y="451"/>
      <point x="691" y="451" type="qcurve" smooth="yes"/>
      <point x="627" y="451" type="line" smooth="yes"/>
      <point x="620" y="451"/>
      <point x="620" y="458" type="qcurve"/>
      <point x="617" y="480" type="line" smooth="yes"/>
      <point x="610" y="544"/>
      <point x="514" y="630"/>
      <point x="450" y="630" type="qcurve" smooth="yes"/>
      <point x="385" y="630"/>
      <point x="290" y="545"/>
      <point x="284" y="480" type="qcurve" smooth="yes"/>
      <point x="281" y="459" type="line"/>
      <point x="281" y="452"/>
      <point x="273" y="452" type="qcurve" smooth="yes"/>
      <point x="253" y="451" type="line"/>
      <point x="203" y="445"/>
      <point x="137" y="373"/>
      <point x="137" y="324" type="qcurve" smooth="yes"/>
      <point x="137" y="273"/>
      <point x="208" y="198"/>
      <point x="258" y="195" type="qcurve" smooth="yes"/>
      <point x="265" y="195"/>
      <point x="265" y="188" type="qcurve" smooth="yes"/>
      <point x="265" y="135" type="line" smooth="yes"/>
      <point x="265" y="128"/>
      <point x="258" y="128" type="qcurve" smooth="yes"/>
      <point x="207" y="131"/>
      <point x="120" y="184"/>
      <point x="70" y="272"/>
      <point x="70" y="324" type="qcurve" smooth="yes"/>
    </contour>
    <contour>
      <point x="303" y="304"/>
      <point x="330" y="352"/>
      <point x="346" y="369" type="qcurve" smooth="yes"/>
      <point x="360" y="385" type="line"/>
      <point x="363" y="381"/>
      <point x="376" y="368" type="qcurve" smooth="yes"/>
      <point x="387" y="354"/>
      <point x="415" y="303"/>
      <point x="415" y="289" type="qcurve" smooth="yes"/>
      <point x="415" y="266"/>
      <point x="383" y="235"/>
      <point x="360" y="235" type="qcurve" smooth="yes"/>
      <point x="336" y="235"/>
      <point x="303" y="266"/>
      <point x="303" y="289" type="qcurve" smooth="yes"/>
    </contour>
    <contour>
      <point x="401" y="821"/>
      <point x="420" y="841"/>
      <point x="435" y="841" type="qcurve" smooth="yes"/>
      <point x="448" y="841"/>
      <point x="459" y="831" type="qcurve"/>
      <point x="484" y="806" type="line" smooth="yes"/>
      <point x="494" y="796"/>
      <point x="494" y="769"/>
      <point x="484" y="757" type="qcurve"/>
      <point x="461" y="739"/>
      <point x="436" y="757" type="qcurve"/>
      <point x="411" y="783" type="line" smooth="yes"/>
      <point x="401" y="792"/>
      <point x="401" y="807" type="qcurve" smooth="yes"/>
    </contour>
    <contour>
      <point x="420" y="167"/>
      <point x="453" y="211" type="qcurve" smooth="yes"/>
      <point x="482" y="250"/>
      <point x="503" y="269" type="qcurve" smooth="yes"/>
      <point x="512" y="278" type="line"/>
      <point x="518" y="273"/>
      <point x="523" y="269" type="qcurve"/>
      <point x="546" y="246"/>
      <point x="573" y="211" type="qcurve"/>
      <point x="605" y="165"/>
      <point x="605" y="133" type="qcurve" smooth="yes"/>
      <point x="605" y="95"/>
      <point x="551" y="41"/>
      <point x="512" y="41" type="qcurve" smooth="yes"/>
      <point x="474" y="41"/>
      <point x="420" y="94"/>
      <point x="420" y="133" type="qcurve" smooth="yes"/>
    </contour>
    <contour>
      <point x="479" y="404"/>
      <point x="497" y="436"/>
      <point x="507" y="448" type="qcurve" smooth="yes"/>
      <point x="517" y="458" type="line"/>
      <point x="554" y="419"/>
      <point x="554" y="394" type="qcurve" smooth="yes"/>
      <point x="554" y="379"/>
      <point x="532" y="358"/>
      <point x="517" y="358" type="qcurve" smooth="yes"/>
      <point x="501" y="358"/>
      <point x="479" y="379"/>
      <point x="479" y="394" type="qcurve" smooth="yes"/>
    </contour>
    <contour>
      <point x="661" y="586"/>
      <point x="678" y="517" type="qcurve"/>
      <point x="691" y="517" type="line" smooth="yes"/>
      <point x="770" y="517"/>
      <point x="828" y="460" type="qcurve"/>
      <point x="848" y="498"/>
      <point x="848" y="533" type="qcurve" smooth="yes"/>
      <point x="848" y="591"/>
      <point x="767" y="673"/>
      <point x="709" y="673" type="qcurve" smooth="yes"/>
      <point x="651" y="673"/>
      <point x="612" y="633" type="qcurve"/>
    </contour>
    <contour>
      <point x="675" y="921" type="line" smooth="yes"/>
      <point x="675" y="936"/>
      <point x="695" y="954"/>
      <point x="723" y="954"/>
      <point x="741" y="936"/>
      <point x="741" y="921" type="qcurve" smooth="yes"/>
      <point x="741" y="841" type="line" smooth="yes"/>
      <point x="741" y="827"/>
      <point x="723" y="807"/>
      <point x="696" y="807"/>
      <point x="675" y="827"/>
      <point x="675" y="841" type="qcurve" smooth="yes"/>
    </contour>
    <contour>
      <point x="893" y="764"/>
      <point x="903" y="774" type="qcurve" smooth="yes"/>
      <point x="960" y="831" type="line" smooth="yes"/>
      <point x="970" y="841"/>
      <point x="982" y="841" type="qcurve" smooth="yes"/>
      <point x="997" y="841"/>
      <point x="1017" y="822"/>
      <point x="1017" y="807" type="qcurve" smooth="yes"/>
      <point x="1017" y="794"/>
      <point x="1006" y="783" type="qcurve" smooth="yes"/>
      <point x="949" y="726" type="line"/>
      <point x="935" y="717"/>
      <point x="925" y="717" type="qcurve" smooth="yes"/>
      <point x="913" y="717"/>
      <point x="903" y="726" type="qcurve" smooth="yes"/>
      <point x="893" y="735"/>
      <point x="893" y="750" type="qcurve" smooth="yes"/>
    </contour>
    <contour>
      <point x="925" y="298"/>
      <point x="944" y="318"/>
      <point x="958" y="318" type="qcurve" smooth="yes"/>
      <point x="971" y="318"/>
      <point x="982" y="308" type="qcurve"/>
      <point x="1006" y="282" type="line"/>
      <point x="1017" y="272"/>
      <point x="1017" y="259" type="qcurve" smooth="yes"/>
      <point x="1017" y="246"/>
      <point x="1006" y="236" type="qcurve"/>
      <point x="997" y="226"/>
      <point x="983" y="226" type="qcurve" smooth="yes"/>
      <point x="968" y="226"/>
      <point x="960" y="236" type="qcurve"/>
      <point x="934" y="259" type="line"/>
      <point x="925" y="270"/>
      <point x="925" y="285" type="qcurve" smooth="yes"/>
    </contour>
    <contour>
      <point x="982" y="547"/>
      <point x="1002" y="567"/>
      <point x="1017" y="567" type="qcurve" smooth="yes"/>
      <point x="1097" y="567" type="line" smooth="yes"/>
      <point x="1110" y="567"/>
      <point x="1130" y="547"/>
      <point x="1130" y="533" type="qcurve" smooth="yes"/>
      <point x="1130" y="519"/>
      <point x="1111" y="500"/>
      <point x="1097" y="500" type="qcurve" smooth="yes"/>
      <point x="1017" y="500" type="line" smooth="yes"/>
      <point x="1002" y="500"/>
      <point x="992" y="510" type="qcurve" smooth="yes"/>
      <point x="982" y="520"/>
      <point x="982" y="533" type="qcurve" smooth="yes"/>
    </contour>
  </outline>
</glyph>
<glyph name="uniF00C" format="2">
  <advance width="1200"/>
  <unicode hex="E30C"/>
  <note>
uniF00C
</note>
  <outline>
    <contour>
      <point x="129" y="478"/>
      <point x="152" y="500"/>
      <point x="169" y="500" type="qcurve" smooth="yes"/>
      <point x="236" y="500" type="line" smooth="yes"/>
      <point x="252" y="500"/>
      <point x="274" y="478"/>
      <point x="274" y="461" type="qcurve" smooth="yes"/>
      <point x="274" y="445"/>
      <point x="252" y="424"/>
      <point x="236" y="424" type="qcurve" smooth="yes"/>
      <point x="169" y="424" type="line" smooth="yes"/>
      <point x="152" y="424"/>
      <point x="129" y="445"/>
      <point x="129" y="461" type="qcurve" smooth="yes"/>
    </contour>
    <contour>
      <point x="199" y="263"/>
      <point x="253" y="335"/>
      <point x="298" y="349" type="qcurve"/>
      <point x="317" y="414"/>
      <point x="376" y="448" type="qcurve"/>
      <point x="376" y="461" type="line" smooth="yes"/>
      <point x="376" y="525"/>
      <point x="439" y="634"/>
      <point x="548" y="698"/>
      <point x="613" y="698" type="qcurve" smooth="yes"/>
      <point x="660" y="698"/>
      <point x="748" y="660"/>
      <point x="811" y="597"/>
      <point x="849" y="509"/>
      <point x="849" y="461" type="qcurve" smooth="yes"/>
      <point x="849" y="401"/>
      <point x="792" y="296"/>
      <point x="743" y="265" type="qcurve"/>
      <point x="751" y="245"/>
      <point x="751" y="216" type="qcurve" smooth="yes"/>
      <point x="751" y="158"/>
      <point x="669" y="75"/>
      <point x="611" y="75" type="qcurve" smooth="yes"/>
      <point x="340" y="75" type="line" smooth="yes"/>
      <point x="283" y="75"/>
      <point x="199" y="159"/>
      <point x="199" y="216" type="qcurve" smooth="yes"/>
    </contour>
    <contour>
      <point x="261" y="792"/>
      <point x="281" y="814"/>
      <point x="298" y="814" type="qcurve" smooth="yes"/>
      <point x="313" y="814"/>
      <point x="325" y="803" type="qcurve" smooth="yes"/>
      <point x="390" y="738" type="line" smooth="yes"/>
      <point x="402" y="726"/>
      <point x="402" y="710" type="qcurve" smooth="yes"/>
      <point x="402" y="694"/>
      <point x="390" y="683" type="qcurve"/>
      <point x="363" y="662"/>
      <point x="335" y="683" type="qcurve"/>
      <point x="271" y="749" type="line" smooth="yes"/>
      <point x="261" y="759"/>
      <point x="261" y="776" type="qcurve" smooth="yes"/>
    </contour>
    <contour>
      <point x="278" y="190"/>
      <point x="314" y="152"/>
      <point x="340" y="152" type="qcurve" smooth="yes"/>
      <point x="611" y="152" type="line" smooth="yes"/>
      <point x="637" y="152"/>
      <point x="674" y="190"/>
      <point x="674" y="216" type="qcurve" smooth="yes"/>
      <point x="674" y="242"/>
      <point x="637" y="279"/>
      <point x="611" y="279" type="qcurve" smooth="yes"/>
      <point x="559" y="279" type="line" smooth="yes"/>
      <point x="553" y="279"/>
      <point x="550" y="288" type="qcurve"/>
      <point x="546" y="313" type="line" smooth="yes"/>
      <point x="542" y="348"/>
      <point x="492" y="393"/>
      <point x="457" y="393" type="qcurve" smooth="yes"/>
      <point x="423" y="393"/>
      <point x="374" y="348"/>
      <point x="370" y="313" type="qcurve" smooth="yes"/>
      <point x="366" y="291" type="line"/>
      <point x="366" y="282"/>
      <point x="358" y="282" type="qcurve"/>
      <point x="334" y="279" type="line" smooth="yes"/>
      <point x="309" y="277"/>
      <point x="278" y="241"/>
      <point x="278" y="216" type="qcurve" smooth="yes"/>
    </contour>
    <contour>
      <point x="457" y="469" type="line" smooth="yes"/>
      <point x="512" y="469"/>
      <point x="599" y="408"/>
      <point x="616" y="356" type="qcurve"/>
      <point x="661" y="356"/>
      <point x="696" y="327" type="qcurve"/>
      <point x="731" y="349"/>
      <point x="771" y="419"/>
      <point x="771" y="461" type="qcurve" smooth="yes"/>
      <point x="771" y="528"/>
      <point x="678" y="622"/>
      <point x="613" y="622" type="qcurve" smooth="yes"/>
      <point x="548" y="622"/>
      <point x="456" y="534"/>
      <point x="452" y="469" type="qcurve"/>
    </contour>
    <contour>
      <point x="574" y="907" type="line" smooth="yes"/>
      <point x="574" y="923"/>
      <point x="597" y="944"/>
      <point x="613" y="944" type="qcurve" smooth="yes"/>
      <point x="629" y="944"/>
      <point x="651" y="923"/>
      <point x="651" y="907" type="qcurve" smooth="yes"/>
      <point x="651" y="814" type="line" smooth="yes"/>
      <point x="651" y="798"/>
      <point x="629" y="776"/>
      <point x="613" y="776" type="qcurve" smooth="yes"/>
      <point x="597" y="776"/>
      <point x="574" y="798"/>
      <point x="574" y="814" type="qcurve" smooth="yes"/>
    </contour>
    <contour>
      <point x="845" y="251"/>
      <point x="877" y="251"/>
      <point x="888" y="241" type="qcurve" smooth="yes"/>
      <point x="955" y="174" type="line" smooth="yes"/>
      <point x="965" y="164"/>
      <point x="965" y="148" type="qcurve" smooth="yes"/>
      <point x="965" y="131"/>
      <point x="955" y="121" type="qcurve"/>
      <point x="924" y="96"/>
      <point x="899" y="121" type="qcurve" smooth="yes"/>
      <point x="834" y="185" type="line"/>
      <point x="824" y="197"/>
      <point x="824" y="229"/>
    </contour>
    <contour>
      <point x="824" y="727"/>
      <point x="834" y="738" type="qcurve" smooth="yes"/>
      <point x="899" y="803" type="line" smooth="yes"/>
      <point x="911" y="814"/>
      <point x="926" y="814" type="qcurve" smooth="yes"/>
      <point x="942" y="814"/>
      <point x="965" y="792"/>
      <point x="965" y="776" type="qcurve" smooth="yes"/>
      <point x="965" y="759"/>
      <point x="955" y="749" type="qcurve" smooth="yes"/>
      <point x="888" y="683" type="line" smooth="yes"/>
      <point x="877" y="672"/>
      <point x="861" y="672" type="qcurve" smooth="yes"/>
      <point x="845" y="672"/>
      <point x="834" y="683" type="qcurve" smooth="yes"/>
      <point x="824" y="694"/>
      <point x="824" y="711" type="qcurve" smooth="yes"/>
    </contour>
    <contour>
      <point x="926" y="478"/>
      <point x="948" y="500"/>
      <point x="965" y="500" type="qcurve" smooth="yes"/>
      <point x="1032" y="500" type="line" smooth="yes"/>
      <point x="1048" y="500"/>
      <point x="1071" y="478"/>
      <point x="1071" y="461" type="qcurve" smooth="yes"/>
      <point x="1071" y="445"/>
      <point x="1048" y="424"/>
      <point x="1032" y="424" type="qcurve" smooth="yes"/>
      <point x="965" y="424" type="line" smooth="yes"/>
      <point x="948" y="424"/>
      <point x="926" y="445"/>
      <point x="926" y="461" type="qcurve" smooth="yes"/>
    </contour>
  </outline>
</glyph>
<glyph name="uniF00D" format="2">
  <advance width="1200"/>
  <unicode hex="E30D"/>
  <note>
uniF00D
</note>
  <outline>
    <contour>
      <point x="180" y="400"/>
      <point x="200" y="380"/>
      <point x="214" y="380" type="qcurve" smooth="yes"/>
      <point x="295" y="380" type="line" smooth="yes"/>
      <point x="308" y="380"/>
      <point x="327" y="399"/>
      <point x="327" y="428"/>
      <point x="308" y="448"/>
      <point x="295" y="448" type="qcurve" smooth="yes"/>
      <point x="214" y="448" type="line" smooth="yes"/>
      <point x="201" y="448"/>
      <point x="190" y="438" type="qcurve" smooth="yes"/>
      <point x="180" y="428"/>
      <point x="180" y="413" type="qcurve" smooth="yes"/>
    </contour>
    <contour>
      <point x="293" y="127"/>
      <point x="303" y="117" type="qcurve"/>
      <point x="327" y="98"/>
      <point x="351" y="117" type="qcurve"/>
      <point x="407" y="173" type="line"/>
      <point x="417" y="184"/>
      <point x="417" y="198" type="qcurve" smooth="yes"/>
      <point x="417" y="212"/>
      <point x="398" y="229"/>
      <point x="384" y="229" type="qcurve" smooth="yes"/>
      <point x="370" y="229"/>
      <point x="361" y="220" type="qcurve" smooth="yes"/>
      <point x="303" y="164" type="line"/>
      <point x="293" y="154"/>
      <point x="293" y="140" type="qcurve" smooth="yes"/>
    </contour>
    <contour>
      <point x="293" y="672"/>
      <point x="303" y="662" type="qcurve"/>
      <point x="361" y="606" type="line"/>
      <point x="370" y="596"/>
      <point x="384" y="596" type="qcurve" smooth="yes"/>
      <point x="398" y="596"/>
      <point x="417" y="615"/>
      <point x="417" y="629" type="qcurve" smooth="yes"/>
      <point x="417" y="644"/>
      <point x="407" y="653" type="qcurve"/>
      <point x="351" y="711" type="line"/>
      <point x="341" y="720"/>
      <point x="328" y="720" type="qcurve" smooth="yes"/>
      <point x="314" y="720"/>
      <point x="303" y="711" type="qcurve"/>
      <point x="293" y="700"/>
      <point x="293" y="687" type="qcurve" smooth="yes"/>
    </contour>
    <contour>
      <point x="394" y="358"/>
      <point x="449" y="263"/>
      <point x="544" y="208"/>
      <point x="655" y="208"/>
      <point x="750" y="263"/>
      <point x="805" y="358"/>
      <point x="805" y="413" type="qcurve" smooth="yes"/>
      <point x="805" y="455"/>
      <point x="773" y="531"/>
      <point x="718" y="586"/>
      <point x="641" y="619"/>
      <point x="600" y="619" type="qcurve" smooth="yes"/>
      <point x="545" y="619"/>
      <point x="449" y="564"/>
      <point x="394" y="469"/>
      <point x="394" y="413" type="qcurve" smooth="yes"/>
    </contour>
    <contour>
      <point x="461" y="470"/>
      <point x="542" y="551"/>
      <point x="600" y="551" type="qcurve" smooth="yes"/>
      <point x="658" y="551"/>
      <point x="739" y="470"/>
      <point x="739" y="413" type="qcurve" smooth="yes"/>
      <point x="739" y="356"/>
      <point x="658" y="274"/>
      <point x="542" y="274"/>
      <point x="461" y="356"/>
      <point x="461" y="413" type="qcurve" smooth="yes"/>
    </contour>
    <contour>
      <point x="566" y="28" type="line" smooth="yes"/>
      <point x="566" y="14"/>
      <point x="586" y="-6"/>
      <point x="614" y="-6"/>
      <point x="634" y="14"/>
      <point x="634" y="28" type="qcurve" smooth="yes"/>
      <point x="634" y="107" type="line" smooth="yes"/>
      <point x="634" y="121"/>
      <point x="614" y="140"/>
      <point x="600" y="140" type="qcurve" smooth="yes"/>
      <point x="586" y="140"/>
      <point x="566" y="121"/>
      <point x="566" y="107" type="qcurve" smooth="yes"/>
    </contour>
    <contour>
      <point x="566" y="705"/>
      <point x="586" y="687"/>
      <point x="614" y="687"/>
      <point x="634" y="705"/>
      <point x="634" y="719" type="qcurve" smooth="yes"/>
      <point x="634" y="799" type="line" smooth="yes"/>
      <point x="634" y="813"/>
      <point x="614" y="833"/>
      <point x="586" y="833"/>
      <point x="566" y="813"/>
      <point x="566" y="799" type="qcurve" smooth="yes"/>
      <point x="566" y="719" type="line" smooth="yes"/>
    </contour>
    <contour>
      <point x="784" y="183"/>
      <point x="793" y="173" type="qcurve"/>
      <point x="849" y="117" type="line"/>
      <point x="873" y="98"/>
      <point x="897" y="117" type="qcurve"/>
      <point x="906" y="126"/>
      <point x="906" y="154"/>
      <point x="897" y="164" type="qcurve"/>
      <point x="839" y="220" type="line" smooth="yes"/>
      <point x="830" y="229"/>
      <point x="815" y="229" type="qcurve" smooth="yes"/>
      <point x="802" y="229"/>
      <point x="793" y="220" type="qcurve" smooth="yes"/>
      <point x="784" y="212"/>
      <point x="784" y="198" type="qcurve" smooth="yes"/>
    </contour>
    <contour>
      <point x="784" y="615"/>
      <point x="802" y="596"/>
      <point x="815" y="596" type="qcurve" smooth="yes"/>
      <point x="828" y="596"/>
      <point x="839" y="606" type="qcurve" smooth="yes"/>
      <point x="897" y="662" type="line" smooth="yes"/>
      <point x="906" y="672"/>
      <point x="906" y="687" type="qcurve" smooth="yes"/>
      <point x="906" y="700"/>
      <point x="887" y="720"/>
      <point x="873" y="720" type="qcurve" smooth="yes"/>
      <point x="860" y="720"/>
      <point x="849" y="711" type="qcurve"/>
      <point x="793" y="653" type="line" smooth="yes"/>
      <point x="784" y="644"/>
      <point x="784" y="629" type="qcurve" smooth="yes"/>
    </contour>
    <contour>
      <point x="892" y="380"/>
      <point x="906" y="380" type="qcurve" smooth="yes"/>
      <point x="986" y="380" type="line" smooth="yes"/>
      <point x="999" y="380"/>
      <point x="1020" y="400"/>
      <point x="1020" y="427"/>
      <point x="999" y="448"/>
      <point x="986" y="448" type="qcurve" smooth="yes"/>
      <point x="906" y="448" type="line" smooth="yes"/>
      <point x="893" y="448"/>
      <point x="883" y="438" type="qcurve" smooth="yes"/>
      <point x="873" y="428"/>
      <point x="873" y="399"/>
    </contour>
  </outline>
</glyph>
<glyph name="uniF00E" format="2">
  <advance width="1200"/>
  <unicode hex="E30E"/>
  <note>
uniF00E
</note>
  <outline>
    <contour>
      <point x="66" y="393"/>
      <point x="152" y="500"/>
      <point x="217" y="515" type="qcurve"/>
      <point x="235" y="596"/>
      <point x="365" y="700"/>
      <point x="449" y="700" type="qcurve" smooth="yes"/>
      <point x="509" y="700"/>
      <point x="557" y="675" type="qcurve"/>
      <point x="586" y="706"/>
      <point x="666" y="742"/>
      <point x="709" y="742" type="qcurve" smooth="yes"/>
      <point x="765" y="742"/>
      <point x="861" y="686"/>
      <point x="917" y="590"/>
      <point x="917" y="534" type="qcurve" smooth="yes"/>
      <point x="917" y="461"/>
      <point x="872" y="404" type="qcurve"/>
      <point x="889" y="368"/>
      <point x="889" y="324" type="qcurve" smooth="yes"/>
      <point x="889" y="272"/>
      <point x="839" y="183"/>
      <point x="752" y="129"/>
      <point x="699" y="128" type="qcurve" smooth="yes"/>
      <point x="692" y="128"/>
      <point x="692" y="134" type="qcurve" smooth="yes"/>
      <point x="692" y="187" type="line" smooth="yes"/>
      <point x="692" y="194"/>
      <point x="699" y="194" type="qcurve" smooth="yes"/>
      <point x="750" y="197"/>
      <point x="821" y="273"/>
      <point x="821" y="324" type="qcurve" smooth="yes"/>
      <point x="821" y="377"/>
      <point x="745" y="453"/>
      <point x="692" y="453" type="qcurve" smooth="yes"/>
      <point x="628" y="453" type="line" smooth="yes"/>
      <point x="621" y="453"/>
      <point x="621" y="459" type="qcurve"/>
      <point x="618" y="483" type="line" smooth="yes"/>
      <point x="611" y="547"/>
      <point x="514" y="634"/>
      <point x="449" y="634" type="qcurve" smooth="yes"/>
      <point x="384" y="634"/>
      <point x="288" y="547"/>
      <point x="282" y="483" type="qcurve" smooth="yes"/>
      <point x="279" y="459" type="line"/>
      <point x="277" y="454"/>
      <point x="270" y="454" type="qcurve" smooth="yes"/>
      <point x="250" y="453" type="line"/>
      <point x="200" y="447"/>
      <point x="134" y="374"/>
      <point x="134" y="324" type="qcurve" smooth="yes"/>
      <point x="134" y="279"/>
      <point x="189" y="209"/>
      <point x="232" y="199" type="qcurve"/>
      <point x="274" y="312" type="line"/>
      <point x="278" y="318"/>
      <point x="283" y="318" type="qcurve" smooth="yes"/>
      <point x="400" y="318" type="line" smooth="yes"/>
      <point x="410" y="318"/>
      <point x="406" y="310" type="qcurve" smooth="yes"/>
      <point x="307" y="126" type="line"/>
      <point x="394" y="126" type="line" smooth="yes"/>
      <point x="398" y="126"/>
      <point x="401" y="121"/>
      <point x="399" y="118" type="qcurve" smooth="yes"/>
      <point x="227" y="-106" type="line"/>
      <point x="215" y="-106" type="line"/>
      <point x="271" y="61" type="line"/>
      <point x="187" y="61" type="line" smooth="yes"/>
      <point x="179" y="61"/>
      <point x="182" y="69" type="qcurve" smooth="yes"/>
      <point x="208" y="136" type="line"/>
      <point x="145" y="154"/>
      <point x="66" y="258"/>
      <point x="66" y="324" type="qcurve" smooth="yes"/>
    </contour>
    <contour>
      <point x="390" y="-66"/>
      <point x="391" y="-58" type="qcurve" smooth="yes"/>
      <point x="401" y="-17" type="line"/>
      <point x="406" y="-3"/>
      <point x="430" y="11"/>
      <point x="442" y="7" type="qcurve"/>
      <point x="457" y="4"/>
      <point x="471" y="-20"/>
      <point x="467" y="-35" type="qcurve" smooth="yes"/>
      <point x="456" y="-75" type="line" smooth="yes"/>
      <point x="452" y="-93"/>
      <point x="439" y="-98" type="qcurve" smooth="yes"/>
      <point x="433" y="-101"/>
      <point x="424" y="-101" type="qcurve" smooth="yes"/>
      <point x="421" y="-101"/>
      <point x="414" y="-99" type="qcurve" smooth="yes"/>
      <point x="402" y="-96"/>
      <point x="390" y="-76"/>
      <point x="390" y="-67" type="qcurve" smooth="yes"/>
    </contour>
    <contour>
      <point x="399" y="824"/>
      <point x="419" y="843"/>
      <point x="434" y="843" type="qcurve" smooth="yes"/>
      <point x="448" y="843"/>
      <point x="457" y="833" type="qcurve" smooth="yes"/>
      <point x="482" y="807" type="line" smooth="yes"/>
      <point x="492" y="797"/>
      <point x="492" y="784" type="qcurve" smooth="yes"/>
      <point x="492" y="769"/>
      <point x="468" y="748"/>
      <point x="456" y="750" type="qcurve" smooth="yes"/>
      <point x="444" y="751"/>
      <point x="434" y="760" type="qcurve" smooth="yes"/>
      <point x="409" y="786" type="line" smooth="yes"/>
      <point x="399" y="796"/>
      <point x="399" y="810" type="qcurve" smooth="yes"/>
    </contour>
    <contour>
      <point x="442" y="124"/>
      <point x="444" y="132" type="qcurve" smooth="yes"/>
      <point x="454" y="173" type="line"/>
      <point x="458" y="187"/>
      <point x="482" y="201"/>
      <point x="495" y="197" type="qcurve" smooth="yes"/>
      <point x="509" y="193"/>
      <point x="524" y="169"/>
      <point x="520" y="156" type="qcurve" smooth="yes"/>
      <point x="508" y="115" type="line" smooth="yes"/>
      <point x="504" y="99"/>
      <point x="479" y="87"/>
      <point x="467" y="91" type="qcurve" smooth="yes"/>
      <point x="454" y="94"/>
      <point x="442" y="112"/>
      <point x="442" y="122" type="qcurve" smooth="yes"/>
    </contour>
    <contour>
      <point x="554" y="60"/>
      <point x="555" y="65" type="qcurve" smooth="yes"/>
      <point x="566" y="106" type="line" smooth="yes"/>
      <point x="571" y="119"/>
      <point x="595" y="133"/>
      <point x="608" y="129" type="qcurve" smooth="yes"/>
      <point x="622" y="125"/>
      <point x="635" y="102"/>
      <point x="631" y="88" type="qcurve" smooth="yes"/>
      <point x="621" y="48" type="line"/>
      <point x="615" y="28"/>
      <point x="603" y="24" type="qcurve"/>
      <point x="598" y="21"/>
      <point x="591" y="21" type="qcurve" smooth="yes"/>
      <point x="586" y="21"/>
      <point x="580" y="23" type="qcurve" smooth="yes"/>
      <point x="566" y="28"/>
      <point x="558" y="40" type="qcurve" smooth="yes"/>
      <point x="554" y="47"/>
      <point x="554" y="56" type="qcurve" smooth="yes"/>
    </contour>
    <contour>
      <point x="609" y="254" type="qcurve"/>
      <point x="621" y="296" type="line" smooth="yes"/>
      <point x="625" y="309"/>
      <point x="649" y="322"/>
      <point x="662" y="318" type="qcurve"/>
      <point x="676" y="315"/>
      <point x="690" y="292"/>
      <point x="686" y="277" type="qcurve" smooth="yes"/>
      <point x="675" y="238" type="line" smooth="yes"/>
      <point x="670" y="220"/>
      <point x="658" y="215" type="qcurve" smooth="yes"/>
      <point x="644" y="210"/>
      <point x="634" y="213" type="qcurve" smooth="yes"/>
      <point x="621" y="217"/>
      <point x="608" y="236"/>
      <point x="608" y="246" type="qcurve" smooth="yes"/>
      <point x="608" y="246"/>
    </contour>
    <contour>
      <point x="662" y="590"/>
      <point x="679" y="519" type="qcurve"/>
      <point x="692" y="519" type="line" smooth="yes"/>
      <point x="773" y="519"/>
      <point x="830" y="462" type="qcurve"/>
      <point x="849" y="495"/>
      <point x="849" y="534" type="qcurve" smooth="yes"/>
      <point x="849" y="592"/>
      <point x="767" y="673"/>
      <point x="709" y="673" type="qcurve" smooth="yes"/>
      <point x="652" y="673"/>
      <point x="612" y="635" type="qcurve"/>
    </contour>
    <contour>
      <point x="675" y="924" type="line" smooth="yes"/>
      <point x="675" y="938"/>
      <point x="695" y="958"/>
      <point x="723" y="958"/>
      <point x="742" y="939"/>
      <point x="742" y="924" type="qcurve" smooth="yes"/>
      <point x="742" y="843" type="line" smooth="yes"/>
      <point x="742" y="829"/>
      <point x="723" y="809"/>
      <point x="695" y="809"/>
      <point x="675" y="829"/>
      <point x="675" y="843" type="qcurve" smooth="yes"/>
    </contour>
    <contour>
      <point x="905" y="776" type="qcurve" smooth="yes"/>
      <point x="962" y="833" type="line"/>
      <point x="971" y="844"/>
      <point x="985" y="844" type="qcurve" smooth="yes"/>
      <point x="999" y="844"/>
      <point x="1009" y="833" type="qcurve" smooth="yes"/>
      <point x="1019" y="824"/>
      <point x="1019" y="796"/>
      <point x="1009" y="786" type="qcurve" smooth="yes"/>
      <point x="952" y="729" type="line" smooth="yes"/>
      <point x="940" y="718"/>
      <point x="913" y="720"/>
      <point x="905" y="729" type="qcurve" smooth="yes"/>
      <point x="896" y="738"/>
      <point x="896" y="767"/>
    </contour>
    <contour>
      <point x="926" y="296"/>
      <point x="946" y="316"/>
      <point x="960" y="316" type="qcurve" smooth="yes"/>
      <point x="973" y="316"/>
      <point x="984" y="306" type="qcurve" smooth="yes"/>
      <point x="1009" y="281" type="line" smooth="yes"/>
      <point x="1019" y="271"/>
      <point x="1019" y="257" type="qcurve" smooth="yes"/>
      <point x="1019" y="243"/>
      <point x="1009" y="234" type="qcurve"/>
      <point x="1000" y="223"/>
      <point x="987" y="223" type="qcurve"/>
      <point x="986" y="224" type="line"/>
      <point x="973" y="224"/>
      <point x="962" y="234" type="qcurve" smooth="yes"/>
      <point x="936" y="258" type="line" smooth="yes"/>
      <point x="926" y="268"/>
      <point x="926" y="282" type="qcurve" smooth="yes"/>
    </contour>
    <contour>
      <point x="984" y="548"/>
      <point x="1004" y="567"/>
      <point x="1018" y="567" type="qcurve" smooth="yes"/>
      <point x="1100" y="567" type="line" smooth="yes"/>
      <point x="1114" y="567"/>
      <point x="1134" y="548"/>
      <point x="1134" y="520"/>
      <point x="1114" y="500"/>
      <point x="1100" y="500" type="qcurve" smooth="yes"/>
      <point x="1018" y="500" type="line" smooth="yes"/>
      <point x="1004" y="500"/>
      <point x="995" y="510" type="qcurve"/>
      <point x="984" y="519"/>
      <point x="984" y="534" type="qcurve" smooth="yes"/>
    </contour>
  </outline>
</glyph>
<glyph name="uniF010" format="2">
  <advance width="1200"/>
  <unicode hex="E30F"/>
  <note>
uniF010
</note>
  <outline>
    <contour>
      <point x="68" y="392"/>
      <point x="153" y="498"/>
      <point x="218" y="513" type="qcurve"/>
      <point x="236" y="594"/>
      <point x="366" y="698"/>
      <point x="449" y="698" type="qcurve" smooth="yes"/>
      <point x="508" y="698"/>
      <point x="556" y="672" type="qcurve"/>
      <point x="618" y="741"/>
      <point x="709" y="741" type="qcurve" smooth="yes"/>
      <point x="765" y="741"/>
      <point x="861" y="685"/>
      <point x="917" y="589"/>
      <point x="917" y="534" type="qcurve" smooth="yes"/>
      <point x="917" y="459"/>
      <point x="870" y="403" type="qcurve"/>
      <point x="887" y="367"/>
      <point x="887" y="323" type="qcurve" smooth="yes"/>
      <point x="887" y="244"/>
      <point x="777" y="130"/>
      <point x="698" y="128" type="qcurve" smooth="yes"/>
      <point x="691" y="128"/>
      <point x="691" y="134" type="qcurve" smooth="yes"/>
      <point x="691" y="188" type="line" smooth="yes"/>
      <point x="691" y="195"/>
      <point x="698" y="195" type="qcurve"/>
      <point x="750" y="199"/>
      <point x="820" y="273"/>
      <point x="820" y="323" type="qcurve" smooth="yes"/>
      <point x="820" y="376"/>
      <point x="744" y="451"/>
      <point x="691" y="451" type="qcurve" smooth="yes"/>
      <point x="627" y="451" type="line" smooth="yes"/>
      <point x="620" y="451"/>
      <point x="620" y="458" type="qcurve"/>
      <point x="618" y="481" type="line" smooth="yes"/>
      <point x="611" y="545"/>
      <point x="514" y="632"/>
      <point x="449" y="632" type="qcurve" smooth="yes"/>
      <point x="385" y="632"/>
      <point x="288" y="545"/>
      <point x="282" y="481" type="qcurve" smooth="yes"/>
      <point x="280" y="461" type="line"/>
      <point x="280" y="454"/>
      <point x="272" y="454" type="qcurve"/>
      <point x="251" y="451" type="line" smooth="yes"/>
      <point x="202" y="445"/>
      <point x="135" y="373"/>
      <point x="135" y="323" type="qcurve" smooth="yes"/>
      <point x="135" y="279"/>
      <point x="190" y="209"/>
      <point x="233" y="198" type="qcurve"/>
      <point x="275" y="312" type="line"/>
      <point x="278" y="318"/>
      <point x="284" y="318" type="qcurve" smooth="yes"/>
      <point x="400" y="318" type="line" smooth="yes"/>
      <point x="410" y="318"/>
      <point x="406" y="309" type="qcurve" smooth="yes"/>
      <point x="308" y="126" type="line"/>
      <point x="394" y="126" type="line" smooth="yes"/>
      <point x="398" y="126"/>
      <point x="401" y="121"/>
      <point x="399" y="118" type="qcurve" smooth="yes"/>
      <point x="234" y="-95" type="line"/>
      <point x="223" y="-95" type="line"/>
      <point x="272" y="61" type="line"/>
      <point x="188" y="61" type="line" smooth="yes"/>
      <point x="180" y="61"/>
      <point x="183" y="69" type="qcurve" smooth="yes"/>
      <point x="208" y="136" type="line"/>
      <point x="146" y="155"/>
      <point x="68" y="258"/>
      <point x="68" y="323" type="qcurve" smooth="yes"/>
    </contour>
    <contour>
      <point x="387" y="-49"/>
      <point x="388" y="-45" type="qcurve" smooth="yes"/>
      <point x="479" y="295" type="line" smooth="yes"/>
      <point x="483" y="308"/>
      <point x="507" y="322"/>
      <point x="521" y="318" type="qcurve" smooth="yes"/>
      <point x="534" y="313"/>
      <point x="546" y="290"/>
      <point x="543" y="276" type="qcurve" smooth="yes"/>
      <point x="452" y="-62" type="line" smooth="yes"/>
      <point x="449" y="-75"/>
      <point x="429" y="-86"/>
      <point x="419" y="-86" type="qcurve" smooth="yes"/>
      <point x="415" y="-86"/>
      <point x="411" y="-85" type="qcurve" smooth="yes"/>
      <point x="399" y="-81"/>
      <point x="387" y="-64"/>
      <point x="387" y="-55" type="qcurve" smooth="yes"/>
    </contour>
    <contour>
      <point x="420" y="841"/>
      <point x="434" y="841" type="qcurve" smooth="yes"/>
      <point x="448" y="841"/>
      <point x="458" y="832" type="qcurve"/>
      <point x="483" y="806" type="line"/>
      <point x="493" y="797"/>
      <point x="493" y="783" type="qcurve" smooth="yes"/>
      <point x="493" y="768"/>
      <point x="482" y="759" type="qcurve"/>
      <point x="474" y="749"/>
      <point x="445" y="749"/>
      <point x="435" y="759" type="qcurve" smooth="yes"/>
      <point x="410" y="785" type="line" smooth="yes"/>
      <point x="400" y="794"/>
      <point x="400" y="822"/>
    </contour>
    <contour>
      <point x="551" y="67"/>
      <point x="553" y="73"/>
      <point x="553" y="75" type="qcurve"/>
      <point x="612" y="295" type="line" smooth="yes"/>
      <point x="615" y="308"/>
      <point x="639" y="322"/>
      <point x="652" y="318" type="qcurve" smooth="yes"/>
      <point x="666" y="313"/>
      <point x="679" y="291"/>
      <point x="675" y="276" type="qcurve" smooth="yes"/>
      <point x="616" y="57" type="line" smooth="yes"/>
      <point x="612" y="39"/>
      <point x="600" y="34" type="qcurve"/>
      <point x="596" y="32"/>
      <point x="587" y="32" type="qcurve" smooth="yes"/>
      <point x="579" y="32"/>
      <point x="575" y="34" type="qcurve" smooth="yes"/>
      <point x="563" y="39"/>
      <point x="556" y="51" type="qcurve" smooth="yes"/>
      <point x="551" y="59"/>
      <point x="551" y="66" type="qcurve" smooth="yes"/>
    </contour>
    <contour>
      <point x="660" y="589"/>
      <point x="678" y="519" type="qcurve"/>
      <point x="691" y="519" type="line" smooth="yes"/>
      <point x="770" y="519"/>
      <point x="829" y="461" type="qcurve"/>
      <point x="849" y="497"/>
      <point x="849" y="534" type="qcurve" smooth="yes"/>
      <point x="849" y="592"/>
      <point x="767" y="672"/>
      <point x="709" y="672" type="qcurve" smooth="yes"/>
      <point x="651" y="672"/>
      <point x="612" y="634" type="qcurve"/>
    </contour>
    <contour>
      <point x="675" y="923" type="line" smooth="yes"/>
      <point x="675" y="937"/>
      <point x="696" y="957"/>
      <point x="709" y="957" type="qcurve" smooth="yes"/>
      <point x="723" y="957"/>
      <point x="742" y="937"/>
      <point x="742" y="923" type="qcurve" smooth="yes"/>
      <point x="742" y="841" type="line" smooth="yes"/>
      <point x="742" y="827"/>
      <point x="723" y="807"/>
      <point x="709" y="807" type="qcurve" smooth="yes"/>
      <point x="696" y="807"/>
      <point x="675" y="828"/>
      <point x="675" y="841" type="qcurve" smooth="yes"/>
    </contour>
    <contour>
      <point x="904" y="775" type="qcurve"/>
      <point x="961" y="832" type="line" smooth="yes"/>
      <point x="971" y="842"/>
      <point x="984" y="842" type="qcurve" smooth="yes"/>
      <point x="998" y="842"/>
      <point x="1018" y="822"/>
      <point x="1018" y="794"/>
      <point x="1007" y="785" type="qcurve"/>
      <point x="950" y="727" type="line" smooth="yes"/>
      <point x="940" y="717"/>
      <point x="913" y="717"/>
      <point x="904" y="727" type="qcurve"/>
      <point x="894" y="737"/>
      <point x="894" y="766"/>
    </contour>
    <contour>
      <point x="926" y="297"/>
      <point x="945" y="317"/>
      <point x="959" y="317" type="qcurve" smooth="yes"/>
      <point x="972" y="317"/>
      <point x="982" y="306" type="qcurve"/>
      <point x="1007" y="282" type="line" smooth="yes"/>
      <point x="1018" y="272"/>
      <point x="1018" y="258" type="qcurve" smooth="yes"/>
      <point x="1018" y="244"/>
      <point x="1007" y="234" type="qcurve" smooth="yes"/>
      <point x="998" y="224"/>
      <point x="987" y="224" type="qcurve" smooth="yes"/>
      <point x="986" y="224"/>
      <point x="984" y="224"/>
      <point x="983" y="224" type="qcurve"/>
      <point x="983" y="225" type="line"/>
      <point x="969" y="226"/>
      <point x="961" y="234" type="qcurve"/>
      <point x="935" y="259" type="line"/>
      <point x="926" y="269"/>
      <point x="926" y="283" type="qcurve" smooth="yes"/>
    </contour>
    <contour>
      <point x="1003" y="566"/>
      <point x="1018" y="566" type="qcurve" smooth="yes"/>
      <point x="1098" y="566" type="line" smooth="yes"/>
      <point x="1112" y="566"/>
      <point x="1132" y="547"/>
      <point x="1132" y="534" type="qcurve" smooth="yes"/>
      <point x="1132" y="520"/>
      <point x="1112" y="499"/>
      <point x="1098" y="499" type="qcurve" smooth="yes"/>
      <point x="1018" y="499" type="line" smooth="yes"/>
      <point x="1005" y="499"/>
      <point x="994" y="510" type="qcurve" smooth="yes"/>
      <point x="983" y="520"/>
      <point x="983" y="547"/>
    </contour>
  </outline>
</glyph>
<glyph name="uniF011" format="2">
  <advance width="1200"/>
  <unicode hex="E310"/>
  <note>
uniF011
</note>
  <outline>
    <contour>
      <point x="150" y="147"/>
      <point x="170" y="128"/>
      <point x="184" y="128" type="qcurve" smooth="yes"/>
      <point x="398" y="128" type="line" smooth="yes"/>
      <point x="414" y="128"/>
      <point x="437" y="105"/>
      <point x="437" y="89" type="qcurve" smooth="yes"/>
      <point x="437" y="73"/>
      <point x="414" y="51"/>
      <point x="382" y="51"/>
      <point x="371" y="62" type="qcurve" smooth="yes"/>
      <point x="360" y="72"/>
      <point x="347" y="72" type="qcurve" smooth="yes"/>
      <point x="332" y="72"/>
      <point x="314" y="53"/>
      <point x="314" y="24"/>
      <point x="323" y="15" type="qcurve" smooth="yes"/>
      <point x="354" y="-16"/>
      <point x="442" y="-16"/>
      <point x="504" y="45"/>
      <point x="504" y="89" type="qcurve" smooth="yes"/>
      <point x="504" y="133"/>
      <point x="442" y="196"/>
      <point x="398" y="196" type="qcurve" smooth="yes"/>
      <point x="184" y="196" type="line" smooth="yes"/>
      <point x="171" y="196"/>
      <point x="160" y="186" type="qcurve" smooth="yes"/>
      <point x="150" y="176"/>
      <point x="150" y="161" type="qcurve" smooth="yes"/>
    </contour>
    <contour>
      <point x="150" y="268"/>
      <point x="170" y="249"/>
      <point x="184" y="249" type="qcurve" smooth="yes"/>
      <point x="601" y="249" type="line" smooth="yes"/>
      <point x="645" y="249"/>
      <point x="706" y="311"/>
      <point x="706" y="398"/>
      <point x="645" y="459"/>
      <point x="601" y="459" type="qcurve" smooth="yes"/>
      <point x="555" y="459"/>
      <point x="525" y="429" type="qcurve" smooth="yes"/>
      <point x="516" y="420"/>
      <point x="516" y="405" type="qcurve" smooth="yes"/>
      <point x="516" y="391"/>
      <point x="534" y="373"/>
      <point x="563" y="373"/>
      <point x="574" y="382" type="qcurve"/>
      <point x="584" y="393"/>
      <point x="601" y="393" type="qcurve" smooth="yes"/>
      <point x="616" y="393"/>
      <point x="639" y="370"/>
      <point x="639" y="338"/>
      <point x="616" y="315"/>
      <point x="601" y="315" type="qcurve" smooth="yes"/>
      <point x="184" y="315" type="line" smooth="yes"/>
      <point x="171" y="315"/>
      <point x="160" y="306" type="qcurve" smooth="yes"/>
      <point x="150" y="296"/>
      <point x="150" y="281" type="qcurve" smooth="yes"/>
    </contour>
    <contour>
      <point x="235" y="376"/>
      <point x="236" y="378" type="qcurve"/>
      <point x="236" y="379" type="line"/>
      <point x="251" y="430"/>
      <point x="330" y="503"/>
      <point x="380" y="515" type="qcurve"/>
      <point x="398" y="596"/>
      <point x="527" y="700"/>
      <point x="610" y="700" type="qcurve" smooth="yes"/>
      <point x="693" y="700"/>
      <point x="822" y="600"/>
      <point x="840" y="521" type="qcurve"/>
      <point x="852" y="521" type="line" smooth="yes"/>
      <point x="906" y="521"/>
      <point x="997" y="468"/>
      <point x="1050" y="378"/>
      <point x="1050" y="324" type="qcurve" smooth="yes"/>
      <point x="1050" y="271"/>
      <point x="997" y="180"/>
      <point x="906" y="128"/>
      <point x="852" y="128" type="qcurve" smooth="yes"/>
      <point x="579" y="128" type="line" smooth="yes"/>
      <point x="572" y="128"/>
      <point x="572" y="134" type="qcurve" smooth="yes"/>
      <point x="572" y="189" type="line" smooth="yes"/>
      <point x="572" y="196"/>
      <point x="579" y="196" type="qcurve" smooth="yes"/>
      <point x="852" y="196" type="line" smooth="yes"/>
      <point x="906" y="196"/>
      <point x="983" y="271"/>
      <point x="983" y="377"/>
      <point x="906" y="453"/>
      <point x="852" y="453" type="qcurve" smooth="yes"/>
      <point x="788" y="453" type="line" smooth="yes"/>
      <point x="782" y="453"/>
      <point x="782" y="459" type="qcurve"/>
      <point x="779" y="483" type="line" smooth="yes"/>
      <point x="772" y="547"/>
      <point x="676" y="634"/>
      <point x="610" y="634" type="qcurve" smooth="yes"/>
      <point x="545" y="634"/>
      <point x="449" y="547"/>
      <point x="443" y="483" type="qcurve"/>
      <point x="440" y="462" type="line"/>
      <point x="440" y="456"/>
      <point x="432" y="456" type="qcurve"/>
      <point x="411" y="453" type="line"/>
      <point x="377" y="450"/>
      <point x="320" y="408"/>
      <point x="307" y="376" type="qcurve"/>
      <point x="303" y="370"/>
      <point x="298" y="370" type="qcurve" smooth="yes"/>
      <point x="241" y="370" type="line" smooth="yes"/>
      <point x="235" y="370"/>
      <point x="235" y="375" type="qcurve" smooth="yes"/>
    </contour>
  </outline>
</glyph>
<glyph name="uniF012" format="2">
  <advance width="1200"/>
  <unicode hex="E311"/>
  <note>
uniF012
</note>
  <outline>
    <contour>
      <point x="130" y="146"/>
      <point x="150" y="127"/>
      <point x="165" y="127" type="qcurve" smooth="yes"/>
      <point x="519" y="127" type="line" smooth="yes"/>
      <point x="533" y="127"/>
      <point x="552" y="146"/>
      <point x="552" y="160" type="qcurve" smooth="yes"/>
      <point x="552" y="175"/>
      <point x="533" y="194"/>
      <point x="519" y="194" type="qcurve" smooth="yes"/>
      <point x="165" y="194" type="line" smooth="yes"/>
      <point x="150" y="194"/>
      <point x="130" y="175"/>
      <point x="130" y="160" type="qcurve" smooth="yes"/>
    </contour>
    <contour>
      <point x="234" y="267"/>
      <point x="254" y="247"/>
      <point x="268" y="247" type="qcurve" smooth="yes"/>
      <point x="624" y="247" type="line" smooth="yes"/>
      <point x="637" y="247"/>
      <point x="655" y="267"/>
      <point x="655" y="295"/>
      <point x="637" y="313"/>
      <point x="624" y="313" type="qcurve" smooth="yes"/>
      <point x="268" y="313" type="line" smooth="yes"/>
      <point x="253" y="313"/>
      <point x="245" y="305" type="qcurve" smooth="yes"/>
      <point x="234" y="295"/>
      <point x="234" y="281" type="qcurve" smooth="yes"/>
    </contour>
    <contour>
      <point x="258" y="375"/>
      <point x="259" y="376" type="qcurve"/>
      <point x="259" y="377" type="line"/>
      <point x="274" y="428"/>
      <point x="351" y="501"/>
      <point x="402" y="512" type="qcurve"/>
      <point x="420" y="594"/>
      <point x="549" y="699"/>
      <point x="633" y="699" type="qcurve" smooth="yes"/>
      <point x="715" y="699"/>
      <point x="842" y="597"/>
      <point x="862" y="518" type="qcurve"/>
      <point x="874" y="518" type="line" smooth="yes"/>
      <point x="927" y="518"/>
      <point x="1018" y="466"/>
      <point x="1070" y="376"/>
      <point x="1070" y="322" type="qcurve" smooth="yes"/>
      <point x="1070" y="283"/>
      <point x="1039" y="211"/>
      <point x="987" y="158"/>
      <point x="914" y="127"/>
      <point x="874" y="127" type="qcurve" smooth="yes"/>
      <point x="602" y="127" type="line" smooth="yes"/>
      <point x="595" y="127"/>
      <point x="595" y="134" type="qcurve" smooth="yes"/>
      <point x="595" y="187" type="line" smooth="yes"/>
      <point x="595" y="194"/>
      <point x="602" y="194" type="qcurve" smooth="yes"/>
      <point x="874" y="194" type="line" smooth="yes"/>
      <point x="926" y="194"/>
      <point x="1003" y="271"/>
      <point x="1003" y="322" type="qcurve" smooth="yes"/>
      <point x="1003" y="376"/>
      <point x="927" y="452"/>
      <point x="874" y="452" type="qcurve" smooth="yes"/>
      <point x="810" y="452" type="line" smooth="yes"/>
      <point x="803" y="452"/>
      <point x="803" y="458" type="qcurve"/>
      <point x="800" y="481" type="line" smooth="yes"/>
      <point x="792" y="546"/>
      <point x="698" y="630"/>
      <point x="633" y="630" type="qcurve" smooth="yes"/>
      <point x="568" y="630"/>
      <point x="471" y="545"/>
      <point x="465" y="480" type="qcurve" smooth="yes"/>
      <point x="462" y="460" type="line"/>
      <point x="462" y="453"/>
      <point x="455" y="453" type="qcurve"/>
      <point x="434" y="450" type="line" smooth="yes"/>
      <point x="400" y="448"/>
      <point x="344" y="405"/>
      <point x="331" y="373" type="qcurve"/>
      <point x="327" y="368"/>
      <point x="321" y="368" type="qcurve" smooth="yes"/>
      <point x="265" y="368" type="line" smooth="yes"/>
      <point x="258" y="368"/>
      <point x="258" y="373" type="qcurve" smooth="yes"/>
    </contour>
    <contour>
      <point x="304" y="24"/>
      <point x="324" y="4"/>
      <point x="337" y="4" type="qcurve" smooth="yes"/>
      <point x="692" y="4" type="line" smooth="yes"/>
      <point x="706" y="4"/>
      <point x="726" y="24"/>
      <point x="726" y="52"/>
      <point x="707" y="71"/>
      <point x="692" y="71" type="qcurve" smooth="yes"/>
      <point x="337" y="71" type="line" smooth="yes"/>
      <point x="323" y="71"/>
      <point x="314" y="62" type="qcurve" smooth="yes"/>
      <point x="304" y="52"/>
      <point x="304" y="38" type="qcurve" smooth="yes"/>
    </contour>
  </outline>
</glyph>
<glyph name="uniF013" format="2">
  <advance width="1200"/>
  <unicode hex="E312"/>
  <note>
uniF013
</note>
  <outline>
    <contour>
      <point x="161" y="262"/>
      <point x="188" y="199"/>
      <point x="233" y="154"/>
      <point x="296" y="128"/>
      <point x="330" y="128" type="qcurve" smooth="yes"/>
      <point x="696" y="128" type="line" smooth="yes"/>
      <point x="766" y="128"/>
      <point x="864" y="226"/>
      <point x="864" y="366"/>
      <point x="766" y="464"/>
      <point x="696" y="464" type="qcurve" smooth="yes"/>
      <point x="686" y="464" type="line"/>
      <point x="669" y="531"/>
      <point x="559" y="617"/>
      <point x="489" y="617" type="qcurve" smooth="yes"/>
      <point x="417" y="617"/>
      <point x="307" y="529"/>
      <point x="292" y="459" type="qcurve"/>
      <point x="235" y="446"/>
      <point x="161" y="355"/>
      <point x="161" y="296" type="qcurve" smooth="yes"/>
    </contour>
    <contour>
      <point x="219" y="339"/>
      <point x="276" y="402"/>
      <point x="319" y="406" type="qcurve"/>
      <point x="337" y="408" type="line"/>
      <point x="343" y="408"/>
      <point x="343" y="414" type="qcurve"/>
      <point x="346" y="431" type="line"/>
      <point x="351" y="486"/>
      <point x="433" y="560"/>
      <point x="545" y="560"/>
      <point x="627" y="487"/>
      <point x="633" y="431" type="qcurve" smooth="yes"/>
      <point x="636" y="412" type="line"/>
      <point x="636" y="406"/>
      <point x="641" y="406" type="qcurve" smooth="yes"/>
      <point x="696" y="406" type="line" smooth="yes"/>
      <point x="742" y="406"/>
      <point x="807" y="341"/>
      <point x="807" y="251"/>
      <point x="742" y="186"/>
      <point x="696" y="186" type="qcurve" smooth="yes"/>
      <point x="330" y="186" type="line" smooth="yes"/>
      <point x="284" y="186"/>
      <point x="219" y="251"/>
      <point x="219" y="296" type="qcurve" smooth="yes"/>
    </contour>
    <contour>
      <point x="623" y="703"/>
      <point x="706" y="703" type="qcurve" smooth="yes"/>
      <point x="767" y="703"/>
      <point x="866" y="626"/>
      <point x="882" y="567" type="qcurve"/>
      <point x="888" y="567" type="line" smooth="yes"/>
      <point x="950" y="567"/>
      <point x="1039" y="479"/>
      <point x="1039" y="416" type="qcurve" smooth="yes"/>
      <point x="1039" y="357"/>
      <point x="957" y="270"/>
      <point x="897" y="266" type="qcurve" smooth="yes"/>
      <point x="891" y="266"/>
      <point x="891" y="273" type="qcurve" smooth="yes"/>
      <point x="891" y="318" type="line" smooth="yes"/>
      <point x="891" y="324"/>
      <point x="897" y="324" type="qcurve"/>
      <point x="933" y="328"/>
      <point x="982" y="381"/>
      <point x="982" y="416" type="qcurve" smooth="yes"/>
      <point x="982" y="454"/>
      <point x="926" y="509"/>
      <point x="888" y="509" type="qcurve" smooth="yes"/>
      <point x="832" y="509" type="line"/>
      <point x="828" y="535" type="line"/>
      <point x="824" y="582"/>
      <point x="754" y="646"/>
      <point x="658" y="646"/>
      <point x="623" y="612" type="qcurve"/>
      <point x="620" y="609"/>
      <point x="614" y="610" type="qcurve"/>
      <point x="597" y="621"/>
      <point x="571" y="632" type="qcurve"/>
      <point x="562" y="635"/>
      <point x="568" y="640" type="qcurve"/>
    </contour>
  </outline>
</glyph>
<glyph name="uniF014" format="2">
  <advance width="1200"/>
  <unicode hex="E313"/>
  <note>
uniF014
</note>
  <outline>
    <contour>
      <point x="111" y="146"/>
      <point x="131" y="128"/>
      <point x="146" y="128" type="qcurve" smooth="yes"/>
      <point x="883" y="128" type="line" smooth="yes"/>
      <point x="897" y="128"/>
      <point x="917" y="146"/>
      <point x="917" y="160" type="qcurve" smooth="yes"/>
      <point x="917" y="175"/>
      <point x="898" y="194"/>
      <point x="883" y="194" type="qcurve" smooth="yes"/>
      <point x="146" y="194" type="line" smooth="yes"/>
      <point x="131" y="194"/>
      <point x="111" y="174"/>
      <point x="111" y="160" type="qcurve" smooth="yes"/>
    </contour>
    <contour>
      <point x="214" y="270"/>
      <point x="234" y="250"/>
      <point x="248" y="250" type="qcurve" smooth="yes"/>
      <point x="986" y="250" type="line" smooth="yes"/>
      <point x="999" y="250"/>
      <point x="1018" y="270"/>
      <point x="1018" y="284" type="qcurve" smooth="yes"/>
      <point x="1018" y="298"/>
      <point x="999" y="316"/>
      <point x="986" y="316" type="qcurve" smooth="yes"/>
      <point x="248" y="316" type="line" smooth="yes"/>
      <point x="234" y="316"/>
      <point x="225" y="308" type="qcurve" smooth="yes"/>
      <point x="214" y="298"/>
      <point x="214" y="284" type="qcurve" smooth="yes"/>
    </contour>
    <contour>
      <point x="220" y="381"/>
      <point x="220" y="382" type="qcurve"/>
      <point x="220" y="380" type="line"/>
      <point x="235" y="430"/>
      <point x="311" y="502"/>
      <point x="361" y="514" type="qcurve"/>
      <point x="379" y="595"/>
      <point x="508" y="699"/>
      <point x="591" y="699" type="qcurve" smooth="yes"/>
      <point x="672" y="699"/>
      <point x="798" y="598"/>
      <point x="818" y="519" type="qcurve"/>
      <point x="830" y="519" type="line" smooth="yes"/>
      <point x="896" y="519"/>
      <point x="999" y="442"/>
      <point x="1017" y="382" type="qcurve"/>
      <point x="1018" y="373"/>
      <point x="1011" y="373" type="qcurve" smooth="yes"/>
      <point x="955" y="373" type="line" smooth="yes"/>
      <point x="950" y="373"/>
      <point x="946" y="379" type="qcurve"/>
      <point x="931" y="413"/>
      <point x="869" y="453"/>
      <point x="830" y="453" type="qcurve" smooth="yes"/>
      <point x="768" y="453" type="line" smooth="yes"/>
      <point x="760" y="453"/>
      <point x="760" y="460" type="qcurve"/>
      <point x="757" y="483" type="line" smooth="yes"/>
      <point x="750" y="546"/>
      <point x="655" y="631"/>
      <point x="591" y="631" type="qcurve" smooth="yes"/>
      <point x="527" y="631"/>
      <point x="431" y="545"/>
      <point x="424" y="481" type="qcurve" smooth="yes"/>
      <point x="422" y="462" type="line"/>
      <point x="422" y="455"/>
      <point x="415" y="455" type="qcurve"/>
      <point x="393" y="452" type="line"/>
      <point x="360" y="449"/>
      <point x="304" y="410"/>
      <point x="290" y="379" type="qcurve"/>
      <point x="286" y="373"/>
      <point x="282" y="373" type="qcurve" smooth="yes"/>
      <point x="225" y="373" type="line" smooth="yes"/>
      <point x="220" y="373"/>
      <point x="220" y="378" type="qcurve" smooth="yes"/>
    </contour>
    <contour>
      <point x="283" y="25"/>
      <point x="304" y="5"/>
      <point x="317" y="5" type="qcurve" smooth="yes"/>
      <point x="1055" y="5" type="line" smooth="yes"/>
      <point x="1069" y="5"/>
      <point x="1089" y="25"/>
      <point x="1089" y="39" type="qcurve" smooth="yes"/>
      <point x="1089" y="52"/>
      <point x="1069" y="71"/>
      <point x="1055" y="71" type="qcurve" smooth="yes"/>
      <point x="317" y="71" type="line" smooth="yes"/>
      <point x="303" y="71"/>
      <point x="294" y="62" type="qcurve" smooth="yes"/>
      <point x="283" y="53"/>
      <point x="283" y="39" type="qcurve" smooth="yes"/>
    </contour>
  </outline>
</glyph>
<glyph name="uniF015" format="2">
  <advance width="1200"/>
  <unicode hex="E314"/>
  <note>
uniF015
</note>
  <outline>
    <contour>
      <point x="191" y="392"/>
      <point x="276" y="498"/>
      <point x="341" y="513" type="qcurve"/>
      <point x="359" y="594"/>
      <point x="489" y="697"/>
      <point x="572" y="697" type="qcurve" smooth="yes"/>
      <point x="654" y="697"/>
      <point x="781" y="596"/>
      <point x="801" y="517" type="qcurve"/>
      <point x="813" y="517" type="line" smooth="yes"/>
      <point x="866" y="517"/>
      <point x="957" y="466"/>
      <point x="1009" y="376"/>
      <point x="1009" y="323" type="qcurve" smooth="yes"/>
      <point x="1009" y="272"/>
      <point x="959" y="182"/>
      <point x="873" y="129"/>
      <point x="821" y="128" type="qcurve" smooth="yes"/>
      <point x="813" y="128"/>
      <point x="813" y="134" type="qcurve" smooth="yes"/>
      <point x="813" y="187" type="line" smooth="yes"/>
      <point x="813" y="194"/>
      <point x="821" y="194" type="qcurve" smooth="yes"/>
      <point x="871" y="196"/>
      <point x="943" y="272"/>
      <point x="943" y="323" type="qcurve" smooth="yes"/>
      <point x="943" y="375"/>
      <point x="866" y="451"/>
      <point x="813" y="451" type="qcurve" smooth="yes"/>
      <point x="750" y="451" type="line" smooth="yes"/>
      <point x="743" y="451"/>
      <point x="743" y="458" type="qcurve"/>
      <point x="740" y="480" type="line" smooth="yes"/>
      <point x="733" y="545"/>
      <point x="637" y="631"/>
      <point x="572" y="631" type="qcurve" smooth="yes"/>
      <point x="507" y="631"/>
      <point x="412" y="545"/>
      <point x="405" y="480" type="qcurve" smooth="yes"/>
      <point x="403" y="459" type="line"/>
      <point x="403" y="452"/>
      <point x="395" y="452" type="qcurve" smooth="yes"/>
      <point x="374" y="451" type="line"/>
      <point x="325" y="445"/>
      <point x="258" y="372"/>
      <point x="258" y="323" type="qcurve" smooth="yes"/>
      <point x="258" y="272"/>
      <point x="329" y="196"/>
      <point x="380" y="194" type="qcurve" smooth="yes"/>
      <point x="387" y="194"/>
      <point x="387" y="187" type="qcurve" smooth="yes"/>
      <point x="387" y="134" type="line" smooth="yes"/>
      <point x="387" y="128"/>
      <point x="380" y="128" type="qcurve" smooth="yes"/>
      <point x="301" y="131"/>
      <point x="191" y="245"/>
      <point x="191" y="323" type="qcurve" smooth="yes"/>
    </contour>
    <contour>
      <point x="401" y="54"/>
      <point x="407" y="63" type="qcurve"/>
      <point x="413" y="77"/>
      <point x="437" y="87"/>
      <point x="449" y="81" type="qcurve"/>
      <point x="462" y="76"/>
      <point x="472" y="51"/>
      <point x="466" y="38" type="qcurve" smooth="yes"/>
      <point x="462" y="25"/>
      <point x="436" y="15"/>
      <point x="424" y="21" type="qcurve" smooth="yes"/>
      <point x="412" y="27"/>
      <point x="406" y="39" type="qcurve"/>
    </contour>
    <contour>
      <point x="431" y="152"/>
      <point x="433" y="161" type="qcurve" smooth="yes"/>
      <point x="467" y="295" type="line"/>
      <point x="471" y="306"/>
      <point x="489" y="318"/>
      <point x="499" y="318" type="qcurve" smooth="yes"/>
      <point x="504" y="318"/>
      <point x="509" y="317" type="qcurve" smooth="yes"/>
      <point x="523" y="315"/>
      <point x="536" y="291"/>
      <point x="533" y="276" type="qcurve" smooth="yes"/>
      <point x="497" y="143" type="line" smooth="yes"/>
      <point x="493" y="125"/>
      <point x="467" y="113"/>
      <point x="455" y="120" type="qcurve"/>
      <point x="443" y="124"/>
      <point x="431" y="141"/>
      <point x="431" y="151" type="qcurve" smooth="yes"/>
    </contour>
    <contour>
      <point x="504" y="-62"/>
      <point x="514" y="-43"/>
      <point x="526" y="-38" type="qcurve" smooth="yes"/>
      <point x="539" y="-33"/>
      <point x="562" y="-43"/>
      <point x="574" y="-69"/>
      <point x="562" y="-95"/>
      <point x="549" y="-100" type="qcurve"/>
      <point x="541" y="-102"/>
      <point x="537" y="-102" type="qcurve" smooth="yes"/>
      <point x="530" y="-102"/>
      <point x="524" y="-99" type="qcurve"/>
      <point x="512" y="-95"/>
      <point x="507" y="-82" type="qcurve" smooth="yes"/>
      <point x="504" y="-77"/>
      <point x="504" y="-70" type="qcurve" smooth="yes"/>
    </contour>
    <contour>
      <point x="533" y="37"/>
      <point x="535" y="45" type="qcurve"/>
      <point x="602" y="295" type="line"/>
      <point x="604" y="306"/>
      <point x="623" y="318"/>
      <point x="633" y="318" type="qcurve" smooth="yes"/>
      <point x="639" y="318"/>
      <point x="644" y="317" type="qcurve" smooth="yes"/>
      <point x="657" y="313"/>
      <point x="669" y="291"/>
      <point x="666" y="276" type="qcurve" smooth="yes"/>
      <point x="600" y="28" type="line" smooth="yes"/>
      <point x="595" y="10"/>
      <point x="583" y="5" type="qcurve" smooth="yes"/>
      <point x="577" y="2"/>
      <point x="568" y="2" type="qcurve" smooth="yes"/>
      <point x="565" y="2"/>
      <point x="558" y="4" type="qcurve" smooth="yes"/>
      <point x="533" y="11"/>
      <point x="533" y="33" type="qcurve" smooth="yes"/>
    </contour>
    <contour>
      <point x="669" y="58"/>
      <point x="672" y="63" type="qcurve" smooth="yes"/>
      <point x="678" y="77"/>
      <point x="703" y="87"/>
      <point x="716" y="81" type="qcurve" smooth="yes"/>
      <point x="728" y="75"/>
      <point x="737" y="51"/>
      <point x="733" y="38" type="qcurve"/>
      <point x="727" y="25"/>
      <point x="715" y="21" type="qcurve"/>
      <point x="707" y="18"/>
      <point x="703" y="18" type="qcurve" smooth="yes"/>
      <point x="696" y="18"/>
      <point x="689" y="21" type="qcurve" smooth="yes"/>
      <point x="677" y="27"/>
      <point x="672" y="38" type="qcurve"/>
      <point x="669" y="44"/>
      <point x="669" y="51" type="qcurve" smooth="yes"/>
    </contour>
    <contour>
      <point x="698" y="162" type="line"/>
      <point x="734" y="295" type="line" smooth="yes"/>
      <point x="737" y="307"/>
      <point x="755" y="318"/>
      <point x="765" y="318" type="qcurve" smooth="yes"/>
      <point x="770" y="318"/>
      <point x="775" y="317" type="qcurve" smooth="yes"/>
      <point x="787" y="314"/>
      <point x="799" y="296"/>
      <point x="799" y="287" type="qcurve" smooth="yes"/>
      <point x="799" y="286"/>
      <point x="798" y="276" type="qcurve"/>
      <point x="763" y="145" type="line" smooth="yes"/>
      <point x="758" y="129"/>
      <point x="747" y="124" type="qcurve" smooth="yes"/>
      <point x="738" y="120"/>
      <point x="732" y="120" type="qcurve" smooth="yes"/>
      <point x="731" y="120"/>
      <point x="721" y="122" type="qcurve"/>
      <point x="710" y="125"/>
      <point x="697" y="144"/>
      <point x="697" y="152" type="qcurve"/>
    </contour>
  </outline>
</glyph>
<glyph name="uniF016" format="2">
  <advance width="1200"/>
  <unicode hex="E315"/>
  <note>
uniF016
</note>
  <outline>
    <contour>
      <point x="447" y="352" type="line"/>
      <point x="338" y="352" type="line" smooth="yes"/>
      <point x="329" y="352"/>
      <point x="331" y="363" type="qcurve"/>
      <point x="440" y="655" type="line"/>
      <point x="446" y="662"/>
      <point x="452" y="662" type="qcurve" smooth="yes"/>
      <point x="602" y="662" type="line" smooth="yes"/>
      <point x="615" y="662"/>
      <point x="610" y="651" type="qcurve"/>
      <point x="492" y="436" type="line"/>
      <point x="604" y="436" type="line" smooth="yes"/>
      <point x="615" y="436"/>
      <point x="610" y="425" type="qcurve"/>
      <point x="338" y="23" type="line"/>
      <point x="323" y="23" type="line"/>
    </contour>
    <contour>
      <point x="753" y="523" type="line"/>
      <point x="672" y="523" type="line" smooth="yes"/>
      <point x="667" y="523"/>
      <point x="663" y="529"/>
      <point x="664" y="534" type="qcurve" smooth="yes"/>
      <point x="747" y="750" type="line"/>
      <point x="751" y="758"/>
      <point x="758" y="758" type="qcurve" smooth="yes"/>
      <point x="867" y="758" type="line" smooth="yes"/>
      <point x="881" y="758"/>
      <point x="874" y="746" type="qcurve" smooth="yes"/>
      <point x="787" y="587" type="line"/>
      <point x="870" y="587" type="line" smooth="yes"/>
      <point x="875" y="587"/>
      <point x="878" y="581"/>
      <point x="875" y="576" type="qcurve" smooth="yes"/>
      <point x="669" y="273" type="line"/>
      <point x="658" y="273" type="line"/>
    </contour>
  </outline>
</glyph>
<glyph name="uniF017" format="2">
  <advance width="1200"/>
  <unicode hex="E316"/>
  <note>
uniF017
</note>
  <outline>
    <contour>
      <point x="191" y="390"/>
      <point x="275" y="496"/>
      <point x="341" y="513" type="qcurve"/>
      <point x="360" y="593"/>
      <point x="489" y="697"/>
      <point x="572" y="697" type="qcurve" smooth="yes"/>
      <point x="654" y="697"/>
      <point x="781" y="596"/>
      <point x="801" y="516" type="qcurve"/>
      <point x="813" y="516" type="line" smooth="yes"/>
      <point x="866" y="516"/>
      <point x="956" y="464"/>
      <point x="1009" y="374"/>
      <point x="1009" y="321" type="qcurve" smooth="yes"/>
      <point x="1009" y="243"/>
      <point x="900" y="130"/>
      <point x="821" y="127" type="qcurve" smooth="yes"/>
      <point x="813" y="127"/>
      <point x="813" y="134" type="qcurve" smooth="yes"/>
      <point x="813" y="186" type="line" smooth="yes"/>
      <point x="813" y="194"/>
      <point x="821" y="194" type="qcurve" smooth="yes"/>
      <point x="871" y="196"/>
      <point x="943" y="271"/>
      <point x="943" y="321" type="qcurve" smooth="yes"/>
      <point x="943" y="374"/>
      <point x="866" y="450"/>
      <point x="813" y="450" type="qcurve" smooth="yes"/>
      <point x="750" y="450" type="line" smooth="yes"/>
      <point x="742" y="450"/>
      <point x="742" y="457" type="qcurve"/>
      <point x="740" y="480" type="line" smooth="yes"/>
      <point x="733" y="544"/>
      <point x="636" y="630"/>
      <point x="572" y="630" type="qcurve" smooth="yes"/>
      <point x="507" y="630"/>
      <point x="411" y="543"/>
      <point x="405" y="478" type="qcurve"/>
      <point x="402" y="459" type="line"/>
      <point x="402" y="452"/>
      <point x="395" y="452" type="qcurve"/>
      <point x="374" y="449" type="line"/>
      <point x="325" y="445"/>
      <point x="258" y="371"/>
      <point x="258" y="321" type="qcurve" smooth="yes"/>
      <point x="258" y="271"/>
      <point x="330" y="196"/>
      <point x="380" y="194" type="qcurve" smooth="yes"/>
      <point x="387" y="194"/>
      <point x="387" y="186" type="qcurve" smooth="yes"/>
      <point x="387" y="134" type="line" smooth="yes"/>
      <point x="387" y="127"/>
      <point x="380" y="127" type="qcurve" smooth="yes"/>
      <point x="301" y="130"/>
      <point x="191" y="243"/>
      <point x="191" y="321" type="qcurve" smooth="yes"/>
    </contour>
    <contour>
      <point x="405" y="49"/>
      <point x="405" y="51" type="qcurve" smooth="yes"/>
      <point x="411" y="75" type="line" smooth="yes"/>
      <point x="415" y="89"/>
      <point x="439" y="103"/>
      <point x="452" y="99" type="qcurve" smooth="yes"/>
      <point x="466" y="95"/>
      <point x="479" y="71"/>
      <point x="476" y="58" type="qcurve" smooth="yes"/>
      <point x="471" y="34" type="line" smooth="yes"/>
      <point x="467" y="17"/>
      <point x="444" y="6"/>
      <point x="430" y="10" type="qcurve" smooth="yes"/>
      <point x="418" y="14"/>
      <point x="405" y="34"/>
      <point x="405" y="44" type="qcurve" smooth="yes"/>
    </contour>
    <contour>
      <point x="435" y="172"/>
      <point x="453" y="191"/>
      <point x="467" y="191" type="qcurve" smooth="yes"/>
      <point x="481" y="191"/>
      <point x="500" y="172"/>
      <point x="500" y="145"/>
      <point x="481" y="126"/>
      <point x="467" y="126" type="qcurve" smooth="yes"/>
      <point x="454" y="126"/>
      <point x="445" y="136" type="qcurve" smooth="yes"/>
      <point x="435" y="146"/>
      <point x="435" y="158" type="qcurve" smooth="yes"/>
    </contour>
    <contour>
      <point x="459" y="251"/>
      <point x="460" y="258"/>
      <point x="460" y="259" type="qcurve"/>
      <point x="470" y="295" type="line" smooth="yes"/>
      <point x="474" y="308"/>
      <point x="498" y="321"/>
      <point x="511" y="317" type="qcurve" smooth="yes"/>
      <point x="525" y="313"/>
      <point x="539" y="291"/>
      <point x="535" y="276" type="qcurve" smooth="yes"/>
      <point x="524" y="241" type="line" smooth="yes"/>
      <point x="520" y="227"/>
      <point x="495" y="214"/>
      <point x="483" y="218" type="qcurve" smooth="yes"/>
      <point x="470" y="222"/>
      <point x="458" y="239"/>
      <point x="459" y="248" type="qcurve" smooth="yes"/>
    </contour>
    <contour>
      <point x="505" y="-76"/>
      <point x="506" y="-70" type="qcurve" smooth="yes"/>
      <point x="511" y="-47" type="line" smooth="yes"/>
      <point x="515" y="-34"/>
      <point x="540" y="-20"/>
      <point x="552" y="-24" type="qcurve"/>
      <point x="566" y="-27"/>
      <point x="580" y="-50"/>
      <point x="576" y="-66" type="qcurve" smooth="yes"/>
      <point x="571" y="-89" type="line" smooth="yes"/>
      <point x="565" y="-113"/>
      <point x="540" y="-113" type="qcurve" smooth="yes"/>
      <point x="535" y="-113"/>
      <point x="530" y="-112" type="qcurve" smooth="yes"/>
      <point x="517" y="-108"/>
      <point x="505" y="-90"/>
      <point x="505" y="-79" type="qcurve" smooth="yes"/>
    </contour>
    <contour>
      <point x="535" y="49"/>
      <point x="554" y="68"/>
      <point x="582" y="68"/>
      <point x="601" y="49"/>
      <point x="601" y="35" type="qcurve" smooth="yes"/>
      <point x="601" y="21"/>
      <point x="582" y="3"/>
      <point x="568" y="3" type="qcurve" smooth="yes"/>
      <point x="555" y="3"/>
      <point x="545" y="12" type="qcurve" smooth="yes"/>
      <point x="535" y="22"/>
      <point x="535" y="35" type="qcurve" smooth="yes"/>
    </contour>
    <contour>
      <point x="560" y="131"/>
      <point x="561" y="136" type="qcurve" smooth="yes"/>
      <point x="570" y="171" type="line" smooth="yes"/>
      <point x="574" y="185"/>
      <point x="599" y="199"/>
      <point x="612" y="195" type="qcurve" smooth="yes"/>
      <point x="626" y="191"/>
      <point x="639" y="168"/>
      <point x="635" y="155" type="qcurve" smooth="yes"/>
      <point x="625" y="119" type="line" smooth="yes"/>
      <point x="620" y="103"/>
      <point x="597" y="91"/>
      <point x="583" y="95" type="qcurve" smooth="yes"/>
      <point x="571" y="97"/>
      <point x="559" y="116"/>
      <point x="560" y="125" type="qcurve" smooth="yes"/>
    </contour>
    <contour>
      <point x="669" y="42"/>
      <point x="671" y="49"/>
      <point x="671" y="50" type="qcurve"/>
      <point x="674" y="74" type="line"/>
      <point x="678" y="88"/>
      <point x="702" y="101"/>
      <point x="717" y="98" type="qcurve" smooth="yes"/>
      <point x="731" y="94"/>
      <point x="744" y="69"/>
      <point x="740" y="57" type="qcurve"/>
      <point x="734" y="33" type="line" smooth="yes"/>
      <point x="728" y="7"/>
      <point x="704" y="7" type="qcurve" smooth="yes"/>
      <point x="702" y="7"/>
      <point x="695" y="8"/>
      <point x="693" y="8" type="qcurve"/>
      <point x="681" y="12"/>
      <point x="669" y="31"/>
      <point x="669" y="40" type="qcurve" smooth="yes"/>
    </contour>
    <contour>
      <point x="698" y="171"/>
      <point x="717" y="189"/>
      <point x="745" y="189"/>
      <point x="763" y="171"/>
      <point x="763" y="157" type="qcurve" smooth="yes"/>
      <point x="763" y="143"/>
      <point x="745" y="125"/>
      <point x="731" y="125" type="qcurve" smooth="yes"/>
      <point x="717" y="125"/>
      <point x="708" y="134" type="qcurve" smooth="yes"/>
      <point x="698" y="144"/>
      <point x="698" y="157" type="qcurve" smooth="yes"/>
    </contour>
    <contour>
      <point x="722" y="250"/>
      <point x="724" y="256"/>
      <point x="724" y="258" type="qcurve"/>
      <point x="735" y="294" type="line" smooth="yes"/>
      <point x="739" y="307"/>
      <point x="762" y="320"/>
      <point x="776" y="316" type="qcurve" smooth="yes"/>
      <point x="789" y="312"/>
      <point x="802" y="288"/>
      <point x="799" y="275" type="qcurve" smooth="yes"/>
      <point x="789" y="239" type="line" smooth="yes"/>
      <point x="785" y="225"/>
      <point x="773" y="219" type="qcurve" smooth="yes"/>
      <point x="765" y="215"/>
      <point x="759" y="215" type="qcurve" smooth="yes"/>
      <point x="757" y="215"/>
      <point x="749" y="216"/>
      <point x="748" y="216" type="qcurve"/>
      <point x="735" y="220"/>
      <point x="722" y="238"/>
      <point x="722" y="248" type="qcurve" smooth="yes"/>
    </contour>
  </outline>
</glyph>
<glyph name="uniF018" format="2">
  <advance width="1200"/>
  <unicode hex="E317"/>
  <note>
uniF018
</note>
  <outline>
    <contour>
      <point x="190" y="391"/>
      <point x="274" y="498"/>
      <point x="341" y="512" type="qcurve"/>
      <point x="352" y="566"/>
      <point x="419" y="650"/>
      <point x="516" y="697"/>
      <point x="571" y="697" type="qcurve" smooth="yes"/>
      <point x="654" y="697"/>
      <point x="783" y="597"/>
      <point x="802" y="518" type="qcurve"/>
      <point x="815" y="518" type="line" smooth="yes"/>
      <point x="855" y="518"/>
      <point x="927" y="487"/>
      <point x="979" y="435"/>
      <point x="1010" y="362"/>
      <point x="1010" y="322" type="qcurve" smooth="yes"/>
      <point x="1010" y="247"/>
      <point x="908" y="135"/>
      <point x="835" y="127" type="qcurve"/>
      <point x="751" y="31" type="line"/>
      <point x="743" y="17"/>
      <point x="727" y="17" type="qcurve" smooth="yes"/>
      <point x="711" y="17"/>
      <point x="705" y="25" type="qcurve"/>
      <point x="694" y="33"/>
      <point x="690" y="61"/>
      <point x="699" y="72" type="qcurve" smooth="yes"/>
      <point x="792" y="182" type="line"/>
      <point x="797" y="190"/>
      <point x="808" y="191" type="qcurve" smooth="yes"/>
      <point x="821" y="194"/>
      <point x="828" y="194" type="qcurve"/>
      <point x="876" y="199"/>
      <point x="943" y="273"/>
      <point x="943" y="322" type="qcurve" smooth="yes"/>
      <point x="943" y="375"/>
      <point x="868" y="450"/>
      <point x="815" y="450" type="qcurve" smooth="yes"/>
      <point x="751" y="450" type="line" smooth="yes"/>
      <point x="744" y="450"/>
      <point x="742" y="457" type="qcurve"/>
      <point x="739" y="480" type="line" smooth="yes"/>
      <point x="733" y="544"/>
      <point x="637" y="630"/>
      <point x="571" y="630" type="qcurve" smooth="yes"/>
      <point x="507" y="630"/>
      <point x="412" y="545"/>
      <point x="404" y="480" type="qcurve" smooth="yes"/>
      <point x="401" y="458" type="line"/>
      <point x="401" y="453"/>
      <point x="395" y="453" type="qcurve"/>
      <point x="374" y="450" type="line" smooth="yes"/>
      <point x="325" y="446"/>
      <point x="258" y="372"/>
      <point x="258" y="322" type="qcurve" smooth="yes"/>
      <point x="258" y="269"/>
      <point x="333" y="194"/>
      <point x="385" y="194" type="qcurve"/>
      <point x="339" y="137" type="line"/>
      <point x="335" y="133"/>
      <point x="330" y="134" type="qcurve"/>
      <point x="268" y="153"/>
      <point x="190" y="256"/>
      <point x="190" y="322" type="qcurve" smooth="yes"/>
    </contour>
    <contour>
      <point x="324" y="12"/>
      <point x="327" y="19" type="qcurve" smooth="yes"/>
      <point x="333" y="32"/>
      <point x="357" y="42"/>
      <point x="370" y="36" type="qcurve"/>
      <point x="383" y="32"/>
      <point x="394" y="7"/>
      <point x="388" y="-6" type="qcurve" smooth="yes"/>
      <point x="383" y="-19"/>
      <point x="356" y="-29"/>
      <point x="343" y="-23" type="qcurve" smooth="yes"/>
      <point x="331" y="-19"/>
      <point x="326" y="-6" type="qcurve"/>
      <point x="324" y="2"/>
      <point x="324" y="6" type="qcurve" smooth="yes"/>
    </contour>
    <contour>
      <point x="397" y="115"/>
      <point x="404" y="123" type="qcurve" smooth="yes"/>
      <point x="497" y="233" type="line" smooth="yes"/>
      <point x="506" y="243"/>
      <point x="520" y="246" type="qcurve" smooth="yes"/>
      <point x="522" y="246"/>
      <point x="525" y="246" type="qcurve" smooth="yes"/>
      <point x="536" y="246"/>
      <point x="555" y="229"/>
      <point x="557" y="216" type="qcurve" smooth="yes"/>
      <point x="557" y="201"/>
      <point x="549" y="191" type="qcurve" smooth="yes"/>
      <point x="457" y="81" type="line" smooth="yes"/>
      <point x="446" y="68"/>
      <point x="433" y="68" type="qcurve" smooth="yes"/>
      <point x="422" y="68"/>
      <point x="409" y="76" type="qcurve"/>
      <point x="398" y="85"/>
      <point x="397" y="98" type="qcurve" smooth="yes"/>
      <point x="397" y="102" type="line" smooth="yes"/>
    </contour>
    <contour>
      <point x="430" y="-72" type="qcurve"/>
      <point x="434" y="-59"/>
      <point x="462" y="-49"/>
      <point x="474" y="-55" type="qcurve" smooth="yes"/>
      <point x="487" y="-59"/>
      <point x="497" y="-86"/>
      <point x="491" y="-99" type="qcurve" smooth="yes"/>
      <point x="486" y="-110"/>
      <point x="473" y="-115" type="qcurve"/>
      <point x="468" y="-118"/>
      <point x="460" y="-118" type="qcurve" smooth="yes"/>
      <point x="454" y="-118"/>
      <point x="447" y="-115" type="qcurve" smooth="yes"/>
      <point x="435" y="-109"/>
      <point x="430" y="-97" type="qcurve"/>
      <point x="427" y="-91"/>
      <point x="427" y="-77"/>
    </contour>
    <contour>
      <point x="493" y="20"/>
      <point x="500" y="30" type="qcurve"/>
      <point x="672" y="235" type="line"/>
      <point x="680" y="247"/>
      <point x="694" y="248" type="qcurve" smooth="yes"/>
      <point x="699" y="248" type="line" smooth="yes"/>
      <point x="710" y="248"/>
      <point x="729" y="232"/>
      <point x="730" y="219" type="qcurve"/>
      <point x="730" y="214" type="line" smooth="yes"/>
      <point x="730" y="201"/>
      <point x="724" y="194" type="qcurve" smooth="yes"/>
      <point x="552" y="-13" type="line" smooth="yes"/>
      <point x="540" y="-26"/>
      <point x="527" y="-26" type="qcurve" smooth="yes"/>
      <point x="516" y="-26"/>
      <point x="494" y="-9"/>
      <point x="493" y="4" type="qcurve"/>
      <point x="493" y="8" type="line" smooth="yes"/>
    </contour>
    <contour>
      <point x="632" y="-30"/>
      <point x="635" y="-23" type="qcurve" smooth="yes"/>
      <point x="640" y="-10"/>
      <point x="653" y="-6" type="qcurve"/>
      <point x="660" y="-4"/>
      <point x="665" y="-3" type="qcurve"/>
      <point x="679" y="-6" type="line"/>
      <point x="692" y="-12"/>
      <point x="697" y="-24" type="qcurve" smooth="yes"/>
      <point x="702" y="-40"/>
      <point x="696" y="-50" type="qcurve"/>
      <point x="691" y="-62"/>
      <point x="678" y="-67" type="qcurve"/>
      <point x="673" y="-70"/>
      <point x="664" y="-70" type="qcurve" smooth="yes"/>
      <point x="660" y="-70"/>
      <point x="652" y="-67" type="qcurve"/>
      <point x="639" y="-62"/>
      <point x="634" y="-49" type="qcurve" smooth="yes"/>
      <point x="632" y="-42"/>
      <point x="632" y="-37" type="qcurve" smooth="yes"/>
    </contour>
  </outline>
</glyph>
<glyph name="uniF019" format="2">
  <advance width="1200"/>
  <unicode hex="E318"/>
  <note>
uniF019
</note>
  <outline>
    <contour>
      <point x="191" y="244"/>
      <point x="301" y="131"/>
      <point x="380" y="127" type="qcurve" smooth="yes"/>
      <point x="387" y="127"/>
      <point x="387" y="134" type="qcurve" smooth="yes"/>
      <point x="387" y="186" type="line" smooth="yes"/>
      <point x="387" y="194"/>
      <point x="380" y="194" type="qcurve" smooth="yes"/>
      <point x="329" y="196"/>
      <point x="258" y="272"/>
      <point x="258" y="323" type="qcurve" smooth="yes"/>
      <point x="258" y="372"/>
      <point x="325" y="445"/>
      <point x="374" y="450" type="qcurve"/>
      <point x="395" y="452" type="line" smooth="yes"/>
      <point x="403" y="452"/>
      <point x="403" y="459" type="qcurve"/>
      <point x="406" y="480" type="line"/>
      <point x="412" y="544"/>
      <point x="508" y="630"/>
      <point x="572" y="630" type="qcurve" smooth="yes"/>
      <point x="636" y="630"/>
      <point x="733" y="544"/>
      <point x="740" y="480" type="qcurve" smooth="yes"/>
      <point x="743" y="457" type="line"/>
      <point x="743" y="450"/>
      <point x="750" y="450" type="qcurve" smooth="yes"/>
      <point x="813" y="450" type="line" smooth="yes"/>
      <point x="866" y="450"/>
      <point x="943" y="375"/>
      <point x="943" y="272"/>
      <point x="872" y="196"/>
      <point x="821" y="194" type="qcurve" smooth="yes"/>
      <point x="813" y="194"/>
      <point x="813" y="186" type="qcurve" smooth="yes"/>
      <point x="813" y="134" type="line" smooth="yes"/>
      <point x="813" y="127"/>
      <point x="821" y="127" type="qcurve" smooth="yes"/>
      <point x="873" y="129"/>
      <point x="959" y="182"/>
      <point x="1009" y="271"/>
      <point x="1009" y="323" type="qcurve" smooth="yes"/>
      <point x="1009" y="376"/>
      <point x="957" y="465"/>
      <point x="866" y="517"/>
      <point x="813" y="517" type="qcurve" smooth="yes"/>
      <point x="801" y="517" type="line"/>
      <point x="782" y="596"/>
      <point x="654" y="697"/>
      <point x="572" y="697" type="qcurve" smooth="yes"/>
      <point x="489" y="697"/>
      <point x="360" y="593"/>
      <point x="341" y="513" type="qcurve"/>
      <point x="276" y="498"/>
      <point x="191" y="391"/>
      <point x="191" y="323" type="qcurve" smooth="yes"/>
    </contour>
    <contour>
      <point x="402" y="49"/>
      <point x="415" y="30"/>
      <point x="428" y="27" type="qcurve"/>
      <point x="428" y="27"/>
      <point x="432" y="25" type="qcurve" smooth="yes"/>
      <point x="434" y="25"/>
      <point x="436" y="25" type="qcurve" smooth="yes"/>
      <point x="461" y="25"/>
      <point x="469" y="50" type="qcurve" smooth="yes"/>
      <point x="533" y="276" type="line" smooth="yes"/>
      <point x="537" y="291"/>
      <point x="523" y="314"/>
      <point x="509" y="317" type="qcurve" smooth="yes"/>
      <point x="503" y="318"/>
      <point x="499" y="318" type="qcurve" smooth="yes"/>
      <point x="490" y="318"/>
      <point x="472" y="306"/>
      <point x="468" y="295" type="qcurve" smooth="yes"/>
      <point x="404" y="67" type="line" smooth="yes"/>
      <point x="402" y="62"/>
      <point x="402" y="59" type="qcurve" smooth="yes"/>
    </contour>
    <contour>
      <point x="501" y="-67"/>
      <point x="508" y="-77" type="qcurve" smooth="yes"/>
      <point x="517" y="-90"/>
      <point x="528" y="-93" type="qcurve"/>
      <point x="533" y="-95"/>
      <point x="538" y="-95" type="qcurve" smooth="yes"/>
      <point x="549" y="-95"/>
      <point x="568" y="-81"/>
      <point x="570" y="-71" type="qcurve"/>
      <point x="666" y="276" type="line" smooth="yes"/>
      <point x="669" y="290"/>
      <point x="657" y="313"/>
      <point x="644" y="317" type="qcurve" smooth="yes"/>
      <point x="638" y="318"/>
      <point x="633" y="318" type="qcurve" smooth="yes"/>
      <point x="623" y="318"/>
      <point x="605" y="306"/>
      <point x="602" y="295" type="qcurve"/>
      <point x="506" y="-52" type="line" smooth="yes"/>
    </contour>
    <contour>
      <point x="669" y="49"/>
      <point x="681" y="30"/>
      <point x="693" y="27" type="qcurve" smooth="yes"/>
      <point x="703" y="25" type="line"/>
      <point x="714" y="25"/>
      <point x="732" y="38"/>
      <point x="734" y="50" type="qcurve"/>
      <point x="798" y="276" type="line"/>
      <point x="798" y="277"/>
      <point x="800" y="284"/>
      <point x="800" y="286" type="qcurve" smooth="yes"/>
      <point x="800" y="296"/>
      <point x="788" y="313"/>
      <point x="775" y="317" type="qcurve" smooth="yes"/>
      <point x="770" y="318"/>
      <point x="765" y="318" type="qcurve" smooth="yes"/>
      <point x="755" y="318"/>
      <point x="738" y="306"/>
      <point x="735" y="295" type="qcurve" smooth="yes"/>
      <point x="670" y="67" type="line" smooth="yes"/>
      <point x="669" y="60"/>
      <point x="669" y="58" type="qcurve" smooth="yes"/>
    </contour>
  </outline>
</glyph>
<glyph name="uniF01A" format="2">
  <advance width="1200"/>
  <unicode hex="E319"/>
  <note>
uniF01A
</note>
  <outline>
    <contour>
      <point x="189" y="284"/>
      <point x="219" y="213"/>
      <point x="270" y="161"/>
      <point x="340" y="129"/>
      <point x="379" y="127" type="qcurve" smooth="yes"/>
      <point x="386" y="127"/>
      <point x="386" y="134" type="qcurve" smooth="yes"/>
      <point x="386" y="187" type="line" smooth="yes"/>
      <point x="386" y="194"/>
      <point x="379" y="194" type="qcurve" smooth="yes"/>
      <point x="328" y="196"/>
      <point x="258" y="271"/>
      <point x="258" y="322" type="qcurve" smooth="yes"/>
      <point x="258" y="373"/>
      <point x="325" y="446"/>
      <point x="375" y="450" type="qcurve"/>
      <point x="396" y="453" type="line"/>
      <point x="402" y="453"/>
      <point x="402" y="459" type="qcurve"/>
      <point x="405" y="480" type="line" smooth="yes"/>
      <point x="411" y="545"/>
      <point x="507" y="631"/>
      <point x="572" y="631" type="qcurve" smooth="yes"/>
      <point x="615" y="631"/>
      <point x="689" y="592"/>
      <point x="736" y="523"/>
      <point x="740" y="481" type="qcurve" smooth="yes"/>
      <point x="743" y="459" type="line"/>
      <point x="745" y="452"/>
      <point x="752" y="452" type="qcurve" smooth="yes"/>
      <point x="816" y="452" type="line" smooth="yes"/>
      <point x="869" y="452"/>
      <point x="944" y="375"/>
      <point x="944" y="322" type="qcurve" smooth="yes"/>
      <point x="944" y="272"/>
      <point x="873" y="198"/>
      <point x="823" y="194" type="qcurve"/>
      <point x="816" y="194"/>
      <point x="816" y="187" type="qcurve" smooth="yes"/>
      <point x="816" y="134" type="line" smooth="yes"/>
      <point x="816" y="127"/>
      <point x="823" y="127" type="qcurve" smooth="yes"/>
      <point x="902" y="130"/>
      <point x="1011" y="243"/>
      <point x="1011" y="322" type="qcurve" smooth="yes"/>
      <point x="1011" y="376"/>
      <point x="959" y="466"/>
      <point x="870" y="518"/>
      <point x="816" y="518" type="qcurve" smooth="yes"/>
      <point x="803" y="518" type="line"/>
      <point x="783" y="598"/>
      <point x="655" y="699"/>
      <point x="572" y="699" type="qcurve" smooth="yes"/>
      <point x="489" y="699"/>
      <point x="360" y="594"/>
      <point x="342" y="513" type="qcurve"/>
      <point x="275" y="498"/>
      <point x="189" y="391"/>
      <point x="189" y="322" type="qcurve" smooth="yes"/>
    </contour>
    <contour>
      <point x="403" y="46"/>
      <point x="416" y="26"/>
      <point x="429" y="22" type="qcurve"/>
      <point x="430" y="22"/>
      <point x="435" y="22"/>
      <point x="439" y="21"/>
      <point x="440" y="21" type="qcurve" smooth="yes"/>
      <point x="463" y="21"/>
      <point x="470" y="47" type="qcurve"/>
      <point x="480" y="87" type="line" smooth="yes"/>
      <point x="484" y="101"/>
      <point x="470" y="124"/>
      <point x="457" y="128" type="qcurve" smooth="yes"/>
      <point x="443" y="132"/>
      <point x="420" y="119"/>
      <point x="416" y="105" type="qcurve" smooth="yes"/>
      <point x="405" y="65" type="line"/>
      <point x="405" y="64"/>
      <point x="403" y="57"/>
      <point x="403" y="55" type="qcurve" smooth="yes"/>
    </contour>
    <contour>
      <point x="456" y="236"/>
      <point x="469" y="216"/>
      <point x="482" y="213" type="qcurve"/>
      <point x="495" y="207"/>
      <point x="519" y="221"/>
      <point x="523" y="237" type="qcurve" smooth="yes"/>
      <point x="533" y="276" type="line" smooth="yes"/>
      <point x="537" y="290"/>
      <point x="523" y="313"/>
      <point x="510" y="318" type="qcurve"/>
      <point x="509" y="318"/>
      <point x="504" y="318"/>
      <point x="501" y="319"/>
      <point x="500" y="319" type="qcurve" smooth="yes"/>
      <point x="490" y="319"/>
      <point x="472" y="306"/>
      <point x="469" y="295" type="qcurve" smooth="yes"/>
      <point x="457" y="254" type="line"/>
      <point x="457" y="253"/>
      <point x="456" y="247"/>
      <point x="456" y="245" type="qcurve" smooth="yes"/>
    </contour>
    <contour>
      <point x="504" y="-79"/>
      <point x="517" y="-99"/>
      <point x="530" y="-101" type="qcurve" smooth="yes"/>
      <point x="537" y="-102"/>
      <point x="540" y="-102" type="qcurve" smooth="yes"/>
      <point x="565" y="-102"/>
      <point x="571" y="-78" type="qcurve" smooth="yes"/>
      <point x="581" y="-37" type="line" smooth="yes"/>
      <point x="585" y="-23"/>
      <point x="572" y="1"/>
      <point x="559" y="5" type="qcurve" smooth="yes"/>
      <point x="545" y="9"/>
      <point x="521" y="-6"/>
      <point x="517" y="-20" type="qcurve" smooth="yes"/>
      <point x="506" y="-59" type="line"/>
      <point x="506" y="-60"/>
      <point x="504" y="-67"/>
      <point x="504" y="-69" type="qcurve" smooth="yes"/>
    </contour>
    <contour>
      <point x="557" y="109"/>
      <point x="570" y="91"/>
      <point x="583" y="89" type="qcurve" smooth="yes"/>
      <point x="593" y="87"/>
      <point x="595" y="87" type="qcurve" smooth="yes"/>
      <point x="616" y="87"/>
      <point x="624" y="113" type="qcurve" smooth="yes"/>
      <point x="633" y="152" type="line"/>
      <point x="638" y="167"/>
      <point x="624" y="190"/>
      <point x="611" y="194" type="qcurve" smooth="yes"/>
      <point x="597" y="198"/>
      <point x="573" y="184"/>
      <point x="569" y="171" type="qcurve" smooth="yes"/>
      <point x="559" y="130" type="line" smooth="yes"/>
      <point x="557" y="123"/>
      <point x="557" y="120" type="qcurve" smooth="yes"/>
    </contour>
    <contour>
      <point x="669" y="43"/>
      <point x="681" y="24"/>
      <point x="693" y="21" type="qcurve" smooth="yes"/>
      <point x="698" y="20"/>
      <point x="704" y="20" type="qcurve" smooth="yes"/>
      <point x="729" y="20"/>
      <point x="735" y="44" type="qcurve" smooth="yes"/>
      <point x="746" y="86" type="line" smooth="yes"/>
      <point x="750" y="99"/>
      <point x="736" y="123"/>
      <point x="722" y="127" type="qcurve" smooth="yes"/>
      <point x="709" y="131"/>
      <point x="685" y="117"/>
      <point x="681" y="102" type="qcurve" smooth="yes"/>
      <point x="670" y="63" type="line"/>
      <point x="668" y="58"/>
      <point x="668" y="54" type="qcurve" smooth="yes"/>
    </contour>
    <contour>
      <point x="723" y="232"/>
      <point x="735" y="215"/>
      <point x="747" y="211" type="qcurve" smooth="yes"/>
      <point x="757" y="209"/>
      <point x="761" y="209" type="qcurve" smooth="yes"/>
      <point x="783" y="209"/>
      <point x="791" y="234" type="qcurve"/>
      <point x="800" y="275" type="line" smooth="yes"/>
      <point x="804" y="291"/>
      <point x="797" y="301" type="qcurve" smooth="yes"/>
      <point x="790" y="313"/>
      <point x="777" y="316" type="qcurve" smooth="yes"/>
      <point x="770" y="317"/>
      <point x="767" y="317" type="qcurve"/>
      <point x="757" y="318"/>
      <point x="739" y="305"/>
      <point x="737" y="293" type="qcurve"/>
      <point x="725" y="252" type="line"/>
      <point x="723" y="244"/>
      <point x="723" y="242" type="qcurve" smooth="yes"/>
    </contour>
  </outline>
</glyph>
